<?xml version="1.0" encoding="UTF-8" standalone="no"?>
<!DOCTYPE svg PUBLIC "-//W3C//DTD SVG 1.1//EN"
 "http://www.w3.org/Graphics/SVG/1.1/DTD/svg11.dtd">
<!-- Generated by graphviz version 12.2.1 (0)
 -->
<!-- Title: root Pages: 1 -->
<svg width="5680pt" height="975pt"
 viewBox="0.00 0.00 5679.75 975.25" xmlns="http://www.w3.org/2000/svg" xmlns:xlink="http://www.w3.org/1999/xlink">
<g id="graph0" class="graph" transform="scale(1 1) rotate(0) translate(108 867.25)">
<title>root</title>
<polygon fill="#2f2f2f" stroke="none" points="-108,108 -108,-867.25 5571.75,-867.25 5571.75,108 -108,108"/>
<text text-anchor="middle" x="2731.88" y="-7.95" font-family="Helvetica,sans-Serif" font-size="14.00">/home/michael/git/repos/OpSL_test/OpenStudioLandscapes/.landscapes/2025&#45;04&#45;13&#45;00&#45;46&#45;55&#45;37e03a603c434c27b735f876d55863f4/Compose_default__Compose_default/Compose_default__group_out/docker_compose/docker&#45;compose.yml</text>
<g id="clust2" class="cluster">
<title>cluster_cluster_root_services_2025&#45;04&#45;13&#45;00&#45;46&#45;55&#45;37e03a603c434c27b735f876d55863f4&#45;default</title>
<path fill="#ff00ff" fill-opacity="0.062745" stroke="#ff00ff" d="M1928.25,-221.25C1928.25,-221.25 5443.75,-221.25 5443.75,-221.25 5449.75,-221.25 5455.75,-227.25 5455.75,-233.25 5455.75,-233.25 5455.75,-739.25 5455.75,-739.25 5455.75,-745.25 5449.75,-751.25 5443.75,-751.25 5443.75,-751.25 1928.25,-751.25 1928.25,-751.25 1922.25,-751.25 1916.25,-745.25 1916.25,-739.25 1916.25,-739.25 1916.25,-233.25 1916.25,-233.25 1916.25,-227.25 1922.25,-221.25 1928.25,-221.25"/>
<text text-anchor="middle" x="3686" y="-709.25" font-family="Helvetica,sans-Serif" font-size="40.00" fill="#ff00ff">Compose Services (2025&#45;04&#45;13&#45;00&#45;46&#45;55&#45;37e03a603c434c27b735f876d55863f4&#45;default)</text>
</g>
<g id="clust3" class="cluster">
<title>cluster_cluster_service_kitsu</title>
<path fill="#00ffff" fill-opacity="0.062745" stroke="white" d="M1936.25,-229.25C1936.25,-229.25 3322,-229.25 3322,-229.25 3328,-229.25 3334,-235.25 3334,-241.25 3334,-241.25 3334,-676.25 3334,-676.25 3334,-682.25 3328,-688.25 3322,-688.25 3322,-688.25 1936.25,-688.25 1936.25,-688.25 1930.25,-688.25 1924.25,-682.25 1924.25,-676.25 1924.25,-676.25 1924.25,-241.25 1924.25,-241.25 1924.25,-235.25 1930.25,-229.25 1936.25,-229.25"/>
<text text-anchor="middle" x="2629.12" y="-646.25" font-family="Helvetica,sans-Serif" font-size="40.00" fill="white">kitsu</text>
</g>
<g id="clust4" class="cluster">
<title>cluster_cluster_service_kitsu&#45;init&#45;db</title>
<path fill="#00ffff" fill-opacity="0.062745" stroke="white" d="M4050,-229.25C4050,-229.25 5435.75,-229.25 5435.75,-229.25 5441.75,-229.25 5447.75,-235.25 5447.75,-241.25 5447.75,-241.25 5447.75,-587.25 5447.75,-587.25 5447.75,-593.25 5441.75,-599.25 5435.75,-599.25 5435.75,-599.25 4050,-599.25 4050,-599.25 4044,-599.25 4038,-593.25 4038,-587.25 4038,-587.25 4038,-241.25 4038,-241.25 4038,-235.25 4044,-229.25 4050,-229.25"/>
<text text-anchor="middle" x="4742.88" y="-557.25" font-family="Helvetica,sans-Serif" font-size="40.00" fill="white">kitsu&#45;init&#45;db</text>
</g>
<g id="clust5" class="cluster">
<title>cluster_cluster_host</title>
<path fill="#000000" fill-opacity="0.062745" stroke="#000000" d="M20,-33.25C20,-33.25 1216.25,-33.25 1216.25,-33.25 1222.25,-33.25 1228.25,-39.25 1228.25,-45.25 1228.25,-45.25 1228.25,-582.25 1228.25,-582.25 1228.25,-588.25 1222.25,-594.25 1216.25,-594.25 1216.25,-594.25 20,-594.25 20,-594.25 14,-594.25 8,-588.25 8,-582.25 8,-582.25 8,-45.25 8,-45.25 8,-39.25 14,-33.25 20,-33.25"/>
<text text-anchor="middle" x="618.12" y="-552.25" font-family="Helvetica,sans-Serif" font-size="40.00" fill="#000000">Host</text>
</g>
<g id="clust6" class="cluster">
<title>cluster_cluster_root_ports</title>
<path fill="#ffffff" fill-opacity="0.062745" stroke="#ffffff" d="M480.5,-41.25C480.5,-41.25 756.75,-41.25 756.75,-41.25 762.75,-41.25 768.75,-47.25 768.75,-53.25 768.75,-53.25 768.75,-173.25 768.75,-173.25 768.75,-179.25 762.75,-185.25 756.75,-185.25 756.75,-185.25 480.5,-185.25 480.5,-185.25 474.5,-185.25 468.5,-179.25 468.5,-173.25 468.5,-173.25 468.5,-53.25 468.5,-53.25 468.5,-47.25 474.5,-41.25 480.5,-41.25"/>
<text text-anchor="middle" x="618.62" y="-143.25" font-family="Helvetica,sans-Serif" font-size="40.00" fill="#ffffff">Exposed Ports</text>
</g>
<g id="clust7" class="cluster">
<title>cluster_cluster_root_volumes</title>
<path fill="#00ffff" fill-opacity="0.062745" stroke="#00ffff" d="M28,-193.25C28,-193.25 1208.25,-193.25 1208.25,-193.25 1214.25,-193.25 1220.25,-199.25 1220.25,-205.25 1220.25,-205.25 1220.25,-404.25 1220.25,-404.25 1220.25,-410.25 1214.25,-416.25 1208.25,-416.25 1208.25,-416.25 28,-416.25 28,-416.25 22,-416.25 16,-410.25 16,-404.25 16,-404.25 16,-205.25 16,-205.25 16,-199.25 22,-193.25 28,-193.25"/>
<text text-anchor="middle" x="618.12" y="-374.25" font-family="Helvetica,sans-Serif" font-size="40.00" fill="#00ffff">Mounted Volumes</text>
</g>
<g id="clust8" class="cluster">
<title>cluster_cluster_root_networks</title>
<path fill="#ffa500" fill-opacity="0.062745" stroke="#ffa500" d="M528.12,-424.25C528.12,-424.25 709.12,-424.25 709.12,-424.25 715.12,-424.25 721.12,-430.25 721.12,-436.25 721.12,-436.25 721.12,-519.25 721.12,-519.25 721.12,-525.25 715.12,-531.25 709.12,-531.25 709.12,-531.25 528.12,-531.25 528.12,-531.25 522.12,-531.25 516.12,-525.25 516.12,-519.25 516.12,-519.25 516.12,-436.25 516.12,-436.25 516.12,-430.25 522.12,-424.25 528.12,-424.25"/>
<text text-anchor="middle" x="618.62" y="-489.25" font-family="Helvetica,sans-Serif" font-size="40.00" fill="#ffa500">Networks</text>
</g>
<!-- NODE&#45;SERVICE_kitsu -->
<g id="node1" class="node">
<title>NODE&#45;SERVICE_kitsu</title>
<polygon fill="#a0a0a0" stroke="none" points="3326,-625.12 1932.25,-625.12 1932.25,-237.38 3326,-237.38 3326,-625.12"/>
<polygon fill="none" stroke="#0a0a0a" points="1933.25,-604.88 1933.25,-624.12 2320.25,-624.12 2320.25,-604.88 1933.25,-604.88"/>
<text text-anchor="start" x="2134" y="-609.83" font-family="Helvetica,sans-Serif" font-size="14.00"> &#160;&#160;&#160;&#160;&#160;&#160;&#160;&#160;&#160;&#160;&#160;service_name &#160;&#160;&#160;&#160;&#160;&#160;&#160;</text>
<polygon fill="none" stroke="#0a0a0a" points="2320.25,-604.88 2320.25,-624.12 3325,-624.12 3325,-604.88 2320.25,-604.88"/>
<text text-anchor="start" x="2321.25" y="-609.83" font-family="Helvetica,sans-Serif" font-size="14.00"> &#160;&#160;&#160;&#160;&#160;&#160;&#160;&#160;&#160;&#160;&#160;kitsu &#160;&#160;&#160;&#160;&#160;&#160;&#160;</text>
<polygon fill="none" stroke="#0a0a0a" points="1933.25,-585.62 1933.25,-604.88 2320.25,-604.88 2320.25,-585.62 1933.25,-585.62"/>
<text text-anchor="start" x="2118.25" y="-590.58" font-family="Helvetica,sans-Serif" font-size="14.00"> &#160;&#160;&#160;&#160;&#160;&#160;&#160;&#160;&#160;&#160;&#160;container_name &#160;&#160;&#160;&#160;&#160;&#160;&#160;</text>
<polygon fill="none" stroke="#0a0a0a" points="2320.25,-585.62 2320.25,-604.88 3325,-604.88 3325,-585.62 2320.25,-585.62"/>
<text text-anchor="start" x="2321.25" y="-590.58" font-family="Helvetica,sans-Serif" font-size="14.00"> &#160;&#160;&#160;&#160;&#160;&#160;&#160;&#160;&#160;&#160;&#160;kitsu &#160;&#160;&#160;&#160;&#160;&#160;&#160;</text>
<polygon fill="none" stroke="#0a0a0a" points="1933.25,-566.38 1933.25,-585.62 2320.25,-585.62 2320.25,-566.38 1933.25,-566.38"/>
<text text-anchor="start" x="2160.25" y="-571.33" font-family="Helvetica,sans-Serif" font-size="14.00"> &#160;&#160;&#160;&#160;&#160;&#160;&#160;&#160;&#160;&#160;&#160;hostname &#160;&#160;&#160;&#160;&#160;&#160;&#160;</text>
<polygon fill="none" stroke="#0a0a0a" points="2320.25,-566.38 2320.25,-585.62 3325,-585.62 3325,-566.38 2320.25,-566.38"/>
<text text-anchor="start" x="2321.25" y="-571.33" font-family="Helvetica,sans-Serif" font-size="14.00"> &#160;&#160;&#160;&#160;&#160;&#160;&#160;&#160;&#160;&#160;&#160;kitsu.farm.evil &#160;&#160;&#160;&#160;&#160;&#160;&#160;</text>
<polygon fill="none" stroke="#0a0a0a" points="1933.25,-547.12 1933.25,-566.38 2320.25,-566.38 2320.25,-547.12 1933.25,-547.12"/>
<text text-anchor="start" x="2138.5" y="-552.08" font-family="Helvetica,sans-Serif" font-size="14.00"> &#160;&#160;&#160;&#160;&#160;&#160;&#160;&#160;&#160;&#160;&#160;domainname &#160;&#160;&#160;&#160;&#160;&#160;&#160;</text>
<polygon fill="none" stroke="#0a0a0a" points="2320.25,-547.12 2320.25,-566.38 3325,-566.38 3325,-547.12 2320.25,-547.12"/>
<text text-anchor="start" x="2321.25" y="-552.08" font-family="Helvetica,sans-Serif" font-size="14.00"> &#160;&#160;&#160;&#160;&#160;&#160;&#160;&#160;&#160;&#160;&#160;farm.evil &#160;&#160;&#160;&#160;&#160;&#160;&#160;</text>
<polygon fill="none" stroke="#0a0a0a" points="1933.25,-527.88 1933.25,-547.12 2320.25,-547.12 2320.25,-527.88 1933.25,-527.88"/>
<text text-anchor="start" x="2183.5" y="-532.83" font-family="Helvetica,sans-Serif" font-size="14.00"> &#160;&#160;&#160;&#160;&#160;&#160;&#160;&#160;&#160;&#160;&#160;restart &#160;&#160;&#160;&#160;&#160;&#160;&#160;</text>
<polygon fill="none" stroke="#0a0a0a" points="2320.25,-527.88 2320.25,-547.12 3325,-547.12 3325,-527.88 2320.25,-527.88"/>
<text text-anchor="start" x="2321.25" y="-532.83" font-family="Helvetica,sans-Serif" font-size="14.00"> &#160;&#160;&#160;&#160;&#160;&#160;&#160;&#160;&#160;&#160;&#160;always &#160;&#160;&#160;&#160;&#160;&#160;&#160;</text>
<polygon fill="none" stroke="#0a0a0a" points="1933.25,-508.62 1933.25,-527.88 2320.25,-527.88 2320.25,-508.62 1933.25,-508.62"/>
<text text-anchor="start" x="2186.5" y="-513.58" font-family="Helvetica,sans-Serif" font-size="14.00"> &#160;&#160;&#160;&#160;&#160;&#160;&#160;&#160;&#160;&#160;&#160;image &#160;&#160;&#160;&#160;&#160;&#160;&#160;</text>
<polygon fill="none" stroke="#0a0a0a" points="2320.25,-508.62 2320.25,-527.88 3325,-527.88 3325,-508.62 2320.25,-508.62"/>
<text text-anchor="start" x="2321.25" y="-513.58" font-family="Helvetica,sans-Serif" font-size="14.00"> &#160;&#160;&#160;&#160;&#160;&#160;&#160;&#160;&#160;&#160;&#160;harbor.farm.evil:80/openstudiolandscapes/kitsu_build_docker_image:2025&#45;04&#45;13&#45;00&#45;46&#45;55&#45;37e03a603c434c27b735f876d55863f4 &#160;&#160;&#160;&#160;&#160;&#160;&#160;</text>
<polygon fill="none" stroke="#0a0a0a" points="1933.25,-489.38 1933.25,-508.62 2320.25,-508.62 2320.25,-489.38 1933.25,-489.38"/>
<text text-anchor="start" x="2041" y="-494.32" font-family="Helvetica,sans-Serif" font-size="14.00"> &#160;&#160;&#160;&#160;&#160;&#160;&#160;&#160;&#160;&#160;&#160;command (ENTRYPOINT +) &#160;&#160;&#160;&#160;&#160;&#160;&#160;</text>
<polygon fill="none" stroke="#0a0a0a" points="2320.25,-489.38 2320.25,-508.62 3325,-508.62 3325,-489.38 2320.25,-489.38"/>
<text text-anchor="start" x="2321.25" y="-494.32" font-family="Helvetica,sans-Serif" font-size="14.00"> &#160;&#160;&#160;&#160;&#160;&#160;&#160;&#160;&#160;&#160;&#160;bash /opt/zou/start_zou.sh &#160;&#160;&#160;&#160;&#160;&#160;&#160;</text>
<polygon fill="none" stroke="#0a0a0a" points="1933.25,-466.12 1933.25,-489.38 2320.25,-489.38 2320.25,-466.12 1933.25,-466.12"/>
<text text-anchor="start" x="2085.25" y="-473.07" font-family="Helvetica,sans-Serif" font-size="14.00"> &#160;&#160;&#160;&#160;&#160;&#160;&#160;&#160;&#160;&#160;&#160;&#160;&#160;&#160;&#160;depends_on (1) &#160;&#160;&#160;&#160;&#160;&#160;&#160;&#160;&#160;&#160;&#160;</text>
<polygon fill="none" stroke="#0a0a0a" points="2320.25,-466.12 2320.25,-489.38 3325,-489.38 3325,-466.12 2320.25,-466.12"/>
<polygon fill="none" stroke="#0a0a0a" points="2322.25,-468.12 2322.25,-487.38 3323,-487.38 3323,-468.12 2322.25,-468.12"/>
<text text-anchor="start" x="2323.25" y="-473.07" font-family="Helvetica,sans-Serif" font-size="14.00"> &#160;&#160;&#160;&#160;&#160;&#160;&#160;&#160;&#160;&#160;&#160;&#160;&#160;&#160;&#160;&#160;&#160;&#160;&#160;&#160;&#160;&#160;&#160;&#160;&#160;&#160;&#160;kitsu&#45;init&#45;db (condition: service_completed_successfully) &#160;&#160;&#160;&#160;&#160;&#160;&#160;&#160;&#160;&#160;&#160;&#160;&#160;&#160;&#160;&#160;&#160;&#160;&#160;&#160;&#160;&#160;&#160;</text>
<polygon fill="none" stroke="#0a0a0a" points="2321.25,-467.12 2321.25,-488.38 3324,-488.38 3324,-467.12 2321.25,-467.12"/>
<polygon fill="none" stroke="#0a0a0a" points="1933.25,-365.88 1933.25,-466.12 2320.25,-466.12 2320.25,-365.88 1933.25,-365.88"/>
<text text-anchor="start" x="2081.5" y="-411.32" font-family="Helvetica,sans-Serif" font-size="14.00"> &#160;&#160;&#160;&#160;&#160;&#160;&#160;&#160;&#160;&#160;&#160;&#160;&#160;&#160;&#160;environment (5) &#160;&#160;&#160;&#160;&#160;&#160;&#160;&#160;&#160;&#160;&#160;</text>
<polygon fill="none" stroke="#0a0a0a" points="2320.25,-365.88 2320.25,-466.12 3325,-466.12 3325,-365.88 2320.25,-365.88"/>
<polygon fill="none" stroke="#0a0a0a" points="2322.25,-444.88 2322.25,-464.12 3323,-464.12 3323,-444.88 2322.25,-444.88"/>
<text text-anchor="start" x="2323.25" y="-449.82" font-family="Helvetica,sans-Serif" font-size="14.00"> &#160;&#160;&#160;&#160;&#160;&#160;&#160;&#160;&#160;&#160;&#160;&#160;&#160;&#160;&#160;&#160;&#160;&#160;&#160;&#160;&#160;&#160;&#160;&#160;&#160;&#160;&#160;DB_PASSWORD=myp4ssword &#160;&#160;&#160;&#160;&#160;&#160;&#160;&#160;&#160;&#160;&#160;&#160;&#160;&#160;&#160;&#160;&#160;&#160;&#160;&#160;&#160;&#160;&#160;</text>
<polygon fill="none" stroke="#0a0a0a" points="2322.25,-425.62 2322.25,-444.88 3323,-444.88 3323,-425.62 2322.25,-425.62"/>
<text text-anchor="start" x="2323.25" y="-430.57" font-family="Helvetica,sans-Serif" font-size="14.00"> &#160;&#160;&#160;&#160;&#160;&#160;&#160;&#160;&#160;&#160;&#160;&#160;&#160;&#160;&#160;&#160;&#160;&#160;&#160;&#160;&#160;&#160;&#160;&#160;&#160;&#160;&#160;KITSU_ADMIN=michimussato@gmail.com &#160;&#160;&#160;&#160;&#160;&#160;&#160;&#160;&#160;&#160;&#160;&#160;&#160;&#160;&#160;&#160;&#160;&#160;&#160;&#160;&#160;&#160;&#160;</text>
<polygon fill="none" stroke="#0a0a0a" points="2322.25,-406.38 2322.25,-425.62 3323,-425.62 3323,-406.38 2322.25,-406.38"/>
<text text-anchor="start" x="2323.25" y="-411.32" font-family="Helvetica,sans-Serif" font-size="14.00"> &#160;&#160;&#160;&#160;&#160;&#160;&#160;&#160;&#160;&#160;&#160;&#160;&#160;&#160;&#160;&#160;&#160;&#160;&#160;&#160;&#160;&#160;&#160;&#160;&#160;&#160;&#160;PREVIEW_FOLDER=/opt/zou/previews &#160;&#160;&#160;&#160;&#160;&#160;&#160;&#160;&#160;&#160;&#160;&#160;&#160;&#160;&#160;&#160;&#160;&#160;&#160;&#160;&#160;&#160;&#160;</text>
<polygon fill="none" stroke="#0a0a0a" points="2322.25,-387.12 2322.25,-406.38 3323,-406.38 3323,-387.12 2322.25,-387.12"/>
<text text-anchor="start" x="2323.25" y="-392.07" font-family="Helvetica,sans-Serif" font-size="14.00"> &#160;&#160;&#160;&#160;&#160;&#160;&#160;&#160;&#160;&#160;&#160;&#160;&#160;&#160;&#160;&#160;&#160;&#160;&#160;&#160;&#160;&#160;&#160;&#160;&#160;&#160;&#160;SECRET_KEY=yourrandomsecretkey &#160;&#160;&#160;&#160;&#160;&#160;&#160;&#160;&#160;&#160;&#160;&#160;&#160;&#160;&#160;&#160;&#160;&#160;&#160;&#160;&#160;&#160;&#160;</text>
<polygon fill="none" stroke="#0a0a0a" points="2322.25,-367.88 2322.25,-387.12 3323,-387.12 3323,-367.88 2322.25,-367.88"/>
<text text-anchor="start" x="2323.25" y="-372.82" font-family="Helvetica,sans-Serif" font-size="14.00"> &#160;&#160;&#160;&#160;&#160;&#160;&#160;&#160;&#160;&#160;&#160;&#160;&#160;&#160;&#160;&#160;&#160;&#160;&#160;&#160;&#160;&#160;&#160;&#160;&#160;&#160;&#160;TMP_DIR=/opt/zou/tmp &#160;&#160;&#160;&#160;&#160;&#160;&#160;&#160;&#160;&#160;&#160;&#160;&#160;&#160;&#160;&#160;&#160;&#160;&#160;&#160;&#160;&#160;&#160;</text>
<polygon fill="none" stroke="#0a0a0a" points="2321.25,-366.88 2321.25,-465.12 3324,-465.12 3324,-366.88 2321.25,-366.88"/>
<polygon fill="none" stroke="#0a0a0a" points="1933.25,-284.88 1933.25,-365.88 2320.25,-365.88 2320.25,-284.88 1933.25,-284.88"/>
<polygon fill="none" stroke="#0a0a0a" points="1935.25,-344.62 1935.25,-363.88 2318.25,-363.88 2318.25,-344.62 1935.25,-344.62"/>
<text text-anchor="start" x="1936.25" y="-349.57" font-family="Helvetica,sans-Serif" font-size="14.00"> &#160;&#160;&#160;&#160;&#160;&#160;&#160;&#160;&#160;&#160;&#160;&#160;&#160;&#160;&#160;&#160;&#160;&#160;&#160;&#160;&#160;&#160;&#160;&#160;&#160;&#160;&#160;/var/lib/postgresql:rw &#160;&#160;&#160;&#160;&#160;&#160;&#160;&#160;&#160;&#160;&#160;&#160;&#160;&#160;&#160;&#160;&#160;&#160;&#160;&#160;&#160;&#160;&#160;</text>
<polygon fill="none" stroke="#0a0a0a" points="1935.25,-325.38 1935.25,-344.62 2318.25,-344.62 2318.25,-325.38 1935.25,-325.38"/>
<text text-anchor="start" x="1936.25" y="-330.32" font-family="Helvetica,sans-Serif" font-size="14.00"> &#160;&#160;&#160;&#160;&#160;&#160;&#160;&#160;&#160;&#160;&#160;&#160;&#160;&#160;&#160;&#160;&#160;&#160;&#160;&#160;&#160;&#160;&#160;&#160;&#160;&#160;&#160;/opt/zou/previews:rw &#160;&#160;&#160;&#160;&#160;&#160;&#160;&#160;&#160;&#160;&#160;&#160;&#160;&#160;&#160;&#160;&#160;&#160;&#160;&#160;&#160;&#160;&#160;</text>
<polygon fill="none" stroke="#0a0a0a" points="1935.25,-306.12 1935.25,-325.38 2318.25,-325.38 2318.25,-306.12 1935.25,-306.12"/>
<text text-anchor="start" x="1936.25" y="-311.07" font-family="Helvetica,sans-Serif" font-size="14.00"> &#160;&#160;&#160;&#160;&#160;&#160;&#160;&#160;&#160;&#160;&#160;&#160;&#160;&#160;&#160;&#160;&#160;&#160;&#160;&#160;&#160;&#160;&#160;&#160;&#160;&#160;&#160;/data/share/nfs:rw &#160;&#160;&#160;&#160;&#160;&#160;&#160;&#160;&#160;&#160;&#160;&#160;&#160;&#160;&#160;&#160;&#160;&#160;&#160;&#160;&#160;&#160;&#160;</text>
<polygon fill="none" stroke="#0a0a0a" points="1935.25,-286.88 1935.25,-306.12 2318.25,-306.12 2318.25,-286.88 1935.25,-286.88"/>
<text text-anchor="start" x="1936.25" y="-291.82" font-family="Helvetica,sans-Serif" font-size="14.00"> &#160;&#160;&#160;&#160;&#160;&#160;&#160;&#160;&#160;&#160;&#160;&#160;&#160;&#160;&#160;&#160;&#160;&#160;&#160;&#160;&#160;&#160;&#160;&#160;&#160;&#160;&#160;/nfs:rw &#160;&#160;&#160;&#160;&#160;&#160;&#160;&#160;&#160;&#160;&#160;&#160;&#160;&#160;&#160;&#160;&#160;&#160;&#160;&#160;&#160;&#160;&#160;</text>
<polygon fill="none" stroke="#0a0a0a" points="1934.25,-285.88 1934.25,-364.88 2319.25,-364.88 2319.25,-285.88 1934.25,-285.88"/>
<polygon fill="none" stroke="#0a0a0a" points="2320.25,-284.88 2320.25,-365.88 3325,-365.88 3325,-284.88 2320.25,-284.88"/>
<text text-anchor="start" x="2321.25" y="-320.7" font-family="Helvetica,sans-Serif" font-size="14.00"> &#160;&#160;&#160;&#160;&#160;&#160;&#160;&#160;&#160;&#160;&#160;&#160;&#160;&#160;&#160;volumes (4) &#160;&#160;&#160;&#160;&#160;&#160;&#160;&#160;&#160;&#160;&#160;</text>
<polygon fill="none" stroke="#0a0a0a" points="1933.25,-261.62 1933.25,-284.88 2320.25,-284.88 2320.25,-261.62 1933.25,-261.62"/>
<polygon fill="none" stroke="#0a0a0a" points="1935.25,-263.62 1935.25,-282.88 2318.25,-282.88 2318.25,-263.62 1935.25,-263.62"/>
<text text-anchor="start" x="1936.25" y="-268.57" font-family="Helvetica,sans-Serif" font-size="14.00"> &#160;&#160;&#160;&#160;&#160;&#160;&#160;&#160;&#160;&#160;&#160;&#160;&#160;&#160;&#160;&#160;&#160;&#160;&#160;&#160;&#160;&#160;&#160;&#160;&#160;&#160;&#160;4545 → 80 &#160;&#160;&#160;&#160;&#160;&#160;&#160;&#160;&#160;&#160;&#160;&#160;&#160;&#160;&#160;&#160;&#160;&#160;&#160;&#160;&#160;&#160;&#160;</text>
<polygon fill="none" stroke="#0a0a0a" points="1934.25,-262.62 1934.25,-283.88 2319.25,-283.88 2319.25,-262.62 1934.25,-262.62"/>
<polygon fill="none" stroke="#0a0a0a" points="2320.25,-261.62 2320.25,-284.88 3325,-284.88 3325,-261.62 2320.25,-261.62"/>
<text text-anchor="start" x="2321.25" y="-268.57" font-family="Helvetica,sans-Serif" font-size="14.00"> &#160;&#160;&#160;&#160;&#160;&#160;&#160;&#160;&#160;&#160;&#160;&#160;&#160;&#160;&#160;ports (1) &#160;&#160;&#160;&#160;&#160;&#160;&#160;&#160;&#160;&#160;&#160;</text>
<polygon fill="none" stroke="#0a0a0a" points="1933.25,-238.38 1933.25,-261.62 2320.25,-261.62 2320.25,-238.38 1933.25,-238.38"/>
<polygon fill="none" stroke="#0a0a0a" points="1935.25,-240.38 1935.25,-259.62 2318.25,-259.62 2318.25,-240.38 1935.25,-240.38"/>
<text text-anchor="start" x="1936.25" y="-245.32" font-family="Helvetica,sans-Serif" font-size="14.00"> &#160;&#160;&#160;&#160;&#160;&#160;&#160;&#160;&#160;&#160;&#160;&#160;&#160;&#160;&#160;&#160;&#160;&#160;&#160;&#160;&#160;&#160;&#160;&#160;&#160;&#160;&#160;kitsu &#160;&#160;&#160;&#160;&#160;&#160;&#160;&#160;&#160;&#160;&#160;&#160;&#160;&#160;&#160;&#160;&#160;&#160;&#160;&#160;&#160;&#160;&#160;</text>
<polygon fill="none" stroke="#0a0a0a" points="1934.25,-239.38 1934.25,-260.62 2319.25,-260.62 2319.25,-239.38 1934.25,-239.38"/>
<polygon fill="none" stroke="#0a0a0a" points="2320.25,-238.38 2320.25,-261.62 3325,-261.62 3325,-238.38 2320.25,-238.38"/>
<text text-anchor="start" x="2321.25" y="-245.32" font-family="Helvetica,sans-Serif" font-size="14.00"> &#160;&#160;&#160;&#160;&#160;&#160;&#160;&#160;&#160;&#160;&#160;&#160;&#160;&#160;&#160;networks (1) &#160;&#160;&#160;&#160;&#160;&#160;&#160;&#160;&#160;&#160;&#160;</text>
<polygon fill="none" stroke="#0a0a0a" points="1932.25,-237.38 1932.25,-625.12 3326,-625.12 3326,-237.38 1932.25,-237.38"/>
</g>
<!-- NODE&#45;SERVICE_kitsu&#45;init&#45;db -->
<g id="node2" class="node">
<title>NODE&#45;SERVICE_kitsu&#45;init&#45;db</title>
<polygon fill="#a0a0a0" stroke="none" points="5439.75,-535.62 4046,-535.62 4046,-236.88 5439.75,-236.88 5439.75,-535.62"/>
<polygon fill="none" stroke="#0a0a0a" points="4047,-515.38 4047,-534.62 4434,-534.62 4434,-515.38 4047,-515.38"/>
<text text-anchor="start" x="4247.75" y="-520.33" font-family="Helvetica,sans-Serif" font-size="14.00"> &#160;&#160;&#160;&#160;&#160;&#160;&#160;&#160;&#160;&#160;&#160;service_name &#160;&#160;&#160;&#160;&#160;&#160;&#160;</text>
<polygon fill="none" stroke="#0a0a0a" points="4434,-515.38 4434,-534.62 5438.75,-534.62 5438.75,-515.38 4434,-515.38"/>
<text text-anchor="start" x="4435" y="-520.33" font-family="Helvetica,sans-Serif" font-size="14.00"> &#160;&#160;&#160;&#160;&#160;&#160;&#160;&#160;&#160;&#160;&#160;kitsu&#45;init&#45;db &#160;&#160;&#160;&#160;&#160;&#160;&#160;</text>
<polygon fill="none" stroke="#0a0a0a" points="4047,-496.12 4047,-515.38 4434,-515.38 4434,-496.12 4047,-496.12"/>
<text text-anchor="start" x="4232" y="-501.07" font-family="Helvetica,sans-Serif" font-size="14.00"> &#160;&#160;&#160;&#160;&#160;&#160;&#160;&#160;&#160;&#160;&#160;container_name &#160;&#160;&#160;&#160;&#160;&#160;&#160;</text>
<polygon fill="none" stroke="#0a0a0a" points="4434,-496.12 4434,-515.38 5438.75,-515.38 5438.75,-496.12 4434,-496.12"/>
<text text-anchor="start" x="4435" y="-501.07" font-family="Helvetica,sans-Serif" font-size="14.00"> &#160;&#160;&#160;&#160;&#160;&#160;&#160;&#160;&#160;&#160;&#160;kitsu&#45;init&#45;db &#160;&#160;&#160;&#160;&#160;&#160;&#160;</text>
<polygon fill="none" stroke="#0a0a0a" points="4047,-476.88 4047,-496.12 4434,-496.12 4434,-476.88 4047,-476.88"/>
<text text-anchor="start" x="4274" y="-481.82" font-family="Helvetica,sans-Serif" font-size="14.00"> &#160;&#160;&#160;&#160;&#160;&#160;&#160;&#160;&#160;&#160;&#160;hostname &#160;&#160;&#160;&#160;&#160;&#160;&#160;</text>
<polygon fill="none" stroke="#0a0a0a" points="4434,-476.88 4434,-496.12 5438.75,-496.12 5438.75,-476.88 4434,-476.88"/>
<text text-anchor="start" x="4435" y="-481.82" font-family="Helvetica,sans-Serif" font-size="14.00"> &#160;&#160;&#160;&#160;&#160;&#160;&#160;&#160;&#160;&#160;&#160;kitsu&#45;init&#45;db.farm.evil &#160;&#160;&#160;&#160;&#160;&#160;&#160;</text>
<polygon fill="none" stroke="#0a0a0a" points="4047,-457.62 4047,-476.88 4434,-476.88 4434,-457.62 4047,-457.62"/>
<text text-anchor="start" x="4252.25" y="-462.57" font-family="Helvetica,sans-Serif" font-size="14.00"> &#160;&#160;&#160;&#160;&#160;&#160;&#160;&#160;&#160;&#160;&#160;domainname &#160;&#160;&#160;&#160;&#160;&#160;&#160;</text>
<polygon fill="none" stroke="#0a0a0a" points="4434,-457.62 4434,-476.88 5438.75,-476.88 5438.75,-457.62 4434,-457.62"/>
<text text-anchor="start" x="4435" y="-462.57" font-family="Helvetica,sans-Serif" font-size="14.00"> &#160;&#160;&#160;&#160;&#160;&#160;&#160;&#160;&#160;&#160;&#160;farm.evil &#160;&#160;&#160;&#160;&#160;&#160;&#160;</text>
<polygon fill="none" stroke="#0a0a0a" points="4047,-438.38 4047,-457.62 4434,-457.62 4434,-438.38 4047,-438.38"/>
<text text-anchor="start" x="4297.25" y="-443.32" font-family="Helvetica,sans-Serif" font-size="14.00"> &#160;&#160;&#160;&#160;&#160;&#160;&#160;&#160;&#160;&#160;&#160;restart &#160;&#160;&#160;&#160;&#160;&#160;&#160;</text>
<polygon fill="none" stroke="#0a0a0a" points="4434,-438.38 4434,-457.62 5438.75,-457.62 5438.75,-438.38 4434,-438.38"/>
<text text-anchor="start" x="4435" y="-443.32" font-family="Helvetica,sans-Serif" font-size="14.00"> &#160;&#160;&#160;&#160;&#160;&#160;&#160;&#160;&#160;&#160;&#160;no &#160;&#160;&#160;&#160;&#160;&#160;&#160;</text>
<polygon fill="none" stroke="#0a0a0a" points="4047,-419.12 4047,-438.38 4434,-438.38 4434,-419.12 4047,-419.12"/>
<text text-anchor="start" x="4300.25" y="-424.07" font-family="Helvetica,sans-Serif" font-size="14.00"> &#160;&#160;&#160;&#160;&#160;&#160;&#160;&#160;&#160;&#160;&#160;image &#160;&#160;&#160;&#160;&#160;&#160;&#160;</text>
<polygon fill="none" stroke="#0a0a0a" points="4434,-419.12 4434,-438.38 5438.75,-438.38 5438.75,-419.12 4434,-419.12"/>
<text text-anchor="start" x="4435" y="-424.07" font-family="Helvetica,sans-Serif" font-size="14.00"> &#160;&#160;&#160;&#160;&#160;&#160;&#160;&#160;&#160;&#160;&#160;harbor.farm.evil:80/openstudiolandscapes/kitsu_build_docker_image:2025&#45;04&#45;13&#45;00&#45;46&#45;55&#45;37e03a603c434c27b735f876d55863f4 &#160;&#160;&#160;&#160;&#160;&#160;&#160;</text>
<polygon fill="none" stroke="#0a0a0a" points="4047,-399.88 4047,-419.12 4434,-419.12 4434,-399.88 4047,-399.88"/>
<text text-anchor="start" x="4154.75" y="-404.82" font-family="Helvetica,sans-Serif" font-size="14.00"> &#160;&#160;&#160;&#160;&#160;&#160;&#160;&#160;&#160;&#160;&#160;command (ENTRYPOINT +) &#160;&#160;&#160;&#160;&#160;&#160;&#160;</text>
<polygon fill="none" stroke="#0a0a0a" points="4434,-399.88 4434,-419.12 5438.75,-419.12 5438.75,-399.88 4434,-399.88"/>
<text text-anchor="start" x="4435" y="-404.82" font-family="Helvetica,sans-Serif" font-size="14.00"> &#160;&#160;&#160;&#160;&#160;&#160;&#160;&#160;&#160;&#160;&#160;/usr/bin/bash /opt/zou/init_db.sh &#160;&#160;&#160;&#160;&#160;&#160;&#160;</text>
<polygon fill="none" stroke="#0a0a0a" points="4047,-299.62 4047,-399.88 4434,-399.88 4434,-299.62 4047,-299.62"/>
<text text-anchor="start" x="4195.25" y="-345.07" font-family="Helvetica,sans-Serif" font-size="14.00"> &#160;&#160;&#160;&#160;&#160;&#160;&#160;&#160;&#160;&#160;&#160;&#160;&#160;&#160;&#160;environment (5) &#160;&#160;&#160;&#160;&#160;&#160;&#160;&#160;&#160;&#160;&#160;</text>
<polygon fill="none" stroke="#0a0a0a" points="4434,-299.62 4434,-399.88 5438.75,-399.88 5438.75,-299.62 4434,-299.62"/>
<polygon fill="none" stroke="#0a0a0a" points="4436,-378.62 4436,-397.88 5436.75,-397.88 5436.75,-378.62 4436,-378.62"/>
<text text-anchor="start" x="4437" y="-383.57" font-family="Helvetica,sans-Serif" font-size="14.00"> &#160;&#160;&#160;&#160;&#160;&#160;&#160;&#160;&#160;&#160;&#160;&#160;&#160;&#160;&#160;&#160;&#160;&#160;&#160;&#160;&#160;&#160;&#160;&#160;&#160;&#160;&#160;DB_PASSWORD=myp4ssword &#160;&#160;&#160;&#160;&#160;&#160;&#160;&#160;&#160;&#160;&#160;&#160;&#160;&#160;&#160;&#160;&#160;&#160;&#160;&#160;&#160;&#160;&#160;</text>
<polygon fill="none" stroke="#0a0a0a" points="4436,-359.38 4436,-378.62 5436.75,-378.62 5436.75,-359.38 4436,-359.38"/>
<text text-anchor="start" x="4437" y="-364.32" font-family="Helvetica,sans-Serif" font-size="14.00"> &#160;&#160;&#160;&#160;&#160;&#160;&#160;&#160;&#160;&#160;&#160;&#160;&#160;&#160;&#160;&#160;&#160;&#160;&#160;&#160;&#160;&#160;&#160;&#160;&#160;&#160;&#160;KITSU_ADMIN=michimussato@gmail.com &#160;&#160;&#160;&#160;&#160;&#160;&#160;&#160;&#160;&#160;&#160;&#160;&#160;&#160;&#160;&#160;&#160;&#160;&#160;&#160;&#160;&#160;&#160;</text>
<polygon fill="none" stroke="#0a0a0a" points="4436,-340.12 4436,-359.38 5436.75,-359.38 5436.75,-340.12 4436,-340.12"/>
<text text-anchor="start" x="4437" y="-345.07" font-family="Helvetica,sans-Serif" font-size="14.00"> &#160;&#160;&#160;&#160;&#160;&#160;&#160;&#160;&#160;&#160;&#160;&#160;&#160;&#160;&#160;&#160;&#160;&#160;&#160;&#160;&#160;&#160;&#160;&#160;&#160;&#160;&#160;PREVIEW_FOLDER=/opt/zou/previews &#160;&#160;&#160;&#160;&#160;&#160;&#160;&#160;&#160;&#160;&#160;&#160;&#160;&#160;&#160;&#160;&#160;&#160;&#160;&#160;&#160;&#160;&#160;</text>
<polygon fill="none" stroke="#0a0a0a" points="4436,-320.88 4436,-340.12 5436.75,-340.12 5436.75,-320.88 4436,-320.88"/>
<text text-anchor="start" x="4437" y="-325.82" font-family="Helvetica,sans-Serif" font-size="14.00"> &#160;&#160;&#160;&#160;&#160;&#160;&#160;&#160;&#160;&#160;&#160;&#160;&#160;&#160;&#160;&#160;&#160;&#160;&#160;&#160;&#160;&#160;&#160;&#160;&#160;&#160;&#160;SECRET_KEY=yourrandomsecretkey &#160;&#160;&#160;&#160;&#160;&#160;&#160;&#160;&#160;&#160;&#160;&#160;&#160;&#160;&#160;&#160;&#160;&#160;&#160;&#160;&#160;&#160;&#160;</text>
<polygon fill="none" stroke="#0a0a0a" points="4436,-301.62 4436,-320.88 5436.75,-320.88 5436.75,-301.62 4436,-301.62"/>
<text text-anchor="start" x="4437" y="-306.57" font-family="Helvetica,sans-Serif" font-size="14.00"> &#160;&#160;&#160;&#160;&#160;&#160;&#160;&#160;&#160;&#160;&#160;&#160;&#160;&#160;&#160;&#160;&#160;&#160;&#160;&#160;&#160;&#160;&#160;&#160;&#160;&#160;&#160;TMP_DIR=/opt/zou/tmp &#160;&#160;&#160;&#160;&#160;&#160;&#160;&#160;&#160;&#160;&#160;&#160;&#160;&#160;&#160;&#160;&#160;&#160;&#160;&#160;&#160;&#160;&#160;</text>
<polygon fill="none" stroke="#0a0a0a" points="4435,-300.62 4435,-398.88 5437.75,-398.88 5437.75,-300.62 4435,-300.62"/>
<polygon fill="none" stroke="#0a0a0a" points="4047,-237.88 4047,-299.62 4434,-299.62 4434,-237.88 4047,-237.88"/>
<polygon fill="none" stroke="#0a0a0a" points="4049,-278.38 4049,-297.62 4432,-297.62 4432,-278.38 4049,-278.38"/>
<text text-anchor="start" x="4050" y="-283.32" font-family="Helvetica,sans-Serif" font-size="14.00"> &#160;&#160;&#160;&#160;&#160;&#160;&#160;&#160;&#160;&#160;&#160;&#160;&#160;&#160;&#160;&#160;&#160;&#160;&#160;&#160;&#160;&#160;&#160;&#160;&#160;&#160;&#160;/var/lib/postgresql:rw &#160;&#160;&#160;&#160;&#160;&#160;&#160;&#160;&#160;&#160;&#160;&#160;&#160;&#160;&#160;&#160;&#160;&#160;&#160;&#160;&#160;&#160;&#160;</text>
<polygon fill="none" stroke="#0a0a0a" points="4049,-259.12 4049,-278.38 4432,-278.38 4432,-259.12 4049,-259.12"/>
<text text-anchor="start" x="4050" y="-264.07" font-family="Helvetica,sans-Serif" font-size="14.00"> &#160;&#160;&#160;&#160;&#160;&#160;&#160;&#160;&#160;&#160;&#160;&#160;&#160;&#160;&#160;&#160;&#160;&#160;&#160;&#160;&#160;&#160;&#160;&#160;&#160;&#160;&#160;/data/share/nfs:rw &#160;&#160;&#160;&#160;&#160;&#160;&#160;&#160;&#160;&#160;&#160;&#160;&#160;&#160;&#160;&#160;&#160;&#160;&#160;&#160;&#160;&#160;&#160;</text>
<polygon fill="none" stroke="#0a0a0a" points="4049,-239.88 4049,-259.12 4432,-259.12 4432,-239.88 4049,-239.88"/>
<text text-anchor="start" x="4050" y="-244.82" font-family="Helvetica,sans-Serif" font-size="14.00"> &#160;&#160;&#160;&#160;&#160;&#160;&#160;&#160;&#160;&#160;&#160;&#160;&#160;&#160;&#160;&#160;&#160;&#160;&#160;&#160;&#160;&#160;&#160;&#160;&#160;&#160;&#160;/nfs:rw &#160;&#160;&#160;&#160;&#160;&#160;&#160;&#160;&#160;&#160;&#160;&#160;&#160;&#160;&#160;&#160;&#160;&#160;&#160;&#160;&#160;&#160;&#160;</text>
<polygon fill="none" stroke="#0a0a0a" points="4048,-238.88 4048,-298.62 4433,-298.62 4433,-238.88 4048,-238.88"/>
<polygon fill="none" stroke="#0a0a0a" points="4434,-237.88 4434,-299.62 5438.75,-299.62 5438.75,-237.88 4434,-237.88"/>
<text text-anchor="start" x="4435" y="-264.07" font-family="Helvetica,sans-Serif" font-size="14.00"> &#160;&#160;&#160;&#160;&#160;&#160;&#160;&#160;&#160;&#160;&#160;&#160;&#160;&#160;&#160;volumes (3) &#160;&#160;&#160;&#160;&#160;&#160;&#160;&#160;&#160;&#160;&#160;</text>
<polygon fill="none" stroke="#0a0a0a" points="4046,-236.88 4046,-535.62 5439.75,-535.62 5439.75,-236.88 4046,-236.88"/>
</g>
<!-- NODE&#45;SERVICE_kitsu&#45;&gt;NODE&#45;SERVICE_kitsu&#45;init&#45;db -->
<g id="edge1" class="edge">
<title>NODE&#45;SERVICE_kitsu:e&#45;&gt;NODE&#45;SERVICE_kitsu&#45;init&#45;db:w</title>
<path fill="none" stroke="yellow" stroke-width="2" d="M3334.48,-478.44C3417.03,-483.84 3961.07,-519.44 4037.17,-524.42"/>
<polygon fill="yellow" stroke="yellow" stroke-width="2" points="3325.23,-474.32 3334.98,-478.47 3324.77,-481.31 3325.23,-474.32"/>
<ellipse fill="yellow" stroke="yellow" stroke-width="2" cx="4041.01" cy="-524.67" rx="4" ry="4"/>
</g>
<!-- kitsu__4545__80 -->
<g id="node3" class="node">
<title>kitsu__4545__80</title>
<ellipse fill="#ffffff" stroke="black" cx="618.12" cy="-85.25" rx="36.48" ry="36.48"/>
<text text-anchor="middle" x="618.12" y="-80.58" font-family="Helvetica,sans-Serif" font-size="14.00">4545</text>
</g>
<!-- kitsu__4545__80&#45;&gt;NODE&#45;SERVICE_kitsu -->
<g id="edge2" class="edge">
<title>kitsu__4545__80:e&#45;&gt;NODE&#45;SERVICE_kitsu:w</title>
<path fill="none" stroke="#ffffff" d="M664.79,-86.55C771.99,-102.32 1819.48,-256.37 1925.59,-271.98"/>
<ellipse fill="#ffffff" stroke="#ffffff" cx="660.39" cy="-85.9" rx="4" ry="4"/>
<ellipse fill="#ffffff" stroke="#ffffff" cx="1929.8" cy="-272.6" rx="4" ry="4"/>
</g>
<!-- /data/share/nfs -->
<g id="node4" class="node">
<title>/data/share/nfs</title>
<path fill="#00ffff" stroke="black" d="M666.25,-237.25C666.25,-237.25 570,-237.25 570,-237.25 564,-237.25 558,-231.25 558,-225.25 558,-225.25 558,-213.25 558,-213.25 558,-207.25 564,-201.25 570,-201.25 570,-201.25 666.25,-201.25 666.25,-201.25 672.25,-201.25 678.25,-207.25 678.25,-213.25 678.25,-213.25 678.25,-225.25 678.25,-225.25 678.25,-231.25 672.25,-237.25 666.25,-237.25"/>
<text text-anchor="middle" x="618.12" y="-214.57" font-family="Helvetica,sans-Serif" font-size="14.00">/data/share/nfs</text>
</g>
<!-- /data/share/nfs&#45;&gt;NODE&#45;SERVICE_kitsu -->
<g id="edge3" class="edge">
<title>/data/share/nfs:e&#45;&gt;NODE&#45;SERVICE_kitsu:w</title>
<path fill="none" stroke="#00ffff" d="M687.93,-219.92C793.08,-228 1819.46,-306.92 1925.42,-315.07"/>
<ellipse fill="#00ffff" stroke="#00ffff" cx="683.74" cy="-219.6" rx="4" ry="4"/>
<ellipse fill="#00ffff" stroke="#00ffff" cx="1929.76" cy="-315.4" rx="4" ry="4"/>
</g>
<!-- /data/share/nfs&#45;&gt;NODE&#45;SERVICE_kitsu -->
<g id="edge4" class="edge">
<title>/data/share/nfs:e&#45;&gt;NODE&#45;SERVICE_kitsu:w</title>
<path fill="none" stroke="#00ffff" d="M687.93,-219.78C793.08,-226.26 1819.46,-289.43 1925.42,-295.96"/>
<ellipse fill="#00ffff" stroke="#00ffff" cx="683.74" cy="-219.53" rx="4" ry="4"/>
<ellipse fill="#00ffff" stroke="#00ffff" cx="1929.76" cy="-296.22" rx="4" ry="4"/>
</g>
<!-- /data/share/nfs&#45;&gt;NODE&#45;SERVICE_kitsu&#45;init&#45;db -->
<g id="edge5" class="edge">
<title>/data/share/nfs:e&#45;&gt;NODE&#45;SERVICE_kitsu&#45;init&#45;db:w</title>
<path fill="none" stroke="#00ffff" d="M687.04,-219.38C870.24,-222.07 3856.61,-265.92 4040.17,-268.62"/>
<ellipse fill="#00ffff" stroke="#00ffff" cx="682.75" cy="-219.32" rx="4" ry="4"/>
<ellipse fill="#00ffff" stroke="#00ffff" cx="4044.5" cy="-268.68" rx="4" ry="4"/>
</g>
<!-- /data/share/nfs&#45;&gt;NODE&#45;SERVICE_kitsu&#45;init&#45;db -->
<g id="edge6" class="edge">
<title>/data/share/nfs:e&#45;&gt;NODE&#45;SERVICE_kitsu&#45;init&#45;db:w</title>
<path fill="none" stroke="#00ffff" d="M687.04,-219.33C870.24,-220.97 3856.61,-247.77 4040.17,-249.42"/>
<ellipse fill="#00ffff" stroke="#00ffff" cx="682.75" cy="-219.29" rx="4" ry="4"/>
<ellipse fill="#00ffff" stroke="#00ffff" cx="4044.5" cy="-249.46" rx="4" ry="4"/>
</g>
<!-- /home/michael/git/repos/OpSL_test/OpenStudioLandscapes/.landscapes/2025&#45;04&#45;13&#45;00&#45;46&#45;55&#45;37e03a603c434c27b735f876d55863f4/Kitsu__Kitsu/data/kitsu/postgresql -->
<g id="node5" class="node">
<title>/home/michael/git/repos/OpSL_test/OpenStudioLandscapes/.landscapes/2025&#45;04&#45;13&#45;00&#45;46&#45;55&#45;37e03a603c434c27b735f876d55863f4/Kitsu__Kitsu/data/kitsu/postgresql</title>
<path fill="#00ffff" stroke="black" d="M1200.25,-295.25C1200.25,-295.25 36,-295.25 36,-295.25 30,-295.25 24,-289.25 24,-283.25 24,-283.25 24,-271.25 24,-271.25 24,-265.25 30,-259.25 36,-259.25 36,-259.25 1200.25,-259.25 1200.25,-259.25 1206.25,-259.25 1212.25,-265.25 1212.25,-271.25 1212.25,-271.25 1212.25,-283.25 1212.25,-283.25 1212.25,-289.25 1206.25,-295.25 1200.25,-295.25"/>
<text text-anchor="middle" x="618.12" y="-272.57" font-family="Helvetica,sans-Serif" font-size="14.00">/home/michael/git/repos/OpSL_test/OpenStudioLandscapes/.landscapes/2025&#45;04&#45;13&#45;00&#45;46&#45;55&#45;37e03a603c434c27b735f876d55863f4/Kitsu__Kitsu/data/kitsu/postgresql</text>
</g>
<!-- /home/michael/git/repos/OpSL_test/OpenStudioLandscapes/.landscapes/2025&#45;04&#45;13&#45;00&#45;46&#45;55&#45;37e03a603c434c27b735f876d55863f4/Kitsu__Kitsu/data/kitsu/postgresql&#45;&gt;NODE&#45;SERVICE_kitsu -->
<g id="edge7" class="edge">
<title>/home/michael/git/repos/OpSL_test/OpenStudioLandscapes/.landscapes/2025&#45;04&#45;13&#45;00&#45;46&#45;55&#45;37e03a603c434c27b735f876d55863f4/Kitsu__Kitsu/data/kitsu/postgresql:e&#45;&gt;NODE&#45;SERVICE_kitsu:w</title>
<path fill="none" stroke="#00ffff" d="M1222.11,-278.2C1298.72,-286.38 1848.4,-345.08 1925.32,-353.3"/>
<ellipse fill="#00ffff" stroke="#00ffff" cx="1217.72" cy="-277.73" rx="4" ry="4"/>
<ellipse fill="#00ffff" stroke="#00ffff" cx="1929.78" cy="-353.77" rx="4" ry="4"/>
</g>
<!-- /home/michael/git/repos/OpSL_test/OpenStudioLandscapes/.landscapes/2025&#45;04&#45;13&#45;00&#45;46&#45;55&#45;37e03a603c434c27b735f876d55863f4/Kitsu__Kitsu/data/kitsu/postgresql&#45;&gt;NODE&#45;SERVICE_kitsu&#45;init&#45;db -->
<g id="edge8" class="edge">
<title>/home/michael/git/repos/OpSL_test/OpenStudioLandscapes/.landscapes/2025&#45;04&#45;13&#45;00&#45;46&#45;55&#45;37e03a603c434c27b735f876d55863f4/Kitsu__Kitsu/data/kitsu/postgresql:e&#45;&gt;NODE&#45;SERVICE_kitsu&#45;init&#45;db:w</title>
<path fill="none" stroke="#00ffff" d="M1221.16,-277.28C1388.97,-277.92 3872.97,-287.33 4040.16,-287.97"/>
<ellipse fill="#00ffff" stroke="#00ffff" cx="1216.75" cy="-277.27" rx="4" ry="4"/>
<ellipse fill="#00ffff" stroke="#00ffff" cx="4044.5" cy="-287.98" rx="4" ry="4"/>
</g>
<!-- /home/michael/git/repos/OpSL_test/OpenStudioLandscapes/.landscapes/2025&#45;04&#45;13&#45;00&#45;46&#45;55&#45;37e03a603c434c27b735f876d55863f4/Kitsu__Kitsu/data/kitsu/previews -->
<g id="node6" class="node">
<title>/home/michael/git/repos/OpSL_test/OpenStudioLandscapes/.landscapes/2025&#45;04&#45;13&#45;00&#45;46&#45;55&#45;37e03a603c434c27b735f876d55863f4/Kitsu__Kitsu/data/kitsu/previews</title>
<path fill="#00ffff" stroke="black" d="M1194.62,-353.25C1194.62,-353.25 41.62,-353.25 41.62,-353.25 35.62,-353.25 29.62,-347.25 29.62,-341.25 29.62,-341.25 29.62,-329.25 29.62,-329.25 29.62,-323.25 35.62,-317.25 41.62,-317.25 41.62,-317.25 1194.62,-317.25 1194.62,-317.25 1200.62,-317.25 1206.62,-323.25 1206.62,-329.25 1206.62,-329.25 1206.62,-341.25 1206.62,-341.25 1206.62,-347.25 1200.62,-353.25 1194.62,-353.25"/>
<text text-anchor="middle" x="618.12" y="-330.57" font-family="Helvetica,sans-Serif" font-size="14.00">/home/michael/git/repos/OpSL_test/OpenStudioLandscapes/.landscapes/2025&#45;04&#45;13&#45;00&#45;46&#45;55&#45;37e03a603c434c27b735f876d55863f4/Kitsu__Kitsu/data/kitsu/previews</text>
</g>
<!-- /home/michael/git/repos/OpSL_test/OpenStudioLandscapes/.landscapes/2025&#45;04&#45;13&#45;00&#45;46&#45;55&#45;37e03a603c434c27b735f876d55863f4/Kitsu__Kitsu/data/kitsu/previews&#45;&gt;NODE&#45;SERVICE_kitsu -->
<g id="edge9" class="edge">
<title>/home/michael/git/repos/OpSL_test/OpenStudioLandscapes/.landscapes/2025&#45;04&#45;13&#45;00&#45;46&#45;55&#45;37e03a603c434c27b735f876d55863f4/Kitsu__Kitsu/data/kitsu/previews:e&#45;&gt;NODE&#45;SERVICE_kitsu:w</title>
<path fill="none" stroke="#00ffff" d="M1216.55,-335.25C1293.92,-335.22 1850.06,-335.03 1925.73,-335"/>
<ellipse fill="#00ffff" stroke="#00ffff" cx="1212.12" cy="-335.25" rx="4" ry="4"/>
<ellipse fill="#00ffff" stroke="#00ffff" cx="1929.75" cy="-335" rx="4" ry="4"/>
</g>
<!-- kitsu -->
<g id="node7" class="node">
<title>kitsu</title>
<path fill="#ffa500" stroke="black" d="M633.12,-468.25C633.12,-468.25 603.12,-468.25 603.12,-468.25 597.12,-468.25 591.12,-462.25 591.12,-456.25 591.12,-456.25 591.12,-444.25 591.12,-444.25 591.12,-438.25 597.12,-432.25 603.12,-432.25 603.12,-432.25 633.12,-432.25 633.12,-432.25 639.12,-432.25 645.12,-438.25 645.12,-444.25 645.12,-444.25 645.12,-456.25 645.12,-456.25 645.12,-462.25 639.12,-468.25 633.12,-468.25"/>
<text text-anchor="middle" x="618.12" y="-445.57" font-family="Helvetica,sans-Serif" font-size="14.00">kitsu</text>
</g>
<!-- kitsu&#45;&gt;NODE&#45;SERVICE_kitsu -->
<g id="edge10" class="edge">
<title>kitsu:e&#45;&gt;NODE&#45;SERVICE_kitsu:w</title>
<path fill="none" stroke="#ffa500" d="M654.69,-448.92C760.78,-432.43 1818.37,-268.01 1925.51,-251.36"/>
<ellipse fill="#ffa500" stroke="#ffa500" cx="650.57" cy="-449.56" rx="4" ry="4"/>
<ellipse fill="#ffa500" stroke="#ffa500" cx="1929.8" cy="-250.69" rx="4" ry="4"/>
</g>
</g>
</svg>
