<?xml version="1.0" encoding="UTF-8" standalone="no"?>
<!DOCTYPE svg PUBLIC "-//W3C//DTD SVG 1.1//EN"
 "http://www.w3.org/Graphics/SVG/1.1/DTD/svg11.dtd">
<!-- Generated by graphviz version 12.1.2 (0)
 -->
<!-- Title: main_graph Pages: 1 -->
<svg width="6864pt" height="947pt"
 viewBox="0.00 0.00 6863.50 947.25" xmlns="http://www.w3.org/2000/svg" xmlns:xlink="http://www.w3.org/1999/xlink">
<g id="graph0" class="graph" transform="scale(1 1) rotate(0) translate(108 839.25)">
<title>main_graph</title>
<polygon fill="#2f2f2f" stroke="none" points="-108,108 -108,-839.25 6755.5,-839.25 6755.5,108 -108,108"/>
<text text-anchor="middle" x="3323.75" y="-7.95" font-family="Helvetica,sans-Serif" font-size="14.00">/home/michael/git/repos/studio&#45;landscapes/.landscapes/2025&#45;01&#45;28_00&#45;33&#45;53__e34b5539a46c446fa53c31c39e5982cc/10_2/docker_compose/compose_repository_10_2/docker&#45;compose.yml</text>
<g id="clust1" class="cluster">
<title>cluster_cluster_root_services</title>
<path fill="#ff00ff" fill-opacity="0.062745" stroke="#ff00ff" d="M1912.5,-282.25C1912.5,-282.25 6627.5,-282.25 6627.5,-282.25 6633.5,-282.25 6639.5,-288.25 6639.5,-294.25 6639.5,-294.25 6639.5,-692.25 6639.5,-692.25 6639.5,-698.25 6633.5,-704.25 6627.5,-704.25 6627.5,-704.25 1912.5,-704.25 1912.5,-704.25 1906.5,-704.25 1900.5,-698.25 1900.5,-692.25 1900.5,-692.25 1900.5,-294.25 1900.5,-294.25 1900.5,-288.25 1906.5,-282.25 1912.5,-282.25"/>
<text text-anchor="middle" x="4270" y="-662.25" font-family="Helvetica,sans-Serif" font-size="40.00" fill="#ff00ff">Services</text>
</g>
<g id="clust2" class="cluster">
<title>cluster_cluster_service_mongodb&#45;10&#45;2</title>
<path fill="#00ffff" fill-opacity="0.062745" stroke="white" d="M1920.5,-308.25C1920.5,-308.25 3059.5,-308.25 3059.5,-308.25 3065.5,-308.25 3071.5,-314.25 3071.5,-320.25 3071.5,-320.25 3071.5,-629.25 3071.5,-629.25 3071.5,-635.25 3065.5,-641.25 3059.5,-641.25 3059.5,-641.25 1920.5,-641.25 1920.5,-641.25 1914.5,-641.25 1908.5,-635.25 1908.5,-629.25 1908.5,-629.25 1908.5,-320.25 1908.5,-320.25 1908.5,-314.25 1914.5,-308.25 1920.5,-308.25"/>
<text text-anchor="middle" x="2490" y="-599.25" font-family="Helvetica,sans-Serif" font-size="40.00" fill="white">mongodb&#45;10&#45;2</text>
</g>
<g id="clust3" class="cluster">
<title>cluster_cluster_service_repository&#45;10&#45;2</title>
<path fill="#00ffff" fill-opacity="0.062745" stroke="white" d="M3787.5,-290.25C3787.5,-290.25 6619.5,-290.25 6619.5,-290.25 6625.5,-290.25 6631.5,-296.25 6631.5,-302.25 6631.5,-302.25 6631.5,-629.25 6631.5,-629.25 6631.5,-635.25 6625.5,-641.25 6619.5,-641.25 6619.5,-641.25 3787.5,-641.25 3787.5,-641.25 3781.5,-641.25 3775.5,-635.25 3775.5,-629.25 3775.5,-629.25 3775.5,-302.25 3775.5,-302.25 3775.5,-296.25 3781.5,-290.25 3787.5,-290.25"/>
<text text-anchor="middle" x="5203.5" y="-599.25" font-family="Helvetica,sans-Serif" font-size="40.00" fill="white">repository&#45;10&#45;2</text>
</g>
<g id="clust4" class="cluster">
<title>cluster_cluster_host</title>
<path fill="#000000" fill-opacity="0.062745" stroke="#000000" d="M20,-33.25C20,-33.25 1200.5,-33.25 1200.5,-33.25 1206.5,-33.25 1212.5,-39.25 1212.5,-45.25 1212.5,-45.25 1212.5,-711.25 1212.5,-711.25 1212.5,-717.25 1206.5,-723.25 1200.5,-723.25 1200.5,-723.25 20,-723.25 20,-723.25 14,-723.25 8,-717.25 8,-711.25 8,-711.25 8,-45.25 8,-45.25 8,-39.25 14,-33.25 20,-33.25"/>
<text text-anchor="middle" x="610.25" y="-681.25" font-family="Helvetica,sans-Serif" font-size="40.00" fill="#000000">Host</text>
</g>
<g id="clust5" class="cluster">
<title>cluster_cluster_root_ports</title>
<path fill="#ffffff" fill-opacity="0.062745" stroke="#ffffff" d="M472.62,-503.25C472.62,-503.25 748.88,-503.25 748.88,-503.25 754.88,-503.25 760.88,-509.25 760.88,-515.25 760.88,-515.25 760.88,-648.25 760.88,-648.25 760.88,-654.25 754.88,-660.25 748.88,-660.25 748.88,-660.25 472.62,-660.25 472.62,-660.25 466.62,-660.25 460.62,-654.25 460.62,-648.25 460.62,-648.25 460.62,-515.25 460.62,-515.25 460.62,-509.25 466.62,-503.25 472.62,-503.25"/>
<text text-anchor="middle" x="610.75" y="-618.25" font-family="Helvetica,sans-Serif" font-size="40.00" fill="#ffffff">Exposed Ports</text>
</g>
<g id="clust6" class="cluster">
<title>cluster_cluster_root_volumes</title>
<path fill="#00ffff" fill-opacity="0.062745" stroke="#00ffff" d="M28,-272.25C28,-272.25 1192.5,-272.25 1192.5,-272.25 1198.5,-272.25 1204.5,-278.25 1204.5,-284.25 1204.5,-284.25 1204.5,-483.25 1204.5,-483.25 1204.5,-489.25 1198.5,-495.25 1192.5,-495.25 1192.5,-495.25 28,-495.25 28,-495.25 22,-495.25 16,-489.25 16,-483.25 16,-483.25 16,-284.25 16,-284.25 16,-278.25 22,-272.25 28,-272.25"/>
<text text-anchor="middle" x="610.25" y="-453.25" font-family="Helvetica,sans-Serif" font-size="40.00" fill="#00ffff">Mounted Volumes</text>
</g>
<g id="clust7" class="cluster">
<title>cluster_cluster_root_networks</title>
<path fill="#ffa500" fill-opacity="0.062745" stroke="#ffa500" d="M520.25,-41.25C520.25,-41.25 701.25,-41.25 701.25,-41.25 707.25,-41.25 713.25,-47.25 713.25,-53.25 713.25,-53.25 713.25,-252.25 713.25,-252.25 713.25,-258.25 707.25,-264.25 701.25,-264.25 701.25,-264.25 520.25,-264.25 520.25,-264.25 514.25,-264.25 508.25,-258.25 508.25,-252.25 508.25,-252.25 508.25,-53.25 508.25,-53.25 508.25,-47.25 514.25,-41.25 520.25,-41.25"/>
<text text-anchor="middle" x="610.75" y="-222.25" font-family="Helvetica,sans-Serif" font-size="40.00" fill="#ffa500">Networks</text>
</g>
<!-- NODE&#45;SERVICE_mongodb&#45;10&#45;2 -->
<g id="node1" class="node">
<title>NODE&#45;SERVICE_mongodb&#45;10&#45;2</title>
<polygon fill="#a0a0a0" stroke="none" points="3063.5,-577.75 1916.5,-577.75 1916.5,-316.75 3063.5,-316.75 3063.5,-577.75"/>
<polygon fill="none" stroke="#0a0a0a" points="1917.5,-557.75 1917.5,-576.75 2279.5,-576.75 2279.5,-557.75 1917.5,-557.75"/>
<text text-anchor="start" x="2093.25" y="-562.45" font-family="Helvetica,sans-Serif" font-size="14.00"> &#160;&#160;&#160;&#160;&#160;&#160;&#160;&#160;&#160;&#160;&#160;service_name &#160;&#160;&#160;&#160;&#160;&#160;&#160;</text>
<polygon fill="none" stroke="#0a0a0a" points="2279.5,-557.75 2279.5,-576.75 3062.5,-576.75 3062.5,-557.75 2279.5,-557.75"/>
<text text-anchor="start" x="2280.5" y="-562.45" font-family="Helvetica,sans-Serif" font-size="14.00"> &#160;&#160;&#160;&#160;&#160;&#160;&#160;&#160;&#160;&#160;&#160;mongodb&#45;10&#45;2 &#160;&#160;&#160;&#160;&#160;&#160;&#160;</text>
<polygon fill="none" stroke="#0a0a0a" points="1917.5,-538.75 1917.5,-557.75 2279.5,-557.75 2279.5,-538.75 1917.5,-538.75"/>
<text text-anchor="start" x="2077.5" y="-543.45" font-family="Helvetica,sans-Serif" font-size="14.00"> &#160;&#160;&#160;&#160;&#160;&#160;&#160;&#160;&#160;&#160;&#160;container_name &#160;&#160;&#160;&#160;&#160;&#160;&#160;</text>
<polygon fill="none" stroke="#0a0a0a" points="2279.5,-538.75 2279.5,-557.75 3062.5,-557.75 3062.5,-538.75 2279.5,-538.75"/>
<text text-anchor="start" x="2280.5" y="-543.45" font-family="Helvetica,sans-Serif" font-size="14.00"> &#160;&#160;&#160;&#160;&#160;&#160;&#160;&#160;&#160;&#160;&#160;mongodb&#45;10&#45;2 &#160;&#160;&#160;&#160;&#160;&#160;&#160;</text>
<polygon fill="none" stroke="#0a0a0a" points="1917.5,-519.75 1917.5,-538.75 2279.5,-538.75 2279.5,-519.75 1917.5,-519.75"/>
<text text-anchor="start" x="2119.5" y="-524.45" font-family="Helvetica,sans-Serif" font-size="14.00"> &#160;&#160;&#160;&#160;&#160;&#160;&#160;&#160;&#160;&#160;&#160;hostname &#160;&#160;&#160;&#160;&#160;&#160;&#160;</text>
<polygon fill="none" stroke="#0a0a0a" points="2279.5,-519.75 2279.5,-538.75 3062.5,-538.75 3062.5,-519.75 2279.5,-519.75"/>
<text text-anchor="start" x="2280.5" y="-524.45" font-family="Helvetica,sans-Serif" font-size="14.00"> &#160;&#160;&#160;&#160;&#160;&#160;&#160;&#160;&#160;&#160;&#160;mongodb&#45;10&#45;2 &#160;&#160;&#160;&#160;&#160;&#160;&#160;</text>
<polygon fill="none" stroke="#0a0a0a" points="1917.5,-500.75 1917.5,-519.75 2279.5,-519.75 2279.5,-500.75 1917.5,-500.75"/>
<text text-anchor="start" x="2097.75" y="-505.45" font-family="Helvetica,sans-Serif" font-size="14.00"> &#160;&#160;&#160;&#160;&#160;&#160;&#160;&#160;&#160;&#160;&#160;domainname &#160;&#160;&#160;&#160;&#160;&#160;&#160;</text>
<polygon fill="none" stroke="#0a0a0a" points="2279.5,-500.75 2279.5,-519.75 3062.5,-519.75 3062.5,-500.75 2279.5,-500.75"/>
<text text-anchor="start" x="2280.5" y="-505.45" font-family="Helvetica,sans-Serif" font-size="14.00"> &#160;&#160;&#160;&#160;&#160;&#160;&#160;&#160;&#160;&#160;&#160;farm.evil &#160;&#160;&#160;&#160;&#160;&#160;&#160;</text>
<polygon fill="none" stroke="#0a0a0a" points="1917.5,-481.75 1917.5,-500.75 2279.5,-500.75 2279.5,-481.75 1917.5,-481.75"/>
<text text-anchor="start" x="2142.75" y="-486.45" font-family="Helvetica,sans-Serif" font-size="14.00"> &#160;&#160;&#160;&#160;&#160;&#160;&#160;&#160;&#160;&#160;&#160;restart &#160;&#160;&#160;&#160;&#160;&#160;&#160;</text>
<polygon fill="none" stroke="#0a0a0a" points="2279.5,-481.75 2279.5,-500.75 3062.5,-500.75 3062.5,-481.75 2279.5,-481.75"/>
<text text-anchor="start" x="2280.5" y="-486.45" font-family="Helvetica,sans-Serif" font-size="14.00"> &#160;&#160;&#160;&#160;&#160;&#160;&#160;&#160;&#160;&#160;&#160;always &#160;&#160;&#160;&#160;&#160;&#160;&#160;</text>
<polygon fill="none" stroke="#0a0a0a" points="1917.5,-462.75 1917.5,-481.75 2279.5,-481.75 2279.5,-462.75 1917.5,-462.75"/>
<text text-anchor="start" x="2145.75" y="-467.45" font-family="Helvetica,sans-Serif" font-size="14.00"> &#160;&#160;&#160;&#160;&#160;&#160;&#160;&#160;&#160;&#160;&#160;image &#160;&#160;&#160;&#160;&#160;&#160;&#160;</text>
<polygon fill="none" stroke="#0a0a0a" points="2279.5,-462.75 2279.5,-481.75 3062.5,-481.75 3062.5,-462.75 2279.5,-462.75"/>
<text text-anchor="start" x="2280.5" y="-467.45" font-family="Helvetica,sans-Serif" font-size="14.00"> &#160;&#160;&#160;&#160;&#160;&#160;&#160;&#160;&#160;&#160;&#160;mongodb/mongodb&#45;community&#45;server:4.4&#45;ubuntu2004 &#160;&#160;&#160;&#160;&#160;&#160;&#160;</text>
<polygon fill="none" stroke="#0a0a0a" points="1917.5,-443.75 1917.5,-462.75 2279.5,-462.75 2279.5,-443.75 1917.5,-443.75"/>
<text text-anchor="start" x="2000.25" y="-448.45" font-family="Helvetica,sans-Serif" font-size="14.00"> &#160;&#160;&#160;&#160;&#160;&#160;&#160;&#160;&#160;&#160;&#160;command (ENTRYPOINT +) &#160;&#160;&#160;&#160;&#160;&#160;&#160;</text>
<polygon fill="none" stroke="#0a0a0a" points="2279.5,-443.75 2279.5,-462.75 3062.5,-462.75 3062.5,-443.75 2279.5,-443.75"/>
<text text-anchor="start" x="2280.25" y="-448.45" font-family="Helvetica,sans-Serif" font-size="14.00"> &#160;&#160;&#160;&#160;&#160;&#160;&#160;&#160;&#160;&#160;&#160;&#45;&#45;port 21017 &#45;&#45;dbpath /data/db &#45;&#45;bind_ip_all &#45;&#45;noauth &#45;&#45;storageEngine wiredTiger &#45;&#45;tlsMode disabled &#160;&#160;&#160;&#160;&#160;&#160;&#160;</text>
<polygon fill="none" stroke="#0a0a0a" points="1917.5,-382.75 1917.5,-443.75 2279.5,-443.75 2279.5,-382.75 1917.5,-382.75"/>
<polygon fill="none" stroke="#0a0a0a" points="1919.5,-422.5 1919.5,-441.75 2277.75,-441.75 2277.75,-422.5 1919.5,-422.5"/>
<text text-anchor="start" x="1920.5" y="-427.45" font-family="Helvetica,sans-Serif" font-size="14.00"> &#160;&#160;&#160;&#160;&#160;&#160;&#160;&#160;&#160;&#160;&#160;&#160;&#160;&#160;&#160;&#160;&#160;&#160;&#160;&#160;&#160;&#160;&#160;&#160;&#160;&#160;&#160;/data/db:rw &#160;&#160;&#160;&#160;&#160;&#160;&#160;&#160;&#160;&#160;&#160;&#160;&#160;&#160;&#160;&#160;&#160;&#160;&#160;&#160;&#160;&#160;&#160;</text>
<polygon fill="none" stroke="#0a0a0a" points="1919.5,-403.25 1919.5,-422.5 2277.75,-422.5 2277.75,-403.25 1919.5,-403.25"/>
<text text-anchor="start" x="1920.5" y="-408.2" font-family="Helvetica,sans-Serif" font-size="14.00"> &#160;&#160;&#160;&#160;&#160;&#160;&#160;&#160;&#160;&#160;&#160;&#160;&#160;&#160;&#160;&#160;&#160;&#160;&#160;&#160;&#160;&#160;&#160;&#160;&#160;&#160;&#160;/data/share/nfs:ro &#160;&#160;&#160;&#160;&#160;&#160;&#160;&#160;&#160;&#160;&#160;&#160;&#160;&#160;&#160;&#160;&#160;&#160;&#160;&#160;&#160;&#160;&#160;</text>
<polygon fill="none" stroke="#0a0a0a" points="1919.5,-384 1919.5,-403.25 2277.75,-403.25 2277.75,-384 1919.5,-384"/>
<text text-anchor="start" x="1920.5" y="-388.95" font-family="Helvetica,sans-Serif" font-size="14.00"> &#160;&#160;&#160;&#160;&#160;&#160;&#160;&#160;&#160;&#160;&#160;&#160;&#160;&#160;&#160;&#160;&#160;&#160;&#160;&#160;&#160;&#160;&#160;&#160;&#160;&#160;&#160;/nfs:ro &#160;&#160;&#160;&#160;&#160;&#160;&#160;&#160;&#160;&#160;&#160;&#160;&#160;&#160;&#160;&#160;&#160;&#160;&#160;&#160;&#160;&#160;&#160;</text>
<polygon fill="none" stroke="#0a0a0a" points="1918.5,-383.75 1918.5,-442.75 2278.5,-442.75 2278.5,-383.75 1918.5,-383.75"/>
<polygon fill="none" stroke="#0a0a0a" points="2279.5,-382.75 2279.5,-443.75 3062.5,-443.75 3062.5,-382.75 2279.5,-382.75"/>
<text text-anchor="start" x="2280.5" y="-408.57" font-family="Helvetica,sans-Serif" font-size="14.00"> &#160;&#160;&#160;&#160;&#160;&#160;&#160;&#160;&#160;&#160;&#160;&#160;&#160;&#160;&#160;volumes (3) &#160;&#160;&#160;&#160;&#160;&#160;&#160;&#160;&#160;&#160;&#160;</text>
<polygon fill="none" stroke="#0a0a0a" points="1917.5,-359.75 1917.5,-382.75 2279.5,-382.75 2279.5,-359.75 1917.5,-359.75"/>
<polygon fill="none" stroke="#0a0a0a" points="1919.5,-361.5 1919.5,-380.75 2277.5,-380.75 2277.5,-361.5 1919.5,-361.5"/>
<text text-anchor="start" x="1920.5" y="-366.45" font-family="Helvetica,sans-Serif" font-size="14.00"> &#160;&#160;&#160;&#160;&#160;&#160;&#160;&#160;&#160;&#160;&#160;&#160;&#160;&#160;&#160;&#160;&#160;&#160;&#160;&#160;&#160;&#160;&#160;&#160;&#160;&#160;&#160;21017 → 21017 &#160;&#160;&#160;&#160;&#160;&#160;&#160;&#160;&#160;&#160;&#160;&#160;&#160;&#160;&#160;&#160;&#160;&#160;&#160;&#160;&#160;&#160;&#160;</text>
<polygon fill="none" stroke="#0a0a0a" points="1918.5,-360.75 1918.5,-381.75 2278.5,-381.75 2278.5,-360.75 1918.5,-360.75"/>
<polygon fill="none" stroke="#0a0a0a" points="2279.5,-359.75 2279.5,-382.75 3062.5,-382.75 3062.5,-359.75 2279.5,-359.75"/>
<text text-anchor="start" x="2280.5" y="-366.57" font-family="Helvetica,sans-Serif" font-size="14.00"> &#160;&#160;&#160;&#160;&#160;&#160;&#160;&#160;&#160;&#160;&#160;&#160;&#160;&#160;&#160;ports (1) &#160;&#160;&#160;&#160;&#160;&#160;&#160;&#160;&#160;&#160;&#160;</text>
<polygon fill="none" stroke="#0a0a0a" points="1917.5,-317.75 1917.5,-359.75 2279.5,-359.75 2279.5,-317.75 1917.5,-317.75"/>
<polygon fill="none" stroke="#0a0a0a" points="1919.5,-338.5 1919.5,-357.75 2277.5,-357.75 2277.5,-338.5 1919.5,-338.5"/>
<text text-anchor="start" x="1920.5" y="-343.45" font-family="Helvetica,sans-Serif" font-size="14.00"> &#160;&#160;&#160;&#160;&#160;&#160;&#160;&#160;&#160;&#160;&#160;&#160;&#160;&#160;&#160;&#160;&#160;&#160;&#160;&#160;&#160;&#160;&#160;&#160;&#160;&#160;&#160;mongodb &#160;&#160;&#160;&#160;&#160;&#160;&#160;&#160;&#160;&#160;&#160;&#160;&#160;&#160;&#160;&#160;&#160;&#160;&#160;&#160;&#160;&#160;&#160;</text>
<polygon fill="none" stroke="#0a0a0a" points="1919.5,-319.25 1919.5,-338.5 2277.5,-338.5 2277.5,-319.25 1919.5,-319.25"/>
<text text-anchor="start" x="1920.5" y="-324.2" font-family="Helvetica,sans-Serif" font-size="14.00"> &#160;&#160;&#160;&#160;&#160;&#160;&#160;&#160;&#160;&#160;&#160;&#160;&#160;&#160;&#160;&#160;&#160;&#160;&#160;&#160;&#160;&#160;&#160;&#160;&#160;&#160;&#160;repository &#160;&#160;&#160;&#160;&#160;&#160;&#160;&#160;&#160;&#160;&#160;&#160;&#160;&#160;&#160;&#160;&#160;&#160;&#160;&#160;&#160;&#160;&#160;</text>
<polygon fill="none" stroke="#0a0a0a" points="1918.5,-318.75 1918.5,-358.75 2278.5,-358.75 2278.5,-318.75 1918.5,-318.75"/>
<polygon fill="none" stroke="#0a0a0a" points="2279.5,-317.75 2279.5,-359.75 3062.5,-359.75 3062.5,-317.75 2279.5,-317.75"/>
<text text-anchor="start" x="2280.5" y="-334.07" font-family="Helvetica,sans-Serif" font-size="14.00"> &#160;&#160;&#160;&#160;&#160;&#160;&#160;&#160;&#160;&#160;&#160;&#160;&#160;&#160;&#160;networks (2) &#160;&#160;&#160;&#160;&#160;&#160;&#160;&#160;&#160;&#160;&#160;</text>
<polygon fill="none" stroke="#0a0a0a" points="1916.5,-316.75 1916.5,-577.75 3063.5,-577.75 3063.5,-316.75 1916.5,-316.75"/>
</g>
<!-- NODE&#45;SERVICE_repository&#45;10&#45;2 -->
<g id="node2" class="node">
<title>NODE&#45;SERVICE_repository&#45;10&#45;2</title>
<polygon fill="#a0a0a0" stroke="none" points="6623.5,-578.25 3783.5,-578.25 3783.5,-298.25 6623.5,-298.25 6623.5,-578.25"/>
<polygon fill="none" stroke="#0a0a0a" points="3784.5,-558.25 3784.5,-577.25 4297.5,-577.25 4297.5,-558.25 3784.5,-558.25"/>
<text text-anchor="start" x="4111.25" y="-562.95" font-family="Helvetica,sans-Serif" font-size="14.00"> &#160;&#160;&#160;&#160;&#160;&#160;&#160;&#160;&#160;&#160;&#160;service_name &#160;&#160;&#160;&#160;&#160;&#160;&#160;</text>
<polygon fill="none" stroke="#0a0a0a" points="4297.5,-558.25 4297.5,-577.25 6622.5,-577.25 6622.5,-558.25 4297.5,-558.25"/>
<text text-anchor="start" x="4298.5" y="-562.95" font-family="Helvetica,sans-Serif" font-size="14.00"> &#160;&#160;&#160;&#160;&#160;&#160;&#160;&#160;&#160;&#160;&#160;repository&#45;10&#45;2 &#160;&#160;&#160;&#160;&#160;&#160;&#160;</text>
<polygon fill="none" stroke="#0a0a0a" points="3784.5,-539.25 3784.5,-558.25 4297.5,-558.25 4297.5,-539.25 3784.5,-539.25"/>
<text text-anchor="start" x="4095.5" y="-543.95" font-family="Helvetica,sans-Serif" font-size="14.00"> &#160;&#160;&#160;&#160;&#160;&#160;&#160;&#160;&#160;&#160;&#160;container_name &#160;&#160;&#160;&#160;&#160;&#160;&#160;</text>
<polygon fill="none" stroke="#0a0a0a" points="4297.5,-539.25 4297.5,-558.25 6622.5,-558.25 6622.5,-539.25 4297.5,-539.25"/>
<text text-anchor="start" x="4298.5" y="-543.95" font-family="Helvetica,sans-Serif" font-size="14.00"> &#160;&#160;&#160;&#160;&#160;&#160;&#160;&#160;&#160;&#160;&#160;repository&#45;10&#45;2 &#160;&#160;&#160;&#160;&#160;&#160;&#160;</text>
<polygon fill="none" stroke="#0a0a0a" points="3784.5,-520.25 3784.5,-539.25 4297.5,-539.25 4297.5,-520.25 3784.5,-520.25"/>
<text text-anchor="start" x="4137.5" y="-524.95" font-family="Helvetica,sans-Serif" font-size="14.00"> &#160;&#160;&#160;&#160;&#160;&#160;&#160;&#160;&#160;&#160;&#160;hostname &#160;&#160;&#160;&#160;&#160;&#160;&#160;</text>
<polygon fill="none" stroke="#0a0a0a" points="4297.5,-520.25 4297.5,-539.25 6622.5,-539.25 6622.5,-520.25 4297.5,-520.25"/>
<text text-anchor="start" x="4298.5" y="-524.95" font-family="Helvetica,sans-Serif" font-size="14.00"> &#160;&#160;&#160;&#160;&#160;&#160;&#160;&#160;&#160;&#160;&#160;repository&#45;10&#45;2 &#160;&#160;&#160;&#160;&#160;&#160;&#160;</text>
<polygon fill="none" stroke="#0a0a0a" points="3784.5,-501.25 3784.5,-520.25 4297.5,-520.25 4297.5,-501.25 3784.5,-501.25"/>
<text text-anchor="start" x="4115.75" y="-505.95" font-family="Helvetica,sans-Serif" font-size="14.00"> &#160;&#160;&#160;&#160;&#160;&#160;&#160;&#160;&#160;&#160;&#160;domainname &#160;&#160;&#160;&#160;&#160;&#160;&#160;</text>
<polygon fill="none" stroke="#0a0a0a" points="4297.5,-501.25 4297.5,-520.25 6622.5,-520.25 6622.5,-501.25 4297.5,-501.25"/>
<text text-anchor="start" x="4298.5" y="-505.95" font-family="Helvetica,sans-Serif" font-size="14.00"> &#160;&#160;&#160;&#160;&#160;&#160;&#160;&#160;&#160;&#160;&#160;farm.evil &#160;&#160;&#160;&#160;&#160;&#160;&#160;</text>
<polygon fill="none" stroke="#0a0a0a" points="3784.5,-482.25 3784.5,-501.25 4297.5,-501.25 4297.5,-482.25 3784.5,-482.25"/>
<text text-anchor="start" x="4160.75" y="-486.95" font-family="Helvetica,sans-Serif" font-size="14.00"> &#160;&#160;&#160;&#160;&#160;&#160;&#160;&#160;&#160;&#160;&#160;restart &#160;&#160;&#160;&#160;&#160;&#160;&#160;</text>
<polygon fill="none" stroke="#0a0a0a" points="4297.5,-482.25 4297.5,-501.25 6622.5,-501.25 6622.5,-482.25 4297.5,-482.25"/>
<text text-anchor="start" x="4298.5" y="-486.95" font-family="Helvetica,sans-Serif" font-size="14.00"> &#160;&#160;&#160;&#160;&#160;&#160;&#160;&#160;&#160;&#160;&#160;no &#160;&#160;&#160;&#160;&#160;&#160;&#160;</text>
<polygon fill="none" stroke="#0a0a0a" points="3784.5,-463.25 3784.5,-482.25 4297.5,-482.25 4297.5,-463.25 3784.5,-463.25"/>
<text text-anchor="start" x="4163.75" y="-467.95" font-family="Helvetica,sans-Serif" font-size="14.00"> &#160;&#160;&#160;&#160;&#160;&#160;&#160;&#160;&#160;&#160;&#160;image &#160;&#160;&#160;&#160;&#160;&#160;&#160;</text>
<polygon fill="none" stroke="#0a0a0a" points="4297.5,-463.25 4297.5,-482.25 6622.5,-482.25 6622.5,-463.25 4297.5,-463.25"/>
<text text-anchor="start" x="4298.5" y="-467.95" font-family="Helvetica,sans-Serif" font-size="14.00"> &#160;&#160;&#160;&#160;&#160;&#160;&#160;&#160;&#160;&#160;&#160;michimussato/build_repository_image_10_2:2025&#45;01&#45;28_00&#45;33&#45;53__e34b5539a46c446fa53c31c39e5982cc &#160;&#160;&#160;&#160;&#160;&#160;&#160;</text>
<polygon fill="none" stroke="#0a0a0a" points="3784.5,-444.25 3784.5,-463.25 4297.5,-463.25 4297.5,-444.25 3784.5,-444.25"/>
<text text-anchor="start" x="4018.25" y="-448.95" font-family="Helvetica,sans-Serif" font-size="14.00"> &#160;&#160;&#160;&#160;&#160;&#160;&#160;&#160;&#160;&#160;&#160;command (ENTRYPOINT +) &#160;&#160;&#160;&#160;&#160;&#160;&#160;</text>
<polygon fill="none" stroke="#0a0a0a" points="4297.5,-444.25 4297.5,-463.25 6622.5,-463.25 6622.5,-444.25 4297.5,-444.25"/>
<text text-anchor="start" x="4298.25" y="-448.95" font-family="Helvetica,sans-Serif" font-size="14.00"> &#160;&#160;&#160;&#160;&#160;&#160;&#160;&#160;&#160;&#160;&#160;/installers/DeadlineRepository.run &#45;&#45;mode unattended &#45;&#45;prefix /opt/Thinkbox/DeadlineRepository10 &#45;&#45;setpermissions true &#45;&#45;dbtype MongoDB &#45;&#45;installmongodb false &#45;&#45;dbhost mongodb&#45;10&#45;2 &#45;&#45;dbport 21017 &#45;&#45;dbname deadline10db &#45;&#45;dbauth false &#45;&#45;dbssl false &#45;&#45;installSecretsManagement false &#45;&#45;importrepositorysettings false &#160;&#160;&#160;&#160;&#160;&#160;&#160;</text>
<polygon fill="none" stroke="#0a0a0a" points="3784.5,-383.25 3784.5,-444.25 4297.5,-444.25 4297.5,-383.25 3784.5,-383.25"/>
<polygon fill="none" stroke="#0a0a0a" points="3786.5,-423 3786.5,-442.25 4296.25,-442.25 4296.25,-423 3786.5,-423"/>
<text text-anchor="start" x="3787.5" y="-427.95" font-family="Helvetica,sans-Serif" font-size="14.00"> &#160;&#160;&#160;&#160;&#160;&#160;&#160;&#160;&#160;&#160;&#160;&#160;&#160;&#160;&#160;&#160;&#160;&#160;&#160;&#160;&#160;&#160;&#160;&#160;&#160;&#160;&#160;/data/share/nfs:rw &#160;&#160;&#160;&#160;&#160;&#160;&#160;&#160;&#160;&#160;&#160;&#160;&#160;&#160;&#160;&#160;&#160;&#160;&#160;&#160;&#160;&#160;&#160;</text>
<polygon fill="none" stroke="#0a0a0a" points="3786.5,-403.75 3786.5,-423 4296.25,-423 4296.25,-403.75 3786.5,-403.75"/>
<text text-anchor="start" x="3787.5" y="-408.7" font-family="Helvetica,sans-Serif" font-size="14.00"> &#160;&#160;&#160;&#160;&#160;&#160;&#160;&#160;&#160;&#160;&#160;&#160;&#160;&#160;&#160;&#160;&#160;&#160;&#160;&#160;&#160;&#160;&#160;&#160;&#160;&#160;&#160;/nfs:rw &#160;&#160;&#160;&#160;&#160;&#160;&#160;&#160;&#160;&#160;&#160;&#160;&#160;&#160;&#160;&#160;&#160;&#160;&#160;&#160;&#160;&#160;&#160;</text>
<polygon fill="none" stroke="#0a0a0a" points="3786.5,-384.5 3786.5,-403.75 4296.25,-403.75 4296.25,-384.5 3786.5,-384.5"/>
<text text-anchor="start" x="3787.5" y="-389.45" font-family="Helvetica,sans-Serif" font-size="14.00"> &#160;&#160;&#160;&#160;&#160;&#160;&#160;&#160;&#160;&#160;&#160;&#160;&#160;&#160;&#160;&#160;&#160;&#160;&#160;&#160;&#160;&#160;&#160;&#160;&#160;&#160;&#160;/opt/Thinkbox/DeadlineRepository10:rw &#160;&#160;&#160;&#160;&#160;&#160;&#160;&#160;&#160;&#160;&#160;&#160;&#160;&#160;&#160;&#160;&#160;&#160;&#160;&#160;&#160;&#160;&#160;</text>
<polygon fill="none" stroke="#0a0a0a" points="3785.5,-384.25 3785.5,-443.25 4296.5,-443.25 4296.5,-384.25 3785.5,-384.25"/>
<polygon fill="none" stroke="#0a0a0a" points="4297.5,-383.25 4297.5,-444.25 6622.5,-444.25 6622.5,-383.25 4297.5,-383.25"/>
<text text-anchor="start" x="4298.5" y="-409.07" font-family="Helvetica,sans-Serif" font-size="14.00"> &#160;&#160;&#160;&#160;&#160;&#160;&#160;&#160;&#160;&#160;&#160;&#160;&#160;&#160;&#160;volumes (3) &#160;&#160;&#160;&#160;&#160;&#160;&#160;&#160;&#160;&#160;&#160;</text>
<polygon fill="none" stroke="#0a0a0a" points="3784.5,-360.25 3784.5,-383.25 4297.5,-383.25 4297.5,-360.25 3784.5,-360.25"/>
<polygon fill="none" stroke="#0a0a0a" points="3786.5,-362 3786.5,-381.25 4295.5,-381.25 4295.5,-362 3786.5,-362"/>
<text text-anchor="start" x="3787.5" y="-366.95" font-family="Helvetica,sans-Serif" font-size="14.00"> &#160;&#160;&#160;&#160;&#160;&#160;&#160;&#160;&#160;&#160;&#160;&#160;&#160;&#160;&#160;&#160;&#160;&#160;&#160;&#160;&#160;&#160;&#160;&#160;&#160;&#160;&#160;mongodb&#45;10&#45;2 (condition: None) &#160;&#160;&#160;&#160;&#160;&#160;&#160;&#160;&#160;&#160;&#160;&#160;&#160;&#160;&#160;&#160;&#160;&#160;&#160;&#160;&#160;&#160;&#160;</text>
<polygon fill="none" stroke="#0a0a0a" points="3785.5,-361.25 3785.5,-382.25 4296.5,-382.25 4296.5,-361.25 3785.5,-361.25"/>
<polygon fill="none" stroke="#0a0a0a" points="4297.5,-360.25 4297.5,-383.25 6622.5,-383.25 6622.5,-360.25 4297.5,-360.25"/>
<text text-anchor="start" x="4298.5" y="-367.07" font-family="Helvetica,sans-Serif" font-size="14.00"> &#160;&#160;&#160;&#160;&#160;&#160;&#160;&#160;&#160;&#160;&#160;&#160;&#160;&#160;&#160;depends_on (1) &#160;&#160;&#160;&#160;&#160;&#160;&#160;&#160;&#160;&#160;&#160;</text>
<polygon fill="none" stroke="#0a0a0a" points="3784.5,-299.25 3784.5,-360.25 4297.5,-360.25 4297.5,-299.25 3784.5,-299.25"/>
<polygon fill="none" stroke="#0a0a0a" points="3786.5,-339 3786.5,-358.25 4295.5,-358.25 4295.5,-339 3786.5,-339"/>
<text text-anchor="start" x="3787.5" y="-343.95" font-family="Helvetica,sans-Serif" font-size="14.00"> &#160;&#160;&#160;&#160;&#160;&#160;&#160;&#160;&#160;&#160;&#160;&#160;&#160;&#160;&#160;&#160;&#160;&#160;&#160;&#160;&#160;&#160;&#160;&#160;&#160;&#160;&#160;ayon &#160;&#160;&#160;&#160;&#160;&#160;&#160;&#160;&#160;&#160;&#160;&#160;&#160;&#160;&#160;&#160;&#160;&#160;&#160;&#160;&#160;&#160;&#160;</text>
<polygon fill="none" stroke="#0a0a0a" points="3786.5,-319.75 3786.5,-339 4295.5,-339 4295.5,-319.75 3786.5,-319.75"/>
<text text-anchor="start" x="3787.5" y="-324.7" font-family="Helvetica,sans-Serif" font-size="14.00"> &#160;&#160;&#160;&#160;&#160;&#160;&#160;&#160;&#160;&#160;&#160;&#160;&#160;&#160;&#160;&#160;&#160;&#160;&#160;&#160;&#160;&#160;&#160;&#160;&#160;&#160;&#160;mongodb &#160;&#160;&#160;&#160;&#160;&#160;&#160;&#160;&#160;&#160;&#160;&#160;&#160;&#160;&#160;&#160;&#160;&#160;&#160;&#160;&#160;&#160;&#160;</text>
<polygon fill="none" stroke="#0a0a0a" points="3786.5,-300.5 3786.5,-319.75 4295.5,-319.75 4295.5,-300.5 3786.5,-300.5"/>
<text text-anchor="start" x="3787.5" y="-305.45" font-family="Helvetica,sans-Serif" font-size="14.00"> &#160;&#160;&#160;&#160;&#160;&#160;&#160;&#160;&#160;&#160;&#160;&#160;&#160;&#160;&#160;&#160;&#160;&#160;&#160;&#160;&#160;&#160;&#160;&#160;&#160;&#160;&#160;repository &#160;&#160;&#160;&#160;&#160;&#160;&#160;&#160;&#160;&#160;&#160;&#160;&#160;&#160;&#160;&#160;&#160;&#160;&#160;&#160;&#160;&#160;&#160;</text>
<polygon fill="none" stroke="#0a0a0a" points="3785.5,-300.25 3785.5,-359.25 4296.5,-359.25 4296.5,-300.25 3785.5,-300.25"/>
<polygon fill="none" stroke="#0a0a0a" points="4297.5,-299.25 4297.5,-360.25 6622.5,-360.25 6622.5,-299.25 4297.5,-299.25"/>
<text text-anchor="start" x="4298.5" y="-325.07" font-family="Helvetica,sans-Serif" font-size="14.00"> &#160;&#160;&#160;&#160;&#160;&#160;&#160;&#160;&#160;&#160;&#160;&#160;&#160;&#160;&#160;networks (3) &#160;&#160;&#160;&#160;&#160;&#160;&#160;&#160;&#160;&#160;&#160;</text>
<polygon fill="none" stroke="#0a0a0a" points="3783.5,-298.25 3783.5,-578.25 6623.5,-578.25 6623.5,-298.25 3783.5,-298.25"/>
</g>
<!-- NODE&#45;SERVICE_mongodb&#45;10&#45;2&#45;&gt;NODE&#45;SERVICE_repository&#45;10&#45;2 -->
<g id="edge1" class="edge">
<title>NODE&#45;SERVICE_mongodb&#45;10&#45;2:e&#45;&gt;NODE&#45;SERVICE_repository&#45;10&#45;2:w</title>
<path fill="none" stroke="yellow" stroke-width="2" d="M3072.11,-564.92C3148,-544.35 3701.68,-394.34 3777.02,-373.92"/>
<ellipse fill="yellow" stroke="yellow" stroke-width="2" cx="3068.33" cy="-565.94" rx="4" ry="4"/>
<ellipse fill="yellow" stroke="yellow" stroke-width="2" cx="3780.67" cy="-372.93" rx="4" ry="4"/>
</g>
<!-- mongodb&#45;10&#45;2__21017__21017 -->
<g id="node3" class="node">
<title>mongodb&#45;10&#45;2__21017__21017</title>
<ellipse fill="#ffffff" stroke="black" cx="610.25" cy="-554.25" rx="42.79" ry="42.79"/>
<text text-anchor="middle" x="610.25" y="-549.58" font-family="Helvetica,sans-Serif" font-size="14.00">21017</text>
</g>
<!-- mongodb&#45;10&#45;2__21017__21017&#45;&gt;NODE&#45;SERVICE_mongodb&#45;10&#45;2 -->
<g id="edge2" class="edge">
<title>mongodb&#45;10&#45;2__21017__21017:e&#45;&gt;NODE&#45;SERVICE_mongodb&#45;10&#45;2:w</title>
<path fill="none" stroke="#ffffff" d="M663.19,-552.98C769.09,-537.64 1802.88,-387.87 1909.61,-372.41"/>
<ellipse fill="#ffffff" stroke="#ffffff" cx="658.89" cy="-553.6" rx="4" ry="4"/>
<ellipse fill="#ffffff" stroke="#ffffff" cx="1914.05" cy="-371.77" rx="4" ry="4"/>
</g>
<!-- /data/share/nfs -->
<g id="node4" class="node">
<title>/data/share/nfs</title>
<path fill="#00ffff" stroke="black" d="M658.38,-374.25C658.38,-374.25 562.12,-374.25 562.12,-374.25 556.12,-374.25 550.12,-368.25 550.12,-362.25 550.12,-362.25 550.12,-350.25 550.12,-350.25 550.12,-344.25 556.12,-338.25 562.12,-338.25 562.12,-338.25 658.38,-338.25 658.38,-338.25 664.38,-338.25 670.38,-344.25 670.38,-350.25 670.38,-350.25 670.38,-362.25 670.38,-362.25 670.38,-368.25 664.38,-374.25 658.38,-374.25"/>
<text text-anchor="middle" x="610.25" y="-351.57" font-family="Helvetica,sans-Serif" font-size="14.00">/data/share/nfs</text>
</g>
<!-- /data/share/nfs&#45;&gt;NODE&#45;SERVICE_mongodb&#45;10&#45;2 -->
<g id="edge3" class="edge">
<title>/data/share/nfs:e&#45;&gt;NODE&#45;SERVICE_mongodb&#45;10&#45;2:w</title>
<path fill="none" stroke="#00ffff" stroke-dasharray="5,2" d="M680.35,-356.66C786.7,-361.49 1804.66,-407.71 1909.75,-412.48"/>
<ellipse fill="#00ffff" stroke="#00ffff" cx="675.87" cy="-356.45" rx="4" ry="4"/>
<ellipse fill="#00ffff" stroke="#00ffff" cx="1914" cy="-412.67" rx="4" ry="4"/>
</g>
<!-- /data/share/nfs&#45;&gt;NODE&#45;SERVICE_mongodb&#45;10&#45;2 -->
<g id="edge4" class="edge">
<title>/data/share/nfs:e&#45;&gt;NODE&#45;SERVICE_mongodb&#45;10&#45;2:w</title>
<path fill="none" stroke="#00ffff" stroke-dasharray="5,2" d="M680.35,-356.52C786.7,-359.71 1804.66,-390.21 1909.75,-393.36"/>
<ellipse fill="#00ffff" stroke="#00ffff" cx="675.87" cy="-356.38" rx="4" ry="4"/>
<ellipse fill="#00ffff" stroke="#00ffff" cx="1914" cy="-393.49" rx="4" ry="4"/>
</g>
<!-- /data/share/nfs&#45;&gt;NODE&#45;SERVICE_repository&#45;10&#45;2 -->
<g id="edge6" class="edge">
<title>/data/share/nfs:e&#45;&gt;NODE&#45;SERVICE_repository&#45;10&#45;2:w</title>
<path fill="none" stroke="#00ffff" d="M679.31,-356.47C856.2,-360.8 3600.86,-428.08 3777.58,-432.41"/>
<ellipse fill="#00ffff" stroke="#00ffff" cx="674.87" cy="-356.36" rx="4" ry="4"/>
<ellipse fill="#00ffff" stroke="#00ffff" cx="3782" cy="-432.51" rx="4" ry="4"/>
</g>
<!-- /data/share/nfs&#45;&gt;NODE&#45;SERVICE_repository&#45;10&#45;2 -->
<g id="edge7" class="edge">
<title>/data/share/nfs:e&#45;&gt;NODE&#45;SERVICE_repository&#45;10&#45;2:w</title>
<path fill="none" stroke="#00ffff" d="M679.31,-356.41C856.2,-359.66 3600.86,-409.97 3777.58,-413.21"/>
<ellipse fill="#00ffff" stroke="#00ffff" cx="674.87" cy="-356.33" rx="4" ry="4"/>
<ellipse fill="#00ffff" stroke="#00ffff" cx="3782" cy="-413.29" rx="4" ry="4"/>
</g>
<!-- /home/michael/git/repos/studio&#45;landscapes/.landscapes/2025&#45;01&#45;28_00&#45;33&#45;53__e34b5539a46c446fa53c31c39e5982cc/10_2/data/opt/Thinkbox/DeadlineDatabase10 -->
<g id="node5" class="node">
<title>/home/michael/git/repos/studio&#45;landscapes/.landscapes/2025&#45;01&#45;28_00&#45;33&#45;53__e34b5539a46c446fa53c31c39e5982cc/10_2/data/opt/Thinkbox/DeadlineDatabase10</title>
<path fill="#00ffff" stroke="black" d="M1180.38,-432.25C1180.38,-432.25 40.12,-432.25 40.12,-432.25 34.12,-432.25 28.12,-426.25 28.12,-420.25 28.12,-420.25 28.12,-408.25 28.12,-408.25 28.12,-402.25 34.12,-396.25 40.12,-396.25 40.12,-396.25 1180.38,-396.25 1180.38,-396.25 1186.38,-396.25 1192.38,-402.25 1192.38,-408.25 1192.38,-408.25 1192.38,-420.25 1192.38,-420.25 1192.38,-426.25 1186.38,-432.25 1180.38,-432.25"/>
<text text-anchor="middle" x="610.25" y="-409.57" font-family="Helvetica,sans-Serif" font-size="14.00">/home/michael/git/repos/studio&#45;landscapes/.landscapes/2025&#45;01&#45;28_00&#45;33&#45;53__e34b5539a46c446fa53c31c39e5982cc/10_2/data/opt/Thinkbox/DeadlineDatabase10</text>
</g>
<!-- /home/michael/git/repos/studio&#45;landscapes/.landscapes/2025&#45;01&#45;28_00&#45;33&#45;53__e34b5539a46c446fa53c31c39e5982cc/10_2/data/opt/Thinkbox/DeadlineDatabase10&#45;&gt;NODE&#45;SERVICE_mongodb&#45;10&#45;2 -->
<g id="edge5" class="edge">
<title>/home/michael/git/repos/studio&#45;landscapes/.landscapes/2025&#45;01&#45;28_00&#45;33&#45;53__e34b5539a46c446fa53c31c39e5982cc/10_2/data/opt/Thinkbox/DeadlineDatabase10:e&#45;&gt;NODE&#45;SERVICE_mongodb&#45;10&#45;2:w</title>
<path fill="none" stroke="#00ffff" d="M1202.28,-414.47C1279.33,-416.37 1832.16,-430 1909.52,-431.9"/>
<ellipse fill="#00ffff" stroke="#00ffff" cx="1197.87" cy="-414.36" rx="4" ry="4"/>
<ellipse fill="#00ffff" stroke="#00ffff" cx="1914" cy="-432.01" rx="4" ry="4"/>
</g>
<!-- /home/michael/git/repos/studio&#45;landscapes/.landscapes/2025&#45;01&#45;28_00&#45;33&#45;53__e34b5539a46c446fa53c31c39e5982cc/10_2/data/opt/Thinkbox/DeadlineRepository10 -->
<g id="node6" class="node">
<title>/home/michael/git/repos/studio&#45;landscapes/.landscapes/2025&#45;01&#45;28_00&#45;33&#45;53__e34b5539a46c446fa53c31c39e5982cc/10_2/data/opt/Thinkbox/DeadlineRepository10</title>
<path fill="#00ffff" stroke="black" d="M1184.5,-316.25C1184.5,-316.25 36,-316.25 36,-316.25 30,-316.25 24,-310.25 24,-304.25 24,-304.25 24,-292.25 24,-292.25 24,-286.25 30,-280.25 36,-280.25 36,-280.25 1184.5,-280.25 1184.5,-280.25 1190.5,-280.25 1196.5,-286.25 1196.5,-292.25 1196.5,-292.25 1196.5,-304.25 1196.5,-304.25 1196.5,-310.25 1190.5,-316.25 1184.5,-316.25"/>
<text text-anchor="middle" x="610.25" y="-293.57" font-family="Helvetica,sans-Serif" font-size="14.00">/home/michael/git/repos/studio&#45;landscapes/.landscapes/2025&#45;01&#45;28_00&#45;33&#45;53__e34b5539a46c446fa53c31c39e5982cc/10_2/data/opt/Thinkbox/DeadlineRepository10</text>
</g>
<!-- /home/michael/git/repos/studio&#45;landscapes/.landscapes/2025&#45;01&#45;28_00&#45;33&#45;53__e34b5539a46c446fa53c31c39e5982cc/10_2/data/opt/Thinkbox/DeadlineRepository10&#45;&gt;NODE&#45;SERVICE_repository&#45;10&#45;2 -->
<g id="edge8" class="edge">
<title>/home/michael/git/repos/studio&#45;landscapes/.landscapes/2025&#45;01&#45;28_00&#45;33&#45;53__e34b5539a46c446fa53c31c39e5982cc/10_2/data/opt/Thinkbox/DeadlineRepository10:e&#45;&gt;NODE&#45;SERVICE_repository&#45;10&#45;2:w</title>
<path fill="none" stroke="#00ffff" d="M1205.37,-298.58C1364.72,-304.48 3619.41,-387.94 3777.74,-393.8"/>
<ellipse fill="#00ffff" stroke="#00ffff" cx="1201" cy="-298.42" rx="4" ry="4"/>
<ellipse fill="#00ffff" stroke="#00ffff" cx="3782" cy="-393.96" rx="4" ry="4"/>
</g>
<!-- mongodb -->
<g id="node7" class="node">
<title>mongodb</title>
<path fill="#ffa500" stroke="black" d="M639.25,-201.25C639.25,-201.25 581.25,-201.25 581.25,-201.25 575.25,-201.25 569.25,-195.25 569.25,-189.25 569.25,-189.25 569.25,-177.25 569.25,-177.25 569.25,-171.25 575.25,-165.25 581.25,-165.25 581.25,-165.25 639.25,-165.25 639.25,-165.25 645.25,-165.25 651.25,-171.25 651.25,-177.25 651.25,-177.25 651.25,-189.25 651.25,-189.25 651.25,-195.25 645.25,-201.25 639.25,-201.25"/>
<text text-anchor="middle" x="610.25" y="-178.57" font-family="Helvetica,sans-Serif" font-size="14.00">mongodb</text>
</g>
<!-- mongodb&#45;&gt;NODE&#45;SERVICE_mongodb&#45;10&#45;2 -->
<g id="edge9" class="edge">
<title>mongodb:e&#45;&gt;NODE&#45;SERVICE_mongodb&#45;10&#45;2:w</title>
<path fill="none" stroke="#ffa500" d="M661.01,-184.39C767.1,-198.2 1802.68,-333.04 1909.6,-346.97"/>
<ellipse fill="#ffa500" stroke="#ffa500" cx="656.71" cy="-183.83" rx="4" ry="4"/>
<ellipse fill="#ffa500" stroke="#ffa500" cx="1914.04" cy="-347.54" rx="4" ry="4"/>
</g>
<!-- mongodb&#45;&gt;NODE&#45;SERVICE_repository&#45;10&#45;2 -->
<g id="edge12" class="edge">
<title>mongodb:e&#45;&gt;NODE&#45;SERVICE_repository&#45;10&#45;2:w</title>
<path fill="none" stroke="#ffa500" d="M659.97,-183.66C835.33,-191.83 3599.54,-320.66 3777.51,-328.96"/>
<ellipse fill="#ffa500" stroke="#ffa500" cx="655.75" cy="-183.46" rx="4" ry="4"/>
<ellipse fill="#ffa500" stroke="#ffa500" cx="3782" cy="-329.17" rx="4" ry="4"/>
</g>
<!-- repository -->
<g id="node8" class="node">
<title>repository</title>
<path fill="#ffa500" stroke="black" d="M641.12,-143.25C641.12,-143.25 579.38,-143.25 579.38,-143.25 573.38,-143.25 567.38,-137.25 567.38,-131.25 567.38,-131.25 567.38,-119.25 567.38,-119.25 567.38,-113.25 573.38,-107.25 579.38,-107.25 579.38,-107.25 641.12,-107.25 641.12,-107.25 647.12,-107.25 653.12,-113.25 653.12,-119.25 653.12,-119.25 653.12,-131.25 653.12,-131.25 653.12,-137.25 647.12,-143.25 641.12,-143.25"/>
<text text-anchor="middle" x="610.25" y="-120.58" font-family="Helvetica,sans-Serif" font-size="14.00">repository</text>
</g>
<!-- repository&#45;&gt;NODE&#45;SERVICE_mongodb&#45;10&#45;2 -->
<g id="edge10" class="edge">
<title>repository:e&#45;&gt;NODE&#45;SERVICE_mongodb&#45;10&#45;2:w</title>
<path fill="none" stroke="#ffa500" d="M662.87,-126.66C768.91,-143.74 1804.98,-310.59 1909.94,-327.5"/>
<ellipse fill="#ffa500" stroke="#ffa500" cx="658.57" cy="-125.97" rx="4" ry="4"/>
<ellipse fill="#ffa500" stroke="#ffa500" cx="1914.06" cy="-328.16" rx="4" ry="4"/>
</g>
<!-- repository&#45;&gt;NODE&#45;SERVICE_repository&#45;10&#45;2 -->
<g id="edge13" class="edge">
<title>repository:e&#45;&gt;NODE&#45;SERVICE_repository&#45;10&#45;2:w</title>
<path fill="none" stroke="#ffa500" d="M661.84,-125.76C837.1,-136.1 3599.65,-299.1 3777.52,-309.6"/>
<ellipse fill="#ffa500" stroke="#ffa500" cx="657.62" cy="-125.52" rx="4" ry="4"/>
<ellipse fill="#ffa500" stroke="#ffa500" cx="3782.01" cy="-309.86" rx="4" ry="4"/>
</g>
<!-- ayon -->
<g id="node9" class="node">
<title>ayon</title>
<path fill="#ffa500" stroke="black" d="M625.25,-85.25C625.25,-85.25 595.25,-85.25 595.25,-85.25 589.25,-85.25 583.25,-79.25 583.25,-73.25 583.25,-73.25 583.25,-61.25 583.25,-61.25 583.25,-55.25 589.25,-49.25 595.25,-49.25 595.25,-49.25 625.25,-49.25 625.25,-49.25 631.25,-49.25 637.25,-55.25 637.25,-61.25 637.25,-61.25 637.25,-73.25 637.25,-73.25 637.25,-79.25 631.25,-85.25 625.25,-85.25"/>
<text text-anchor="middle" x="610.25" y="-62.58" font-family="Helvetica,sans-Serif" font-size="14.00">ayon</text>
</g>
<!-- ayon&#45;&gt;NODE&#45;SERVICE_repository&#45;10&#45;2 -->
<g id="edge11" class="edge">
<title>ayon:e&#45;&gt;NODE&#45;SERVICE_repository&#45;10&#45;2:w</title>
<path fill="none" stroke="#ffa500" d="M646.01,-68.03C822.25,-83.78 3601.5,-332.1 3777.74,-347.84"/>
<ellipse fill="#ffa500" stroke="#ffa500" cx="641.73" cy="-67.65" rx="4" ry="4"/>
<ellipse fill="#ffa500" stroke="#ffa500" cx="3782.02" cy="-348.22" rx="4" ry="4"/>
</g>
</g>
</svg>
