<?xml version="1.0" encoding="UTF-8" standalone="no"?>
<!DOCTYPE svg PUBLIC "-//W3C//DTD SVG 1.1//EN"
 "http://www.w3.org/Graphics/SVG/1.1/DTD/svg11.dtd">
<!-- Generated by graphviz version 12.1.2 (0)
 -->
<!-- Title: main_graph Pages: 1 -->
<svg width="6898pt" height="947pt"
 viewBox="0.00 0.00 6898.00 947.25" xmlns="http://www.w3.org/2000/svg" xmlns:xlink="http://www.w3.org/1999/xlink">
<g id="graph0" class="graph" transform="scale(1 1) rotate(0) translate(108 839.25)">
<title>main_graph</title>
<polygon fill="#2f2f2f" stroke="none" points="-108,108 -108,-839.25 6790,-839.25 6790,108 -108,108"/>
<text text-anchor="middle" x="3341" y="-7.95" font-family="Helvetica,sans-Serif" font-size="14.00">/home/michael/git/repos/open&#45;studio&#45;landscapes/.landscapes/2025&#45;01&#45;30_16&#45;18&#45;56__801a42f92ec14c6f91ec6813626fad6e/10_2/docker_compose/compose_repository_10_2/docker&#45;compose.yml</text>
<g id="clust1" class="cluster">
<title>cluster_cluster_root_services</title>
<path fill="#ff00ff" fill-opacity="0.062745" stroke="#ff00ff" d="M1947,-130.25C1947,-130.25 6662,-130.25 6662,-130.25 6668,-130.25 6674,-136.25 6674,-142.25 6674,-142.25 6674,-540.25 6674,-540.25 6674,-546.25 6668,-552.25 6662,-552.25 6662,-552.25 1947,-552.25 1947,-552.25 1941,-552.25 1935,-546.25 1935,-540.25 1935,-540.25 1935,-142.25 1935,-142.25 1935,-136.25 1941,-130.25 1947,-130.25"/>
<text text-anchor="middle" x="4304.5" y="-510.25" font-family="Helvetica,sans-Serif" font-size="40.00" fill="#ff00ff">Services</text>
</g>
<g id="clust2" class="cluster">
<title>cluster_cluster_service_mongodb&#45;10&#45;2</title>
<path fill="#00ffff" fill-opacity="0.062745" stroke="white" d="M5515,-138.25C5515,-138.25 6654,-138.25 6654,-138.25 6660,-138.25 6666,-144.25 6666,-150.25 6666,-150.25 6666,-459.25 6666,-459.25 6666,-465.25 6660,-471.25 6654,-471.25 6654,-471.25 5515,-471.25 5515,-471.25 5509,-471.25 5503,-465.25 5503,-459.25 5503,-459.25 5503,-150.25 5503,-150.25 5503,-144.25 5509,-138.25 5515,-138.25"/>
<text text-anchor="middle" x="6084.5" y="-429.25" font-family="Helvetica,sans-Serif" font-size="40.00" fill="white">mongodb&#45;10&#45;2</text>
</g>
<g id="clust3" class="cluster">
<title>cluster_cluster_service_repository&#45;10&#45;2</title>
<path fill="#00ffff" fill-opacity="0.062745" stroke="white" d="M1955,-138.25C1955,-138.25 4787,-138.25 4787,-138.25 4793,-138.25 4799,-144.25 4799,-150.25 4799,-150.25 4799,-477.25 4799,-477.25 4799,-483.25 4793,-489.25 4787,-489.25 4787,-489.25 1955,-489.25 1955,-489.25 1949,-489.25 1943,-483.25 1943,-477.25 1943,-477.25 1943,-150.25 1943,-150.25 1943,-144.25 1949,-138.25 1955,-138.25"/>
<text text-anchor="middle" x="3371" y="-447.25" font-family="Helvetica,sans-Serif" font-size="40.00" fill="white">repository&#45;10&#45;2</text>
</g>
<g id="clust4" class="cluster">
<title>cluster_cluster_host</title>
<path fill="#000000" fill-opacity="0.062745" stroke="#000000" d="M20,-33.25C20,-33.25 1235,-33.25 1235,-33.25 1241,-33.25 1247,-39.25 1247,-45.25 1247,-45.25 1247,-711.25 1247,-711.25 1247,-717.25 1241,-723.25 1235,-723.25 1235,-723.25 20,-723.25 20,-723.25 14,-723.25 8,-717.25 8,-711.25 8,-711.25 8,-45.25 8,-45.25 8,-39.25 14,-33.25 20,-33.25"/>
<text text-anchor="middle" x="627.5" y="-681.25" font-family="Helvetica,sans-Serif" font-size="40.00" fill="#000000">Host</text>
</g>
<g id="clust5" class="cluster">
<title>cluster_cluster_root_ports</title>
<path fill="#ffffff" fill-opacity="0.062745" stroke="#ffffff" d="M489.88,-503.25C489.88,-503.25 766.12,-503.25 766.12,-503.25 772.12,-503.25 778.12,-509.25 778.12,-515.25 778.12,-515.25 778.12,-648.25 778.12,-648.25 778.12,-654.25 772.12,-660.25 766.12,-660.25 766.12,-660.25 489.88,-660.25 489.88,-660.25 483.88,-660.25 477.88,-654.25 477.88,-648.25 477.88,-648.25 477.88,-515.25 477.88,-515.25 477.88,-509.25 483.88,-503.25 489.88,-503.25"/>
<text text-anchor="middle" x="628" y="-618.25" font-family="Helvetica,sans-Serif" font-size="40.00" fill="#ffffff">Exposed Ports</text>
</g>
<g id="clust6" class="cluster">
<title>cluster_cluster_root_volumes</title>
<path fill="#00ffff" fill-opacity="0.062745" stroke="#00ffff" d="M28,-41.25C28,-41.25 1227,-41.25 1227,-41.25 1233,-41.25 1239,-47.25 1239,-53.25 1239,-53.25 1239,-252.25 1239,-252.25 1239,-258.25 1233,-264.25 1227,-264.25 1227,-264.25 28,-264.25 28,-264.25 22,-264.25 16,-258.25 16,-252.25 16,-252.25 16,-53.25 16,-53.25 16,-47.25 22,-41.25 28,-41.25"/>
<text text-anchor="middle" x="627.5" y="-222.25" font-family="Helvetica,sans-Serif" font-size="40.00" fill="#00ffff">Mounted Volumes</text>
</g>
<g id="clust7" class="cluster">
<title>cluster_cluster_root_networks</title>
<path fill="#ffa500" fill-opacity="0.062745" stroke="#ffa500" d="M537.5,-272.25C537.5,-272.25 718.5,-272.25 718.5,-272.25 724.5,-272.25 730.5,-278.25 730.5,-284.25 730.5,-284.25 730.5,-483.25 730.5,-483.25 730.5,-489.25 724.5,-495.25 718.5,-495.25 718.5,-495.25 537.5,-495.25 537.5,-495.25 531.5,-495.25 525.5,-489.25 525.5,-483.25 525.5,-483.25 525.5,-284.25 525.5,-284.25 525.5,-278.25 531.5,-272.25 537.5,-272.25"/>
<text text-anchor="middle" x="628" y="-453.25" font-family="Helvetica,sans-Serif" font-size="40.00" fill="#ffa500">Networks</text>
</g>
<!-- NODE&#45;SERVICE_mongodb&#45;10&#45;2 -->
<g id="node1" class="node">
<title>NODE&#45;SERVICE_mongodb&#45;10&#45;2</title>
<polygon fill="#a0a0a0" stroke="none" points="6658,-407.75 5511,-407.75 5511,-146.75 6658,-146.75 6658,-407.75"/>
<polygon fill="none" stroke="#0a0a0a" points="5512,-387.75 5512,-406.75 5874,-406.75 5874,-387.75 5512,-387.75"/>
<text text-anchor="start" x="5687.75" y="-392.45" font-family="Helvetica,sans-Serif" font-size="14.00"> &#160;&#160;&#160;&#160;&#160;&#160;&#160;&#160;&#160;&#160;&#160;service_name &#160;&#160;&#160;&#160;&#160;&#160;&#160;</text>
<polygon fill="none" stroke="#0a0a0a" points="5874,-387.75 5874,-406.75 6657,-406.75 6657,-387.75 5874,-387.75"/>
<text text-anchor="start" x="5875" y="-392.45" font-family="Helvetica,sans-Serif" font-size="14.00"> &#160;&#160;&#160;&#160;&#160;&#160;&#160;&#160;&#160;&#160;&#160;mongodb&#45;10&#45;2 &#160;&#160;&#160;&#160;&#160;&#160;&#160;</text>
<polygon fill="none" stroke="#0a0a0a" points="5512,-368.75 5512,-387.75 5874,-387.75 5874,-368.75 5512,-368.75"/>
<text text-anchor="start" x="5672" y="-373.45" font-family="Helvetica,sans-Serif" font-size="14.00"> &#160;&#160;&#160;&#160;&#160;&#160;&#160;&#160;&#160;&#160;&#160;container_name &#160;&#160;&#160;&#160;&#160;&#160;&#160;</text>
<polygon fill="none" stroke="#0a0a0a" points="5874,-368.75 5874,-387.75 6657,-387.75 6657,-368.75 5874,-368.75"/>
<text text-anchor="start" x="5875" y="-373.45" font-family="Helvetica,sans-Serif" font-size="14.00"> &#160;&#160;&#160;&#160;&#160;&#160;&#160;&#160;&#160;&#160;&#160;mongodb&#45;10&#45;2 &#160;&#160;&#160;&#160;&#160;&#160;&#160;</text>
<polygon fill="none" stroke="#0a0a0a" points="5512,-349.75 5512,-368.75 5874,-368.75 5874,-349.75 5512,-349.75"/>
<text text-anchor="start" x="5714" y="-354.45" font-family="Helvetica,sans-Serif" font-size="14.00"> &#160;&#160;&#160;&#160;&#160;&#160;&#160;&#160;&#160;&#160;&#160;hostname &#160;&#160;&#160;&#160;&#160;&#160;&#160;</text>
<polygon fill="none" stroke="#0a0a0a" points="5874,-349.75 5874,-368.75 6657,-368.75 6657,-349.75 5874,-349.75"/>
<text text-anchor="start" x="5875" y="-354.45" font-family="Helvetica,sans-Serif" font-size="14.00"> &#160;&#160;&#160;&#160;&#160;&#160;&#160;&#160;&#160;&#160;&#160;mongodb&#45;10&#45;2 &#160;&#160;&#160;&#160;&#160;&#160;&#160;</text>
<polygon fill="none" stroke="#0a0a0a" points="5512,-330.75 5512,-349.75 5874,-349.75 5874,-330.75 5512,-330.75"/>
<text text-anchor="start" x="5692.25" y="-335.45" font-family="Helvetica,sans-Serif" font-size="14.00"> &#160;&#160;&#160;&#160;&#160;&#160;&#160;&#160;&#160;&#160;&#160;domainname &#160;&#160;&#160;&#160;&#160;&#160;&#160;</text>
<polygon fill="none" stroke="#0a0a0a" points="5874,-330.75 5874,-349.75 6657,-349.75 6657,-330.75 5874,-330.75"/>
<text text-anchor="start" x="5875" y="-335.45" font-family="Helvetica,sans-Serif" font-size="14.00"> &#160;&#160;&#160;&#160;&#160;&#160;&#160;&#160;&#160;&#160;&#160;farm.evil &#160;&#160;&#160;&#160;&#160;&#160;&#160;</text>
<polygon fill="none" stroke="#0a0a0a" points="5512,-311.75 5512,-330.75 5874,-330.75 5874,-311.75 5512,-311.75"/>
<text text-anchor="start" x="5737.25" y="-316.45" font-family="Helvetica,sans-Serif" font-size="14.00"> &#160;&#160;&#160;&#160;&#160;&#160;&#160;&#160;&#160;&#160;&#160;restart &#160;&#160;&#160;&#160;&#160;&#160;&#160;</text>
<polygon fill="none" stroke="#0a0a0a" points="5874,-311.75 5874,-330.75 6657,-330.75 6657,-311.75 5874,-311.75"/>
<text text-anchor="start" x="5875" y="-316.45" font-family="Helvetica,sans-Serif" font-size="14.00"> &#160;&#160;&#160;&#160;&#160;&#160;&#160;&#160;&#160;&#160;&#160;always &#160;&#160;&#160;&#160;&#160;&#160;&#160;</text>
<polygon fill="none" stroke="#0a0a0a" points="5512,-292.75 5512,-311.75 5874,-311.75 5874,-292.75 5512,-292.75"/>
<text text-anchor="start" x="5740.25" y="-297.45" font-family="Helvetica,sans-Serif" font-size="14.00"> &#160;&#160;&#160;&#160;&#160;&#160;&#160;&#160;&#160;&#160;&#160;image &#160;&#160;&#160;&#160;&#160;&#160;&#160;</text>
<polygon fill="none" stroke="#0a0a0a" points="5874,-292.75 5874,-311.75 6657,-311.75 6657,-292.75 5874,-292.75"/>
<text text-anchor="start" x="5875" y="-297.45" font-family="Helvetica,sans-Serif" font-size="14.00"> &#160;&#160;&#160;&#160;&#160;&#160;&#160;&#160;&#160;&#160;&#160;mongodb/mongodb&#45;community&#45;server:4.4&#45;ubuntu2004 &#160;&#160;&#160;&#160;&#160;&#160;&#160;</text>
<polygon fill="none" stroke="#0a0a0a" points="5512,-273.75 5512,-292.75 5874,-292.75 5874,-273.75 5512,-273.75"/>
<text text-anchor="start" x="5594.75" y="-278.45" font-family="Helvetica,sans-Serif" font-size="14.00"> &#160;&#160;&#160;&#160;&#160;&#160;&#160;&#160;&#160;&#160;&#160;command (ENTRYPOINT +) &#160;&#160;&#160;&#160;&#160;&#160;&#160;</text>
<polygon fill="none" stroke="#0a0a0a" points="5874,-273.75 5874,-292.75 6657,-292.75 6657,-273.75 5874,-273.75"/>
<text text-anchor="start" x="5874.75" y="-278.45" font-family="Helvetica,sans-Serif" font-size="14.00"> &#160;&#160;&#160;&#160;&#160;&#160;&#160;&#160;&#160;&#160;&#160;&#45;&#45;port 21017 &#45;&#45;dbpath /data/db &#45;&#45;bind_ip_all &#45;&#45;noauth &#45;&#45;storageEngine wiredTiger &#45;&#45;tlsMode disabled &#160;&#160;&#160;&#160;&#160;&#160;&#160;</text>
<polygon fill="none" stroke="#0a0a0a" points="5512,-212.75 5512,-273.75 5874,-273.75 5874,-212.75 5512,-212.75"/>
<polygon fill="none" stroke="#0a0a0a" points="5514,-252.5 5514,-271.75 5872.25,-271.75 5872.25,-252.5 5514,-252.5"/>
<text text-anchor="start" x="5515" y="-257.45" font-family="Helvetica,sans-Serif" font-size="14.00"> &#160;&#160;&#160;&#160;&#160;&#160;&#160;&#160;&#160;&#160;&#160;&#160;&#160;&#160;&#160;&#160;&#160;&#160;&#160;&#160;&#160;&#160;&#160;&#160;&#160;&#160;&#160;/data/db:rw &#160;&#160;&#160;&#160;&#160;&#160;&#160;&#160;&#160;&#160;&#160;&#160;&#160;&#160;&#160;&#160;&#160;&#160;&#160;&#160;&#160;&#160;&#160;</text>
<polygon fill="none" stroke="#0a0a0a" points="5514,-233.25 5514,-252.5 5872.25,-252.5 5872.25,-233.25 5514,-233.25"/>
<text text-anchor="start" x="5515" y="-238.2" font-family="Helvetica,sans-Serif" font-size="14.00"> &#160;&#160;&#160;&#160;&#160;&#160;&#160;&#160;&#160;&#160;&#160;&#160;&#160;&#160;&#160;&#160;&#160;&#160;&#160;&#160;&#160;&#160;&#160;&#160;&#160;&#160;&#160;/data/share/nfs:ro &#160;&#160;&#160;&#160;&#160;&#160;&#160;&#160;&#160;&#160;&#160;&#160;&#160;&#160;&#160;&#160;&#160;&#160;&#160;&#160;&#160;&#160;&#160;</text>
<polygon fill="none" stroke="#0a0a0a" points="5514,-214 5514,-233.25 5872.25,-233.25 5872.25,-214 5514,-214"/>
<text text-anchor="start" x="5515" y="-218.95" font-family="Helvetica,sans-Serif" font-size="14.00"> &#160;&#160;&#160;&#160;&#160;&#160;&#160;&#160;&#160;&#160;&#160;&#160;&#160;&#160;&#160;&#160;&#160;&#160;&#160;&#160;&#160;&#160;&#160;&#160;&#160;&#160;&#160;/nfs:ro &#160;&#160;&#160;&#160;&#160;&#160;&#160;&#160;&#160;&#160;&#160;&#160;&#160;&#160;&#160;&#160;&#160;&#160;&#160;&#160;&#160;&#160;&#160;</text>
<polygon fill="none" stroke="#0a0a0a" points="5513,-213.75 5513,-272.75 5873,-272.75 5873,-213.75 5513,-213.75"/>
<polygon fill="none" stroke="#0a0a0a" points="5874,-212.75 5874,-273.75 6657,-273.75 6657,-212.75 5874,-212.75"/>
<text text-anchor="start" x="5875" y="-238.57" font-family="Helvetica,sans-Serif" font-size="14.00"> &#160;&#160;&#160;&#160;&#160;&#160;&#160;&#160;&#160;&#160;&#160;&#160;&#160;&#160;&#160;volumes (3) &#160;&#160;&#160;&#160;&#160;&#160;&#160;&#160;&#160;&#160;&#160;</text>
<polygon fill="none" stroke="#0a0a0a" points="5512,-189.75 5512,-212.75 5874,-212.75 5874,-189.75 5512,-189.75"/>
<polygon fill="none" stroke="#0a0a0a" points="5514,-191.5 5514,-210.75 5872,-210.75 5872,-191.5 5514,-191.5"/>
<text text-anchor="start" x="5515" y="-196.45" font-family="Helvetica,sans-Serif" font-size="14.00"> &#160;&#160;&#160;&#160;&#160;&#160;&#160;&#160;&#160;&#160;&#160;&#160;&#160;&#160;&#160;&#160;&#160;&#160;&#160;&#160;&#160;&#160;&#160;&#160;&#160;&#160;&#160;21017 → 21017 &#160;&#160;&#160;&#160;&#160;&#160;&#160;&#160;&#160;&#160;&#160;&#160;&#160;&#160;&#160;&#160;&#160;&#160;&#160;&#160;&#160;&#160;&#160;</text>
<polygon fill="none" stroke="#0a0a0a" points="5513,-190.75 5513,-211.75 5873,-211.75 5873,-190.75 5513,-190.75"/>
<polygon fill="none" stroke="#0a0a0a" points="5874,-189.75 5874,-212.75 6657,-212.75 6657,-189.75 5874,-189.75"/>
<text text-anchor="start" x="5875" y="-196.57" font-family="Helvetica,sans-Serif" font-size="14.00"> &#160;&#160;&#160;&#160;&#160;&#160;&#160;&#160;&#160;&#160;&#160;&#160;&#160;&#160;&#160;ports (1) &#160;&#160;&#160;&#160;&#160;&#160;&#160;&#160;&#160;&#160;&#160;</text>
<polygon fill="none" stroke="#0a0a0a" points="5512,-147.75 5512,-189.75 5874,-189.75 5874,-147.75 5512,-147.75"/>
<polygon fill="none" stroke="#0a0a0a" points="5514,-168.5 5514,-187.75 5872,-187.75 5872,-168.5 5514,-168.5"/>
<text text-anchor="start" x="5515" y="-173.45" font-family="Helvetica,sans-Serif" font-size="14.00"> &#160;&#160;&#160;&#160;&#160;&#160;&#160;&#160;&#160;&#160;&#160;&#160;&#160;&#160;&#160;&#160;&#160;&#160;&#160;&#160;&#160;&#160;&#160;&#160;&#160;&#160;&#160;mongodb &#160;&#160;&#160;&#160;&#160;&#160;&#160;&#160;&#160;&#160;&#160;&#160;&#160;&#160;&#160;&#160;&#160;&#160;&#160;&#160;&#160;&#160;&#160;</text>
<polygon fill="none" stroke="#0a0a0a" points="5514,-149.25 5514,-168.5 5872,-168.5 5872,-149.25 5514,-149.25"/>
<text text-anchor="start" x="5515" y="-154.2" font-family="Helvetica,sans-Serif" font-size="14.00"> &#160;&#160;&#160;&#160;&#160;&#160;&#160;&#160;&#160;&#160;&#160;&#160;&#160;&#160;&#160;&#160;&#160;&#160;&#160;&#160;&#160;&#160;&#160;&#160;&#160;&#160;&#160;repository &#160;&#160;&#160;&#160;&#160;&#160;&#160;&#160;&#160;&#160;&#160;&#160;&#160;&#160;&#160;&#160;&#160;&#160;&#160;&#160;&#160;&#160;&#160;</text>
<polygon fill="none" stroke="#0a0a0a" points="5513,-148.75 5513,-188.75 5873,-188.75 5873,-148.75 5513,-148.75"/>
<polygon fill="none" stroke="#0a0a0a" points="5874,-147.75 5874,-189.75 6657,-189.75 6657,-147.75 5874,-147.75"/>
<text text-anchor="start" x="5875" y="-164.07" font-family="Helvetica,sans-Serif" font-size="14.00"> &#160;&#160;&#160;&#160;&#160;&#160;&#160;&#160;&#160;&#160;&#160;&#160;&#160;&#160;&#160;networks (2) &#160;&#160;&#160;&#160;&#160;&#160;&#160;&#160;&#160;&#160;&#160;</text>
<polygon fill="none" stroke="#0a0a0a" points="5511,-146.75 5511,-407.75 6658,-407.75 6658,-146.75 5511,-146.75"/>
</g>
<!-- NODE&#45;SERVICE_repository&#45;10&#45;2 -->
<g id="node2" class="node">
<title>NODE&#45;SERVICE_repository&#45;10&#45;2</title>
<polygon fill="#a0a0a0" stroke="none" points="4791,-426.25 1951,-426.25 1951,-146.25 4791,-146.25 4791,-426.25"/>
<polygon fill="none" stroke="#0a0a0a" points="1952,-406.25 1952,-425.25 2465,-425.25 2465,-406.25 1952,-406.25"/>
<text text-anchor="start" x="2278.75" y="-410.95" font-family="Helvetica,sans-Serif" font-size="14.00"> &#160;&#160;&#160;&#160;&#160;&#160;&#160;&#160;&#160;&#160;&#160;service_name &#160;&#160;&#160;&#160;&#160;&#160;&#160;</text>
<polygon fill="none" stroke="#0a0a0a" points="2465,-406.25 2465,-425.25 4790,-425.25 4790,-406.25 2465,-406.25"/>
<text text-anchor="start" x="2466" y="-410.95" font-family="Helvetica,sans-Serif" font-size="14.00"> &#160;&#160;&#160;&#160;&#160;&#160;&#160;&#160;&#160;&#160;&#160;repository&#45;10&#45;2 &#160;&#160;&#160;&#160;&#160;&#160;&#160;</text>
<polygon fill="none" stroke="#0a0a0a" points="1952,-387.25 1952,-406.25 2465,-406.25 2465,-387.25 1952,-387.25"/>
<text text-anchor="start" x="2263" y="-391.95" font-family="Helvetica,sans-Serif" font-size="14.00"> &#160;&#160;&#160;&#160;&#160;&#160;&#160;&#160;&#160;&#160;&#160;container_name &#160;&#160;&#160;&#160;&#160;&#160;&#160;</text>
<polygon fill="none" stroke="#0a0a0a" points="2465,-387.25 2465,-406.25 4790,-406.25 4790,-387.25 2465,-387.25"/>
<text text-anchor="start" x="2466" y="-391.95" font-family="Helvetica,sans-Serif" font-size="14.00"> &#160;&#160;&#160;&#160;&#160;&#160;&#160;&#160;&#160;&#160;&#160;repository&#45;10&#45;2 &#160;&#160;&#160;&#160;&#160;&#160;&#160;</text>
<polygon fill="none" stroke="#0a0a0a" points="1952,-368.25 1952,-387.25 2465,-387.25 2465,-368.25 1952,-368.25"/>
<text text-anchor="start" x="2305" y="-372.95" font-family="Helvetica,sans-Serif" font-size="14.00"> &#160;&#160;&#160;&#160;&#160;&#160;&#160;&#160;&#160;&#160;&#160;hostname &#160;&#160;&#160;&#160;&#160;&#160;&#160;</text>
<polygon fill="none" stroke="#0a0a0a" points="2465,-368.25 2465,-387.25 4790,-387.25 4790,-368.25 2465,-368.25"/>
<text text-anchor="start" x="2466" y="-372.95" font-family="Helvetica,sans-Serif" font-size="14.00"> &#160;&#160;&#160;&#160;&#160;&#160;&#160;&#160;&#160;&#160;&#160;repository&#45;10&#45;2 &#160;&#160;&#160;&#160;&#160;&#160;&#160;</text>
<polygon fill="none" stroke="#0a0a0a" points="1952,-349.25 1952,-368.25 2465,-368.25 2465,-349.25 1952,-349.25"/>
<text text-anchor="start" x="2283.25" y="-353.95" font-family="Helvetica,sans-Serif" font-size="14.00"> &#160;&#160;&#160;&#160;&#160;&#160;&#160;&#160;&#160;&#160;&#160;domainname &#160;&#160;&#160;&#160;&#160;&#160;&#160;</text>
<polygon fill="none" stroke="#0a0a0a" points="2465,-349.25 2465,-368.25 4790,-368.25 4790,-349.25 2465,-349.25"/>
<text text-anchor="start" x="2466" y="-353.95" font-family="Helvetica,sans-Serif" font-size="14.00"> &#160;&#160;&#160;&#160;&#160;&#160;&#160;&#160;&#160;&#160;&#160;farm.evil &#160;&#160;&#160;&#160;&#160;&#160;&#160;</text>
<polygon fill="none" stroke="#0a0a0a" points="1952,-330.25 1952,-349.25 2465,-349.25 2465,-330.25 1952,-330.25"/>
<text text-anchor="start" x="2328.25" y="-334.95" font-family="Helvetica,sans-Serif" font-size="14.00"> &#160;&#160;&#160;&#160;&#160;&#160;&#160;&#160;&#160;&#160;&#160;restart &#160;&#160;&#160;&#160;&#160;&#160;&#160;</text>
<polygon fill="none" stroke="#0a0a0a" points="2465,-330.25 2465,-349.25 4790,-349.25 4790,-330.25 2465,-330.25"/>
<text text-anchor="start" x="2466" y="-334.95" font-family="Helvetica,sans-Serif" font-size="14.00"> &#160;&#160;&#160;&#160;&#160;&#160;&#160;&#160;&#160;&#160;&#160;no &#160;&#160;&#160;&#160;&#160;&#160;&#160;</text>
<polygon fill="none" stroke="#0a0a0a" points="1952,-311.25 1952,-330.25 2465,-330.25 2465,-311.25 1952,-311.25"/>
<text text-anchor="start" x="2331.25" y="-315.95" font-family="Helvetica,sans-Serif" font-size="14.00"> &#160;&#160;&#160;&#160;&#160;&#160;&#160;&#160;&#160;&#160;&#160;image &#160;&#160;&#160;&#160;&#160;&#160;&#160;</text>
<polygon fill="none" stroke="#0a0a0a" points="2465,-311.25 2465,-330.25 4790,-330.25 4790,-311.25 2465,-311.25"/>
<text text-anchor="start" x="2466" y="-315.95" font-family="Helvetica,sans-Serif" font-size="14.00"> &#160;&#160;&#160;&#160;&#160;&#160;&#160;&#160;&#160;&#160;&#160;michimussato/build_repository_image_10_2:2025&#45;01&#45;30_16&#45;18&#45;56__801a42f92ec14c6f91ec6813626fad6e &#160;&#160;&#160;&#160;&#160;&#160;&#160;</text>
<polygon fill="none" stroke="#0a0a0a" points="1952,-292.25 1952,-311.25 2465,-311.25 2465,-292.25 1952,-292.25"/>
<text text-anchor="start" x="2185.75" y="-296.95" font-family="Helvetica,sans-Serif" font-size="14.00"> &#160;&#160;&#160;&#160;&#160;&#160;&#160;&#160;&#160;&#160;&#160;command (ENTRYPOINT +) &#160;&#160;&#160;&#160;&#160;&#160;&#160;</text>
<polygon fill="none" stroke="#0a0a0a" points="2465,-292.25 2465,-311.25 4790,-311.25 4790,-292.25 2465,-292.25"/>
<text text-anchor="start" x="2465.75" y="-296.95" font-family="Helvetica,sans-Serif" font-size="14.00"> &#160;&#160;&#160;&#160;&#160;&#160;&#160;&#160;&#160;&#160;&#160;/installers/DeadlineRepository.run &#45;&#45;mode unattended &#45;&#45;prefix /opt/Thinkbox/DeadlineRepository10 &#45;&#45;setpermissions true &#45;&#45;dbtype MongoDB &#45;&#45;installmongodb false &#45;&#45;dbhost mongodb&#45;10&#45;2 &#45;&#45;dbport 21017 &#45;&#45;dbname deadline10db &#45;&#45;dbauth false &#45;&#45;dbssl false &#45;&#45;installSecretsManagement false &#45;&#45;importrepositorysettings false &#160;&#160;&#160;&#160;&#160;&#160;&#160;</text>
<polygon fill="none" stroke="#0a0a0a" points="1952,-269.25 1952,-292.25 2465,-292.25 2465,-269.25 1952,-269.25"/>
<text text-anchor="start" x="2230" y="-276.07" font-family="Helvetica,sans-Serif" font-size="14.00"> &#160;&#160;&#160;&#160;&#160;&#160;&#160;&#160;&#160;&#160;&#160;&#160;&#160;&#160;&#160;depends_on (1) &#160;&#160;&#160;&#160;&#160;&#160;&#160;&#160;&#160;&#160;&#160;</text>
<polygon fill="none" stroke="#0a0a0a" points="2465,-269.25 2465,-292.25 4790,-292.25 4790,-269.25 2465,-269.25"/>
<polygon fill="none" stroke="#0a0a0a" points="2467,-271 2467,-290.25 4788,-290.25 4788,-271 2467,-271"/>
<text text-anchor="start" x="2468" y="-275.95" font-family="Helvetica,sans-Serif" font-size="14.00"> &#160;&#160;&#160;&#160;&#160;&#160;&#160;&#160;&#160;&#160;&#160;&#160;&#160;&#160;&#160;&#160;&#160;&#160;&#160;&#160;&#160;&#160;&#160;&#160;&#160;&#160;&#160;mongodb&#45;10&#45;2 (condition: None) &#160;&#160;&#160;&#160;&#160;&#160;&#160;&#160;&#160;&#160;&#160;&#160;&#160;&#160;&#160;&#160;&#160;&#160;&#160;&#160;&#160;&#160;&#160;</text>
<polygon fill="none" stroke="#0a0a0a" points="2466,-270.25 2466,-291.25 4789,-291.25 4789,-270.25 2466,-270.25"/>
<polygon fill="none" stroke="#0a0a0a" points="1952,-208.25 1952,-269.25 2465,-269.25 2465,-208.25 1952,-208.25"/>
<polygon fill="none" stroke="#0a0a0a" points="1954,-248 1954,-267.25 2463.75,-267.25 2463.75,-248 1954,-248"/>
<text text-anchor="start" x="1955" y="-252.95" font-family="Helvetica,sans-Serif" font-size="14.00"> &#160;&#160;&#160;&#160;&#160;&#160;&#160;&#160;&#160;&#160;&#160;&#160;&#160;&#160;&#160;&#160;&#160;&#160;&#160;&#160;&#160;&#160;&#160;&#160;&#160;&#160;&#160;/data/share/nfs:rw &#160;&#160;&#160;&#160;&#160;&#160;&#160;&#160;&#160;&#160;&#160;&#160;&#160;&#160;&#160;&#160;&#160;&#160;&#160;&#160;&#160;&#160;&#160;</text>
<polygon fill="none" stroke="#0a0a0a" points="1954,-228.75 1954,-248 2463.75,-248 2463.75,-228.75 1954,-228.75"/>
<text text-anchor="start" x="1955" y="-233.7" font-family="Helvetica,sans-Serif" font-size="14.00"> &#160;&#160;&#160;&#160;&#160;&#160;&#160;&#160;&#160;&#160;&#160;&#160;&#160;&#160;&#160;&#160;&#160;&#160;&#160;&#160;&#160;&#160;&#160;&#160;&#160;&#160;&#160;/nfs:rw &#160;&#160;&#160;&#160;&#160;&#160;&#160;&#160;&#160;&#160;&#160;&#160;&#160;&#160;&#160;&#160;&#160;&#160;&#160;&#160;&#160;&#160;&#160;</text>
<polygon fill="none" stroke="#0a0a0a" points="1954,-209.5 1954,-228.75 2463.75,-228.75 2463.75,-209.5 1954,-209.5"/>
<text text-anchor="start" x="1955" y="-214.45" font-family="Helvetica,sans-Serif" font-size="14.00"> &#160;&#160;&#160;&#160;&#160;&#160;&#160;&#160;&#160;&#160;&#160;&#160;&#160;&#160;&#160;&#160;&#160;&#160;&#160;&#160;&#160;&#160;&#160;&#160;&#160;&#160;&#160;/opt/Thinkbox/DeadlineRepository10:rw &#160;&#160;&#160;&#160;&#160;&#160;&#160;&#160;&#160;&#160;&#160;&#160;&#160;&#160;&#160;&#160;&#160;&#160;&#160;&#160;&#160;&#160;&#160;</text>
<polygon fill="none" stroke="#0a0a0a" points="1953,-209.25 1953,-268.25 2464,-268.25 2464,-209.25 1953,-209.25"/>
<polygon fill="none" stroke="#0a0a0a" points="2465,-208.25 2465,-269.25 4790,-269.25 4790,-208.25 2465,-208.25"/>
<text text-anchor="start" x="2466" y="-234.07" font-family="Helvetica,sans-Serif" font-size="14.00"> &#160;&#160;&#160;&#160;&#160;&#160;&#160;&#160;&#160;&#160;&#160;&#160;&#160;&#160;&#160;volumes (3) &#160;&#160;&#160;&#160;&#160;&#160;&#160;&#160;&#160;&#160;&#160;</text>
<polygon fill="none" stroke="#0a0a0a" points="1952,-147.25 1952,-208.25 2465,-208.25 2465,-147.25 1952,-147.25"/>
<polygon fill="none" stroke="#0a0a0a" points="1954,-187 1954,-206.25 2463,-206.25 2463,-187 1954,-187"/>
<text text-anchor="start" x="1955" y="-191.95" font-family="Helvetica,sans-Serif" font-size="14.00"> &#160;&#160;&#160;&#160;&#160;&#160;&#160;&#160;&#160;&#160;&#160;&#160;&#160;&#160;&#160;&#160;&#160;&#160;&#160;&#160;&#160;&#160;&#160;&#160;&#160;&#160;&#160;ayon &#160;&#160;&#160;&#160;&#160;&#160;&#160;&#160;&#160;&#160;&#160;&#160;&#160;&#160;&#160;&#160;&#160;&#160;&#160;&#160;&#160;&#160;&#160;</text>
<polygon fill="none" stroke="#0a0a0a" points="1954,-167.75 1954,-187 2463,-187 2463,-167.75 1954,-167.75"/>
<text text-anchor="start" x="1955" y="-172.7" font-family="Helvetica,sans-Serif" font-size="14.00"> &#160;&#160;&#160;&#160;&#160;&#160;&#160;&#160;&#160;&#160;&#160;&#160;&#160;&#160;&#160;&#160;&#160;&#160;&#160;&#160;&#160;&#160;&#160;&#160;&#160;&#160;&#160;mongodb &#160;&#160;&#160;&#160;&#160;&#160;&#160;&#160;&#160;&#160;&#160;&#160;&#160;&#160;&#160;&#160;&#160;&#160;&#160;&#160;&#160;&#160;&#160;</text>
<polygon fill="none" stroke="#0a0a0a" points="1954,-148.5 1954,-167.75 2463,-167.75 2463,-148.5 1954,-148.5"/>
<text text-anchor="start" x="1955" y="-153.45" font-family="Helvetica,sans-Serif" font-size="14.00"> &#160;&#160;&#160;&#160;&#160;&#160;&#160;&#160;&#160;&#160;&#160;&#160;&#160;&#160;&#160;&#160;&#160;&#160;&#160;&#160;&#160;&#160;&#160;&#160;&#160;&#160;&#160;repository &#160;&#160;&#160;&#160;&#160;&#160;&#160;&#160;&#160;&#160;&#160;&#160;&#160;&#160;&#160;&#160;&#160;&#160;&#160;&#160;&#160;&#160;&#160;</text>
<polygon fill="none" stroke="#0a0a0a" points="1953,-148.25 1953,-207.25 2464,-207.25 2464,-148.25 1953,-148.25"/>
<polygon fill="none" stroke="#0a0a0a" points="2465,-147.25 2465,-208.25 4790,-208.25 4790,-147.25 2465,-147.25"/>
<text text-anchor="start" x="2466" y="-173.07" font-family="Helvetica,sans-Serif" font-size="14.00"> &#160;&#160;&#160;&#160;&#160;&#160;&#160;&#160;&#160;&#160;&#160;&#160;&#160;&#160;&#160;networks (3) &#160;&#160;&#160;&#160;&#160;&#160;&#160;&#160;&#160;&#160;&#160;</text>
<polygon fill="none" stroke="#0a0a0a" points="1951,-146.25 1951,-426.25 4791,-426.25 4791,-146.25 1951,-146.25"/>
</g>
<!-- NODE&#45;SERVICE_repository&#45;10&#45;2&#45;&gt;NODE&#45;SERVICE_mongodb&#45;10&#45;2 -->
<g id="edge1" class="edge">
<title>NODE&#45;SERVICE_repository&#45;10&#45;2:e&#45;&gt;NODE&#45;SERVICE_mongodb&#45;10&#45;2:w</title>
<path fill="none" stroke="yellow" stroke-width="2" d="M4799.21,-282.27C4880.79,-295.45 5425.9,-383.5 5502.15,-395.82"/>
<polygon fill="yellow" stroke="yellow" stroke-width="2" points="4790.55,-277.33 4799.86,-282.38 4789.43,-284.24 4790.55,-277.33"/>
<ellipse fill="yellow" stroke="yellow" stroke-width="2" cx="5506.06" cy="-396.45" rx="4" ry="4"/>
</g>
<!-- mongodb&#45;10&#45;2__21017__21017 -->
<g id="node3" class="node">
<title>mongodb&#45;10&#45;2__21017__21017</title>
<ellipse fill="#ffffff" stroke="black" cx="627.5" cy="-554.25" rx="42.79" ry="42.79"/>
<text text-anchor="middle" x="627.5" y="-549.58" font-family="Helvetica,sans-Serif" font-size="14.00">21017</text>
</g>
<!-- mongodb&#45;10&#45;2__21017__21017&#45;&gt;NODE&#45;SERVICE_mongodb&#45;10&#45;2 -->
<g id="edge2" class="edge">
<title>mongodb&#45;10&#45;2__21017__21017:e&#45;&gt;NODE&#45;SERVICE_mongodb&#45;10&#45;2:w</title>
<path fill="none" stroke="#ffffff" d="M679.55,-553.6C903.08,-537.31 5282.97,-217.97 5505.24,-201.76"/>
<ellipse fill="#ffffff" stroke="#ffffff" cx="675.18" cy="-553.92" rx="4" ry="4"/>
<ellipse fill="#ffffff" stroke="#ffffff" cx="5509.51" cy="-201.45" rx="4" ry="4"/>
</g>
<!-- /data/share/nfs -->
<g id="node4" class="node">
<title>/data/share/nfs</title>
<path fill="#00ffff" stroke="black" d="M675.62,-201.25C675.62,-201.25 579.38,-201.25 579.38,-201.25 573.38,-201.25 567.38,-195.25 567.38,-189.25 567.38,-189.25 567.38,-177.25 567.38,-177.25 567.38,-171.25 573.38,-165.25 579.38,-165.25 579.38,-165.25 675.62,-165.25 675.62,-165.25 681.62,-165.25 687.62,-171.25 687.62,-177.25 687.62,-177.25 687.62,-189.25 687.62,-189.25 687.62,-195.25 681.62,-201.25 675.62,-201.25"/>
<text text-anchor="middle" x="627.5" y="-178.57" font-family="Helvetica,sans-Serif" font-size="14.00">/data/share/nfs</text>
</g>
<!-- /data/share/nfs&#45;&gt;NODE&#45;SERVICE_mongodb&#45;10&#45;2 -->
<g id="edge3" class="edge">
<title>/data/share/nfs:e&#45;&gt;NODE&#45;SERVICE_mongodb&#45;10&#45;2:w</title>
<path fill="none" stroke="#00ffff" stroke-dasharray="5,2" d="M696.45,-183.36C919.21,-186.11 5283.78,-240.03 5505.27,-242.77"/>
<ellipse fill="#00ffff" stroke="#00ffff" cx="692.12" cy="-183.31" rx="4" ry="4"/>
<ellipse fill="#00ffff" stroke="#00ffff" cx="5509.5" cy="-242.82" rx="4" ry="4"/>
</g>
<!-- /data/share/nfs&#45;&gt;NODE&#45;SERVICE_mongodb&#45;10&#45;2 -->
<g id="edge4" class="edge">
<title>/data/share/nfs:e&#45;&gt;NODE&#45;SERVICE_mongodb&#45;10&#45;2:w</title>
<path fill="none" stroke="#00ffff" stroke-dasharray="5,2" d="M696.45,-183.32C919.21,-185.19 5283.78,-221.7 5505.27,-223.55"/>
<ellipse fill="#00ffff" stroke="#00ffff" cx="692.12" cy="-183.29" rx="4" ry="4"/>
<ellipse fill="#00ffff" stroke="#00ffff" cx="5509.5" cy="-223.59" rx="4" ry="4"/>
</g>
<!-- /data/share/nfs&#45;&gt;NODE&#45;SERVICE_repository&#45;10&#45;2 -->
<g id="edge6" class="edge">
<title>/data/share/nfs:e&#45;&gt;NODE&#45;SERVICE_repository&#45;10&#45;2:w</title>
<path fill="none" stroke="#00ffff" d="M697.37,-183.76C803.3,-190 1837.35,-250.82 1944.11,-257.1"/>
<ellipse fill="#00ffff" stroke="#00ffff" cx="693.12" cy="-183.51" rx="4" ry="4"/>
<ellipse fill="#00ffff" stroke="#00ffff" cx="1948.51" cy="-257.36" rx="4" ry="4"/>
</g>
<!-- /data/share/nfs&#45;&gt;NODE&#45;SERVICE_repository&#45;10&#45;2 -->
<g id="edge7" class="edge">
<title>/data/share/nfs:e&#45;&gt;NODE&#45;SERVICE_repository&#45;10&#45;2:w</title>
<path fill="none" stroke="#00ffff" d="M697.37,-183.63C803.3,-188.25 1837.35,-233.33 1944.11,-237.99"/>
<ellipse fill="#00ffff" stroke="#00ffff" cx="693.12" cy="-183.45" rx="4" ry="4"/>
<ellipse fill="#00ffff" stroke="#00ffff" cx="1948.5" cy="-238.18" rx="4" ry="4"/>
</g>
<!-- /home/michael/git/repos/open&#45;studio&#45;landscapes/.landscapes/2025&#45;01&#45;30_16&#45;18&#45;56__801a42f92ec14c6f91ec6813626fad6e/10_2/data/opt/Thinkbox/DeadlineDatabase10 -->
<g id="node5" class="node">
<title>/home/michael/git/repos/open&#45;studio&#45;landscapes/.landscapes/2025&#45;01&#45;30_16&#45;18&#45;56__801a42f92ec14c6f91ec6813626fad6e/10_2/data/opt/Thinkbox/DeadlineDatabase10</title>
<path fill="#00ffff" stroke="black" d="M1214.88,-85.25C1214.88,-85.25 40.12,-85.25 40.12,-85.25 34.12,-85.25 28.12,-79.25 28.12,-73.25 28.12,-73.25 28.12,-61.25 28.12,-61.25 28.12,-55.25 34.12,-49.25 40.12,-49.25 40.12,-49.25 1214.88,-49.25 1214.88,-49.25 1220.88,-49.25 1226.88,-55.25 1226.88,-61.25 1226.88,-61.25 1226.88,-73.25 1226.88,-73.25 1226.88,-79.25 1220.88,-85.25 1214.88,-85.25"/>
<text text-anchor="middle" x="627.5" y="-62.58" font-family="Helvetica,sans-Serif" font-size="14.00">/home/michael/git/repos/open&#45;studio&#45;landscapes/.landscapes/2025&#45;01&#45;30_16&#45;18&#45;56__801a42f92ec14c6f91ec6813626fad6e/10_2/data/opt/Thinkbox/DeadlineDatabase10</text>
</g>
<!-- /home/michael/git/repos/open&#45;studio&#45;landscapes/.landscapes/2025&#45;01&#45;30_16&#45;18&#45;56__801a42f92ec14c6f91ec6813626fad6e/10_2/data/opt/Thinkbox/DeadlineDatabase10&#45;&gt;NODE&#45;SERVICE_mongodb&#45;10&#45;2 -->
<g id="edge5" class="edge">
<title>/home/michael/git/repos/open&#45;studio&#45;landscapes/.landscapes/2025&#45;01&#45;30_16&#45;18&#45;56__801a42f92ec14c6f91ec6813626fad6e/10_2/data/opt/Thinkbox/DeadlineDatabase10:e&#45;&gt;NODE&#45;SERVICE_mongodb&#45;10&#45;2:w</title>
<path fill="none" stroke="#00ffff" d="M1235.66,-67.65C1444.11,-77.12 5294.63,-252.15 5505.05,-261.72"/>
<ellipse fill="#00ffff" stroke="#00ffff" cx="1231.37" cy="-67.45" rx="4" ry="4"/>
<ellipse fill="#00ffff" stroke="#00ffff" cx="5509.5" cy="-261.92" rx="4" ry="4"/>
</g>
<!-- /home/michael/git/repos/open&#45;studio&#45;landscapes/.landscapes/2025&#45;01&#45;30_16&#45;18&#45;56__801a42f92ec14c6f91ec6813626fad6e/10_2/data/opt/Thinkbox/DeadlineRepository10 -->
<g id="node6" class="node">
<title>/home/michael/git/repos/open&#45;studio&#45;landscapes/.landscapes/2025&#45;01&#45;30_16&#45;18&#45;56__801a42f92ec14c6f91ec6813626fad6e/10_2/data/opt/Thinkbox/DeadlineRepository10</title>
<path fill="#00ffff" stroke="black" d="M1219,-143.25C1219,-143.25 36,-143.25 36,-143.25 30,-143.25 24,-137.25 24,-131.25 24,-131.25 24,-119.25 24,-119.25 24,-113.25 30,-107.25 36,-107.25 36,-107.25 1219,-107.25 1219,-107.25 1225,-107.25 1231,-113.25 1231,-119.25 1231,-119.25 1231,-131.25 1231,-131.25 1231,-137.25 1225,-143.25 1219,-143.25"/>
<text text-anchor="middle" x="627.5" y="-120.58" font-family="Helvetica,sans-Serif" font-size="14.00">/home/michael/git/repos/open&#45;studio&#45;landscapes/.landscapes/2025&#45;01&#45;30_16&#45;18&#45;56__801a42f92ec14c6f91ec6813626fad6e/10_2/data/opt/Thinkbox/DeadlineRepository10</text>
</g>
<!-- /home/michael/git/repos/open&#45;studio&#45;landscapes/.landscapes/2025&#45;01&#45;30_16&#45;18&#45;56__801a42f92ec14c6f91ec6813626fad6e/10_2/data/opt/Thinkbox/DeadlineRepository10&#45;&gt;NODE&#45;SERVICE_repository&#45;10&#45;2 -->
<g id="edge8" class="edge">
<title>/home/michael/git/repos/open&#45;studio&#45;landscapes/.landscapes/2025&#45;01&#45;30_16&#45;18&#45;56__801a42f92ec14c6f91ec6813626fad6e/10_2/data/opt/Thinkbox/DeadlineRepository10:e&#45;&gt;NODE&#45;SERVICE_repository&#45;10&#45;2:w</title>
<path fill="none" stroke="#00ffff" d="M1240.86,-126.4C1317.63,-136.4 1869.46,-208.25 1944.55,-218.02"/>
<ellipse fill="#00ffff" stroke="#00ffff" cx="1236.46" cy="-125.83" rx="4" ry="4"/>
<ellipse fill="#00ffff" stroke="#00ffff" cx="1948.54" cy="-218.54" rx="4" ry="4"/>
</g>
<!-- mongodb -->
<g id="node7" class="node">
<title>mongodb</title>
<path fill="#ffa500" stroke="black" d="M656.5,-374.25C656.5,-374.25 598.5,-374.25 598.5,-374.25 592.5,-374.25 586.5,-368.25 586.5,-362.25 586.5,-362.25 586.5,-350.25 586.5,-350.25 586.5,-344.25 592.5,-338.25 598.5,-338.25 598.5,-338.25 656.5,-338.25 656.5,-338.25 662.5,-338.25 668.5,-344.25 668.5,-350.25 668.5,-350.25 668.5,-362.25 668.5,-362.25 668.5,-368.25 662.5,-374.25 656.5,-374.25"/>
<text text-anchor="middle" x="627.5" y="-351.57" font-family="Helvetica,sans-Serif" font-size="14.00">mongodb</text>
</g>
<!-- mongodb&#45;&gt;NODE&#45;SERVICE_mongodb&#45;10&#45;2 -->
<g id="edge9" class="edge">
<title>mongodb:e&#45;&gt;NODE&#45;SERVICE_mongodb&#45;10&#45;2:w</title>
<path fill="none" stroke="#ffa500" d="M677.36,-355.92C901,-347.7 5282.86,-186.62 5505.24,-178.45"/>
<ellipse fill="#ffa500" stroke="#ffa500" cx="673" cy="-356.08" rx="4" ry="4"/>
<ellipse fill="#ffa500" stroke="#ffa500" cx="5509.5" cy="-178.29" rx="4" ry="4"/>
</g>
<!-- mongodb&#45;&gt;NODE&#45;SERVICE_repository&#45;10&#45;2 -->
<g id="edge12" class="edge">
<title>mongodb:e&#45;&gt;NODE&#45;SERVICE_repository&#45;10&#45;2:w</title>
<path fill="none" stroke="#ffa500" d="M678.38,-355.01C786.02,-340.01 1837.77,-193.43 1944.31,-178.59"/>
<ellipse fill="#ffa500" stroke="#ffa500" cx="673.96" cy="-355.63" rx="4" ry="4"/>
<ellipse fill="#ffa500" stroke="#ffa500" cx="1948.54" cy="-178" rx="4" ry="4"/>
</g>
<!-- repository -->
<g id="node8" class="node">
<title>repository</title>
<path fill="#ffa500" stroke="black" d="M658.38,-316.25C658.38,-316.25 596.62,-316.25 596.62,-316.25 590.62,-316.25 584.62,-310.25 584.62,-304.25 584.62,-304.25 584.62,-292.25 584.62,-292.25 584.62,-286.25 590.62,-280.25 596.62,-280.25 596.62,-280.25 658.38,-280.25 658.38,-280.25 664.38,-280.25 670.38,-286.25 670.38,-292.25 670.38,-292.25 670.38,-304.25 670.38,-304.25 670.38,-310.25 664.38,-316.25 658.38,-316.25"/>
<text text-anchor="middle" x="627.5" y="-293.57" font-family="Helvetica,sans-Serif" font-size="14.00">repository</text>
</g>
<!-- repository&#45;&gt;NODE&#45;SERVICE_mongodb&#45;10&#45;2 -->
<g id="edge10" class="edge">
<title>repository:e&#45;&gt;NODE&#45;SERVICE_mongodb&#45;10&#45;2:w</title>
<path fill="none" stroke="#ffa500" d="M679.24,-298C902.78,-291.56 5282.95,-165.52 5505.24,-159.13"/>
<ellipse fill="#ffa500" stroke="#ffa500" cx="674.87" cy="-298.12" rx="4" ry="4"/>
<ellipse fill="#ffa500" stroke="#ffa500" cx="5509.5" cy="-159" rx="4" ry="4"/>
</g>
<!-- repository&#45;&gt;NODE&#45;SERVICE_repository&#45;10&#45;2 -->
<g id="edge13" class="edge">
<title>repository:e&#45;&gt;NODE&#45;SERVICE_repository&#45;10&#45;2:w</title>
<path fill="none" stroke="#ffa500" d="M680.24,-297.28C787.73,-285.53 1837.93,-170.71 1944.32,-159.07"/>
<ellipse fill="#ffa500" stroke="#ffa500" cx="675.85" cy="-297.76" rx="4" ry="4"/>
<ellipse fill="#ffa500" stroke="#ffa500" cx="1948.53" cy="-158.61" rx="4" ry="4"/>
</g>
<!-- ayon -->
<g id="node9" class="node">
<title>ayon</title>
<path fill="#ffa500" stroke="black" d="M642.5,-432.25C642.5,-432.25 612.5,-432.25 612.5,-432.25 606.5,-432.25 600.5,-426.25 600.5,-420.25 600.5,-420.25 600.5,-408.25 600.5,-408.25 600.5,-402.25 606.5,-396.25 612.5,-396.25 612.5,-396.25 642.5,-396.25 642.5,-396.25 648.5,-396.25 654.5,-402.25 654.5,-408.25 654.5,-408.25 654.5,-420.25 654.5,-420.25 654.5,-426.25 648.5,-432.25 642.5,-432.25"/>
<text text-anchor="middle" x="627.5" y="-409.57" font-family="Helvetica,sans-Serif" font-size="14.00">ayon</text>
</g>
<!-- ayon&#45;&gt;NODE&#45;SERVICE_repository&#45;10&#45;2 -->
<g id="edge11" class="edge">
<title>ayon:e&#45;&gt;NODE&#45;SERVICE_repository&#45;10&#45;2:w</title>
<path fill="none" stroke="#ffa500" d="M664.13,-412.8C770.99,-394.88 1836.28,-216.2 1944.19,-198.1"/>
<ellipse fill="#ffa500" stroke="#ffa500" cx="659.94" cy="-413.51" rx="4" ry="4"/>
<ellipse fill="#ffa500" stroke="#ffa500" cx="1948.56" cy="-197.37" rx="4" ry="4"/>
</g>
</g>
</svg>
