<?xml version="1.0" encoding="UTF-8" standalone="no"?>
<!DOCTYPE svg PUBLIC "-//W3C//DTD SVG 1.1//EN"
 "http://www.w3.org/Graphics/SVG/1.1/DTD/svg11.dtd">
<!-- Generated by graphviz version 12.1.2 (0)
 -->
<!-- Title: main_graph Pages: 1 -->
<svg width="6975pt" height="947pt"
 viewBox="0.00 0.00 6974.50 947.25" xmlns="http://www.w3.org/2000/svg" xmlns:xlink="http://www.w3.org/1999/xlink">
<g id="graph0" class="graph" transform="scale(1 1) rotate(0) translate(108 839.25)">
<title>main_graph</title>
<polygon fill="#2f2f2f" stroke="none" points="-108,108 -108,-839.25 6866.5,-839.25 6866.5,108 -108,108"/>
<text text-anchor="middle" x="3379.25" y="-7.95" font-family="Helvetica,sans-Serif" font-size="14.00">/home/michael/git/repos/open&#45;studio&#45;landscapes/.landscapes/2025&#45;02&#45;01_00&#45;11&#45;08__578595276b424d1ea62550cb0b6f166f/Deadline_10_2/docker_compose/Deadline_10_2__compose_repository_10_2/docker&#45;compose.yml</text>
<g id="clust1" class="cluster">
<title>cluster_cluster_root_services</title>
<path fill="#ff00ff" fill-opacity="0.062745" stroke="#ff00ff" d="M2023.5,-130.25C2023.5,-130.25 6738.5,-130.25 6738.5,-130.25 6744.5,-130.25 6750.5,-136.25 6750.5,-142.25 6750.5,-142.25 6750.5,-540.25 6750.5,-540.25 6750.5,-546.25 6744.5,-552.25 6738.5,-552.25 6738.5,-552.25 2023.5,-552.25 2023.5,-552.25 2017.5,-552.25 2011.5,-546.25 2011.5,-540.25 2011.5,-540.25 2011.5,-142.25 2011.5,-142.25 2011.5,-136.25 2017.5,-130.25 2023.5,-130.25"/>
<text text-anchor="middle" x="4381" y="-510.25" font-family="Helvetica,sans-Serif" font-size="40.00" fill="#ff00ff">Services</text>
</g>
<g id="clust2" class="cluster">
<title>cluster_cluster_service_mongodb&#45;10&#45;2</title>
<path fill="#00ffff" fill-opacity="0.062745" stroke="white" d="M5591.5,-138.25C5591.5,-138.25 6730.5,-138.25 6730.5,-138.25 6736.5,-138.25 6742.5,-144.25 6742.5,-150.25 6742.5,-150.25 6742.5,-459.25 6742.5,-459.25 6742.5,-465.25 6736.5,-471.25 6730.5,-471.25 6730.5,-471.25 5591.5,-471.25 5591.5,-471.25 5585.5,-471.25 5579.5,-465.25 5579.5,-459.25 5579.5,-459.25 5579.5,-150.25 5579.5,-150.25 5579.5,-144.25 5585.5,-138.25 5591.5,-138.25"/>
<text text-anchor="middle" x="6161" y="-429.25" font-family="Helvetica,sans-Serif" font-size="40.00" fill="white">mongodb&#45;10&#45;2</text>
</g>
<g id="clust3" class="cluster">
<title>cluster_cluster_service_repository&#45;10&#45;2</title>
<path fill="#00ffff" fill-opacity="0.062745" stroke="white" d="M2031.5,-138.25C2031.5,-138.25 4863.5,-138.25 4863.5,-138.25 4869.5,-138.25 4875.5,-144.25 4875.5,-150.25 4875.5,-150.25 4875.5,-477.25 4875.5,-477.25 4875.5,-483.25 4869.5,-489.25 4863.5,-489.25 4863.5,-489.25 2031.5,-489.25 2031.5,-489.25 2025.5,-489.25 2019.5,-483.25 2019.5,-477.25 2019.5,-477.25 2019.5,-150.25 2019.5,-150.25 2019.5,-144.25 2025.5,-138.25 2031.5,-138.25"/>
<text text-anchor="middle" x="3447.5" y="-447.25" font-family="Helvetica,sans-Serif" font-size="40.00" fill="white">repository&#45;10&#45;2</text>
</g>
<g id="clust4" class="cluster">
<title>cluster_cluster_host</title>
<path fill="#000000" fill-opacity="0.062745" stroke="#000000" d="M20,-33.25C20,-33.25 1311.5,-33.25 1311.5,-33.25 1317.5,-33.25 1323.5,-39.25 1323.5,-45.25 1323.5,-45.25 1323.5,-711.25 1323.5,-711.25 1323.5,-717.25 1317.5,-723.25 1311.5,-723.25 1311.5,-723.25 20,-723.25 20,-723.25 14,-723.25 8,-717.25 8,-711.25 8,-711.25 8,-45.25 8,-45.25 8,-39.25 14,-33.25 20,-33.25"/>
<text text-anchor="middle" x="665.75" y="-681.25" font-family="Helvetica,sans-Serif" font-size="40.00" fill="#000000">Host</text>
</g>
<g id="clust5" class="cluster">
<title>cluster_cluster_root_ports</title>
<path fill="#ffffff" fill-opacity="0.062745" stroke="#ffffff" d="M528.12,-503.25C528.12,-503.25 804.38,-503.25 804.38,-503.25 810.38,-503.25 816.38,-509.25 816.38,-515.25 816.38,-515.25 816.38,-648.25 816.38,-648.25 816.38,-654.25 810.38,-660.25 804.38,-660.25 804.38,-660.25 528.12,-660.25 528.12,-660.25 522.12,-660.25 516.12,-654.25 516.12,-648.25 516.12,-648.25 516.12,-515.25 516.12,-515.25 516.12,-509.25 522.12,-503.25 528.12,-503.25"/>
<text text-anchor="middle" x="666.25" y="-618.25" font-family="Helvetica,sans-Serif" font-size="40.00" fill="#ffffff">Exposed Ports</text>
</g>
<g id="clust6" class="cluster">
<title>cluster_cluster_root_volumes</title>
<path fill="#00ffff" fill-opacity="0.062745" stroke="#00ffff" d="M28,-41.25C28,-41.25 1303.5,-41.25 1303.5,-41.25 1309.5,-41.25 1315.5,-47.25 1315.5,-53.25 1315.5,-53.25 1315.5,-252.25 1315.5,-252.25 1315.5,-258.25 1309.5,-264.25 1303.5,-264.25 1303.5,-264.25 28,-264.25 28,-264.25 22,-264.25 16,-258.25 16,-252.25 16,-252.25 16,-53.25 16,-53.25 16,-47.25 22,-41.25 28,-41.25"/>
<text text-anchor="middle" x="665.75" y="-222.25" font-family="Helvetica,sans-Serif" font-size="40.00" fill="#00ffff">Mounted Volumes</text>
</g>
<g id="clust7" class="cluster">
<title>cluster_cluster_root_networks</title>
<path fill="#ffa500" fill-opacity="0.062745" stroke="#ffa500" d="M575.75,-272.25C575.75,-272.25 756.75,-272.25 756.75,-272.25 762.75,-272.25 768.75,-278.25 768.75,-284.25 768.75,-284.25 768.75,-483.25 768.75,-483.25 768.75,-489.25 762.75,-495.25 756.75,-495.25 756.75,-495.25 575.75,-495.25 575.75,-495.25 569.75,-495.25 563.75,-489.25 563.75,-483.25 563.75,-483.25 563.75,-284.25 563.75,-284.25 563.75,-278.25 569.75,-272.25 575.75,-272.25"/>
<text text-anchor="middle" x="666.25" y="-453.25" font-family="Helvetica,sans-Serif" font-size="40.00" fill="#ffa500">Networks</text>
</g>
<!-- NODE&#45;SERVICE_mongodb&#45;10&#45;2 -->
<g id="node1" class="node">
<title>NODE&#45;SERVICE_mongodb&#45;10&#45;2</title>
<polygon fill="#a0a0a0" stroke="none" points="6734.5,-407.75 5587.5,-407.75 5587.5,-146.75 6734.5,-146.75 6734.5,-407.75"/>
<polygon fill="none" stroke="#0a0a0a" points="5588.5,-387.75 5588.5,-406.75 5950.5,-406.75 5950.5,-387.75 5588.5,-387.75"/>
<text text-anchor="start" x="5764.25" y="-392.45" font-family="Helvetica,sans-Serif" font-size="14.00"> &#160;&#160;&#160;&#160;&#160;&#160;&#160;&#160;&#160;&#160;&#160;service_name &#160;&#160;&#160;&#160;&#160;&#160;&#160;</text>
<polygon fill="none" stroke="#0a0a0a" points="5950.5,-387.75 5950.5,-406.75 6733.5,-406.75 6733.5,-387.75 5950.5,-387.75"/>
<text text-anchor="start" x="5951.5" y="-392.45" font-family="Helvetica,sans-Serif" font-size="14.00"> &#160;&#160;&#160;&#160;&#160;&#160;&#160;&#160;&#160;&#160;&#160;mongodb&#45;10&#45;2 &#160;&#160;&#160;&#160;&#160;&#160;&#160;</text>
<polygon fill="none" stroke="#0a0a0a" points="5588.5,-368.75 5588.5,-387.75 5950.5,-387.75 5950.5,-368.75 5588.5,-368.75"/>
<text text-anchor="start" x="5748.5" y="-373.45" font-family="Helvetica,sans-Serif" font-size="14.00"> &#160;&#160;&#160;&#160;&#160;&#160;&#160;&#160;&#160;&#160;&#160;container_name &#160;&#160;&#160;&#160;&#160;&#160;&#160;</text>
<polygon fill="none" stroke="#0a0a0a" points="5950.5,-368.75 5950.5,-387.75 6733.5,-387.75 6733.5,-368.75 5950.5,-368.75"/>
<text text-anchor="start" x="5951.5" y="-373.45" font-family="Helvetica,sans-Serif" font-size="14.00"> &#160;&#160;&#160;&#160;&#160;&#160;&#160;&#160;&#160;&#160;&#160;mongodb&#45;10&#45;2 &#160;&#160;&#160;&#160;&#160;&#160;&#160;</text>
<polygon fill="none" stroke="#0a0a0a" points="5588.5,-349.75 5588.5,-368.75 5950.5,-368.75 5950.5,-349.75 5588.5,-349.75"/>
<text text-anchor="start" x="5790.5" y="-354.45" font-family="Helvetica,sans-Serif" font-size="14.00"> &#160;&#160;&#160;&#160;&#160;&#160;&#160;&#160;&#160;&#160;&#160;hostname &#160;&#160;&#160;&#160;&#160;&#160;&#160;</text>
<polygon fill="none" stroke="#0a0a0a" points="5950.5,-349.75 5950.5,-368.75 6733.5,-368.75 6733.5,-349.75 5950.5,-349.75"/>
<text text-anchor="start" x="5951.5" y="-354.45" font-family="Helvetica,sans-Serif" font-size="14.00"> &#160;&#160;&#160;&#160;&#160;&#160;&#160;&#160;&#160;&#160;&#160;mongodb&#45;10&#45;2 &#160;&#160;&#160;&#160;&#160;&#160;&#160;</text>
<polygon fill="none" stroke="#0a0a0a" points="5588.5,-330.75 5588.5,-349.75 5950.5,-349.75 5950.5,-330.75 5588.5,-330.75"/>
<text text-anchor="start" x="5768.75" y="-335.45" font-family="Helvetica,sans-Serif" font-size="14.00"> &#160;&#160;&#160;&#160;&#160;&#160;&#160;&#160;&#160;&#160;&#160;domainname &#160;&#160;&#160;&#160;&#160;&#160;&#160;</text>
<polygon fill="none" stroke="#0a0a0a" points="5950.5,-330.75 5950.5,-349.75 6733.5,-349.75 6733.5,-330.75 5950.5,-330.75"/>
<text text-anchor="start" x="5951.5" y="-335.45" font-family="Helvetica,sans-Serif" font-size="14.00"> &#160;&#160;&#160;&#160;&#160;&#160;&#160;&#160;&#160;&#160;&#160;farm.evil &#160;&#160;&#160;&#160;&#160;&#160;&#160;</text>
<polygon fill="none" stroke="#0a0a0a" points="5588.5,-311.75 5588.5,-330.75 5950.5,-330.75 5950.5,-311.75 5588.5,-311.75"/>
<text text-anchor="start" x="5813.75" y="-316.45" font-family="Helvetica,sans-Serif" font-size="14.00"> &#160;&#160;&#160;&#160;&#160;&#160;&#160;&#160;&#160;&#160;&#160;restart &#160;&#160;&#160;&#160;&#160;&#160;&#160;</text>
<polygon fill="none" stroke="#0a0a0a" points="5950.5,-311.75 5950.5,-330.75 6733.5,-330.75 6733.5,-311.75 5950.5,-311.75"/>
<text text-anchor="start" x="5951.5" y="-316.45" font-family="Helvetica,sans-Serif" font-size="14.00"> &#160;&#160;&#160;&#160;&#160;&#160;&#160;&#160;&#160;&#160;&#160;always &#160;&#160;&#160;&#160;&#160;&#160;&#160;</text>
<polygon fill="none" stroke="#0a0a0a" points="5588.5,-292.75 5588.5,-311.75 5950.5,-311.75 5950.5,-292.75 5588.5,-292.75"/>
<text text-anchor="start" x="5816.75" y="-297.45" font-family="Helvetica,sans-Serif" font-size="14.00"> &#160;&#160;&#160;&#160;&#160;&#160;&#160;&#160;&#160;&#160;&#160;image &#160;&#160;&#160;&#160;&#160;&#160;&#160;</text>
<polygon fill="none" stroke="#0a0a0a" points="5950.5,-292.75 5950.5,-311.75 6733.5,-311.75 6733.5,-292.75 5950.5,-292.75"/>
<text text-anchor="start" x="5951.5" y="-297.45" font-family="Helvetica,sans-Serif" font-size="14.00"> &#160;&#160;&#160;&#160;&#160;&#160;&#160;&#160;&#160;&#160;&#160;mongodb/mongodb&#45;community&#45;server:4.4&#45;ubuntu2004 &#160;&#160;&#160;&#160;&#160;&#160;&#160;</text>
<polygon fill="none" stroke="#0a0a0a" points="5588.5,-273.75 5588.5,-292.75 5950.5,-292.75 5950.5,-273.75 5588.5,-273.75"/>
<text text-anchor="start" x="5671.25" y="-278.45" font-family="Helvetica,sans-Serif" font-size="14.00"> &#160;&#160;&#160;&#160;&#160;&#160;&#160;&#160;&#160;&#160;&#160;command (ENTRYPOINT +) &#160;&#160;&#160;&#160;&#160;&#160;&#160;</text>
<polygon fill="none" stroke="#0a0a0a" points="5950.5,-273.75 5950.5,-292.75 6733.5,-292.75 6733.5,-273.75 5950.5,-273.75"/>
<text text-anchor="start" x="5951.25" y="-278.45" font-family="Helvetica,sans-Serif" font-size="14.00"> &#160;&#160;&#160;&#160;&#160;&#160;&#160;&#160;&#160;&#160;&#160;&#45;&#45;port 21017 &#45;&#45;dbpath /data/db &#45;&#45;bind_ip_all &#45;&#45;noauth &#45;&#45;storageEngine wiredTiger &#45;&#45;tlsMode disabled &#160;&#160;&#160;&#160;&#160;&#160;&#160;</text>
<polygon fill="none" stroke="#0a0a0a" points="5588.5,-212.75 5588.5,-273.75 5950.5,-273.75 5950.5,-212.75 5588.5,-212.75"/>
<polygon fill="none" stroke="#0a0a0a" points="5590.5,-252.5 5590.5,-271.75 5948.75,-271.75 5948.75,-252.5 5590.5,-252.5"/>
<text text-anchor="start" x="5591.5" y="-257.45" font-family="Helvetica,sans-Serif" font-size="14.00"> &#160;&#160;&#160;&#160;&#160;&#160;&#160;&#160;&#160;&#160;&#160;&#160;&#160;&#160;&#160;&#160;&#160;&#160;&#160;&#160;&#160;&#160;&#160;&#160;&#160;&#160;&#160;/data/db:rw &#160;&#160;&#160;&#160;&#160;&#160;&#160;&#160;&#160;&#160;&#160;&#160;&#160;&#160;&#160;&#160;&#160;&#160;&#160;&#160;&#160;&#160;&#160;</text>
<polygon fill="none" stroke="#0a0a0a" points="5590.5,-233.25 5590.5,-252.5 5948.75,-252.5 5948.75,-233.25 5590.5,-233.25"/>
<text text-anchor="start" x="5591.5" y="-238.2" font-family="Helvetica,sans-Serif" font-size="14.00"> &#160;&#160;&#160;&#160;&#160;&#160;&#160;&#160;&#160;&#160;&#160;&#160;&#160;&#160;&#160;&#160;&#160;&#160;&#160;&#160;&#160;&#160;&#160;&#160;&#160;&#160;&#160;/data/share/nfs:ro &#160;&#160;&#160;&#160;&#160;&#160;&#160;&#160;&#160;&#160;&#160;&#160;&#160;&#160;&#160;&#160;&#160;&#160;&#160;&#160;&#160;&#160;&#160;</text>
<polygon fill="none" stroke="#0a0a0a" points="5590.5,-214 5590.5,-233.25 5948.75,-233.25 5948.75,-214 5590.5,-214"/>
<text text-anchor="start" x="5591.5" y="-218.95" font-family="Helvetica,sans-Serif" font-size="14.00"> &#160;&#160;&#160;&#160;&#160;&#160;&#160;&#160;&#160;&#160;&#160;&#160;&#160;&#160;&#160;&#160;&#160;&#160;&#160;&#160;&#160;&#160;&#160;&#160;&#160;&#160;&#160;/nfs:ro &#160;&#160;&#160;&#160;&#160;&#160;&#160;&#160;&#160;&#160;&#160;&#160;&#160;&#160;&#160;&#160;&#160;&#160;&#160;&#160;&#160;&#160;&#160;</text>
<polygon fill="none" stroke="#0a0a0a" points="5589.5,-213.75 5589.5,-272.75 5949.5,-272.75 5949.5,-213.75 5589.5,-213.75"/>
<polygon fill="none" stroke="#0a0a0a" points="5950.5,-212.75 5950.5,-273.75 6733.5,-273.75 6733.5,-212.75 5950.5,-212.75"/>
<text text-anchor="start" x="5951.5" y="-238.57" font-family="Helvetica,sans-Serif" font-size="14.00"> &#160;&#160;&#160;&#160;&#160;&#160;&#160;&#160;&#160;&#160;&#160;&#160;&#160;&#160;&#160;volumes (3) &#160;&#160;&#160;&#160;&#160;&#160;&#160;&#160;&#160;&#160;&#160;</text>
<polygon fill="none" stroke="#0a0a0a" points="5588.5,-189.75 5588.5,-212.75 5950.5,-212.75 5950.5,-189.75 5588.5,-189.75"/>
<polygon fill="none" stroke="#0a0a0a" points="5590.5,-191.5 5590.5,-210.75 5948.5,-210.75 5948.5,-191.5 5590.5,-191.5"/>
<text text-anchor="start" x="5591.5" y="-196.45" font-family="Helvetica,sans-Serif" font-size="14.00"> &#160;&#160;&#160;&#160;&#160;&#160;&#160;&#160;&#160;&#160;&#160;&#160;&#160;&#160;&#160;&#160;&#160;&#160;&#160;&#160;&#160;&#160;&#160;&#160;&#160;&#160;&#160;21017 → 21017 &#160;&#160;&#160;&#160;&#160;&#160;&#160;&#160;&#160;&#160;&#160;&#160;&#160;&#160;&#160;&#160;&#160;&#160;&#160;&#160;&#160;&#160;&#160;</text>
<polygon fill="none" stroke="#0a0a0a" points="5589.5,-190.75 5589.5,-211.75 5949.5,-211.75 5949.5,-190.75 5589.5,-190.75"/>
<polygon fill="none" stroke="#0a0a0a" points="5950.5,-189.75 5950.5,-212.75 6733.5,-212.75 6733.5,-189.75 5950.5,-189.75"/>
<text text-anchor="start" x="5951.5" y="-196.57" font-family="Helvetica,sans-Serif" font-size="14.00"> &#160;&#160;&#160;&#160;&#160;&#160;&#160;&#160;&#160;&#160;&#160;&#160;&#160;&#160;&#160;ports (1) &#160;&#160;&#160;&#160;&#160;&#160;&#160;&#160;&#160;&#160;&#160;</text>
<polygon fill="none" stroke="#0a0a0a" points="5588.5,-147.75 5588.5,-189.75 5950.5,-189.75 5950.5,-147.75 5588.5,-147.75"/>
<polygon fill="none" stroke="#0a0a0a" points="5590.5,-168.5 5590.5,-187.75 5948.5,-187.75 5948.5,-168.5 5590.5,-168.5"/>
<text text-anchor="start" x="5591.5" y="-173.45" font-family="Helvetica,sans-Serif" font-size="14.00"> &#160;&#160;&#160;&#160;&#160;&#160;&#160;&#160;&#160;&#160;&#160;&#160;&#160;&#160;&#160;&#160;&#160;&#160;&#160;&#160;&#160;&#160;&#160;&#160;&#160;&#160;&#160;mongodb &#160;&#160;&#160;&#160;&#160;&#160;&#160;&#160;&#160;&#160;&#160;&#160;&#160;&#160;&#160;&#160;&#160;&#160;&#160;&#160;&#160;&#160;&#160;</text>
<polygon fill="none" stroke="#0a0a0a" points="5590.5,-149.25 5590.5,-168.5 5948.5,-168.5 5948.5,-149.25 5590.5,-149.25"/>
<text text-anchor="start" x="5591.5" y="-154.2" font-family="Helvetica,sans-Serif" font-size="14.00"> &#160;&#160;&#160;&#160;&#160;&#160;&#160;&#160;&#160;&#160;&#160;&#160;&#160;&#160;&#160;&#160;&#160;&#160;&#160;&#160;&#160;&#160;&#160;&#160;&#160;&#160;&#160;repository &#160;&#160;&#160;&#160;&#160;&#160;&#160;&#160;&#160;&#160;&#160;&#160;&#160;&#160;&#160;&#160;&#160;&#160;&#160;&#160;&#160;&#160;&#160;</text>
<polygon fill="none" stroke="#0a0a0a" points="5589.5,-148.75 5589.5,-188.75 5949.5,-188.75 5949.5,-148.75 5589.5,-148.75"/>
<polygon fill="none" stroke="#0a0a0a" points="5950.5,-147.75 5950.5,-189.75 6733.5,-189.75 6733.5,-147.75 5950.5,-147.75"/>
<text text-anchor="start" x="5951.5" y="-164.07" font-family="Helvetica,sans-Serif" font-size="14.00"> &#160;&#160;&#160;&#160;&#160;&#160;&#160;&#160;&#160;&#160;&#160;&#160;&#160;&#160;&#160;networks (2) &#160;&#160;&#160;&#160;&#160;&#160;&#160;&#160;&#160;&#160;&#160;</text>
<polygon fill="none" stroke="#0a0a0a" points="5587.5,-146.75 5587.5,-407.75 6734.5,-407.75 6734.5,-146.75 5587.5,-146.75"/>
</g>
<!-- NODE&#45;SERVICE_repository&#45;10&#45;2 -->
<g id="node2" class="node">
<title>NODE&#45;SERVICE_repository&#45;10&#45;2</title>
<polygon fill="#a0a0a0" stroke="none" points="4867.5,-426.25 2027.5,-426.25 2027.5,-146.25 4867.5,-146.25 4867.5,-426.25"/>
<polygon fill="none" stroke="#0a0a0a" points="2028.5,-406.25 2028.5,-425.25 2541.5,-425.25 2541.5,-406.25 2028.5,-406.25"/>
<text text-anchor="start" x="2355.25" y="-410.95" font-family="Helvetica,sans-Serif" font-size="14.00"> &#160;&#160;&#160;&#160;&#160;&#160;&#160;&#160;&#160;&#160;&#160;service_name &#160;&#160;&#160;&#160;&#160;&#160;&#160;</text>
<polygon fill="none" stroke="#0a0a0a" points="2541.5,-406.25 2541.5,-425.25 4866.5,-425.25 4866.5,-406.25 2541.5,-406.25"/>
<text text-anchor="start" x="2542.5" y="-410.95" font-family="Helvetica,sans-Serif" font-size="14.00"> &#160;&#160;&#160;&#160;&#160;&#160;&#160;&#160;&#160;&#160;&#160;repository&#45;10&#45;2 &#160;&#160;&#160;&#160;&#160;&#160;&#160;</text>
<polygon fill="none" stroke="#0a0a0a" points="2028.5,-387.25 2028.5,-406.25 2541.5,-406.25 2541.5,-387.25 2028.5,-387.25"/>
<text text-anchor="start" x="2339.5" y="-391.95" font-family="Helvetica,sans-Serif" font-size="14.00"> &#160;&#160;&#160;&#160;&#160;&#160;&#160;&#160;&#160;&#160;&#160;container_name &#160;&#160;&#160;&#160;&#160;&#160;&#160;</text>
<polygon fill="none" stroke="#0a0a0a" points="2541.5,-387.25 2541.5,-406.25 4866.5,-406.25 4866.5,-387.25 2541.5,-387.25"/>
<text text-anchor="start" x="2542.5" y="-391.95" font-family="Helvetica,sans-Serif" font-size="14.00"> &#160;&#160;&#160;&#160;&#160;&#160;&#160;&#160;&#160;&#160;&#160;repository&#45;10&#45;2 &#160;&#160;&#160;&#160;&#160;&#160;&#160;</text>
<polygon fill="none" stroke="#0a0a0a" points="2028.5,-368.25 2028.5,-387.25 2541.5,-387.25 2541.5,-368.25 2028.5,-368.25"/>
<text text-anchor="start" x="2381.5" y="-372.95" font-family="Helvetica,sans-Serif" font-size="14.00"> &#160;&#160;&#160;&#160;&#160;&#160;&#160;&#160;&#160;&#160;&#160;hostname &#160;&#160;&#160;&#160;&#160;&#160;&#160;</text>
<polygon fill="none" stroke="#0a0a0a" points="2541.5,-368.25 2541.5,-387.25 4866.5,-387.25 4866.5,-368.25 2541.5,-368.25"/>
<text text-anchor="start" x="2542.5" y="-372.95" font-family="Helvetica,sans-Serif" font-size="14.00"> &#160;&#160;&#160;&#160;&#160;&#160;&#160;&#160;&#160;&#160;&#160;repository&#45;10&#45;2 &#160;&#160;&#160;&#160;&#160;&#160;&#160;</text>
<polygon fill="none" stroke="#0a0a0a" points="2028.5,-349.25 2028.5,-368.25 2541.5,-368.25 2541.5,-349.25 2028.5,-349.25"/>
<text text-anchor="start" x="2359.75" y="-353.95" font-family="Helvetica,sans-Serif" font-size="14.00"> &#160;&#160;&#160;&#160;&#160;&#160;&#160;&#160;&#160;&#160;&#160;domainname &#160;&#160;&#160;&#160;&#160;&#160;&#160;</text>
<polygon fill="none" stroke="#0a0a0a" points="2541.5,-349.25 2541.5,-368.25 4866.5,-368.25 4866.5,-349.25 2541.5,-349.25"/>
<text text-anchor="start" x="2542.5" y="-353.95" font-family="Helvetica,sans-Serif" font-size="14.00"> &#160;&#160;&#160;&#160;&#160;&#160;&#160;&#160;&#160;&#160;&#160;farm.evil &#160;&#160;&#160;&#160;&#160;&#160;&#160;</text>
<polygon fill="none" stroke="#0a0a0a" points="2028.5,-330.25 2028.5,-349.25 2541.5,-349.25 2541.5,-330.25 2028.5,-330.25"/>
<text text-anchor="start" x="2404.75" y="-334.95" font-family="Helvetica,sans-Serif" font-size="14.00"> &#160;&#160;&#160;&#160;&#160;&#160;&#160;&#160;&#160;&#160;&#160;restart &#160;&#160;&#160;&#160;&#160;&#160;&#160;</text>
<polygon fill="none" stroke="#0a0a0a" points="2541.5,-330.25 2541.5,-349.25 4866.5,-349.25 4866.5,-330.25 2541.5,-330.25"/>
<text text-anchor="start" x="2542.5" y="-334.95" font-family="Helvetica,sans-Serif" font-size="14.00"> &#160;&#160;&#160;&#160;&#160;&#160;&#160;&#160;&#160;&#160;&#160;no &#160;&#160;&#160;&#160;&#160;&#160;&#160;</text>
<polygon fill="none" stroke="#0a0a0a" points="2028.5,-311.25 2028.5,-330.25 2541.5,-330.25 2541.5,-311.25 2028.5,-311.25"/>
<text text-anchor="start" x="2407.75" y="-315.95" font-family="Helvetica,sans-Serif" font-size="14.00"> &#160;&#160;&#160;&#160;&#160;&#160;&#160;&#160;&#160;&#160;&#160;image &#160;&#160;&#160;&#160;&#160;&#160;&#160;</text>
<polygon fill="none" stroke="#0a0a0a" points="2541.5,-311.25 2541.5,-330.25 4866.5,-330.25 4866.5,-311.25 2541.5,-311.25"/>
<text text-anchor="start" x="2542.5" y="-315.95" font-family="Helvetica,sans-Serif" font-size="14.00"> &#160;&#160;&#160;&#160;&#160;&#160;&#160;&#160;&#160;&#160;&#160;michimussato/deadline_10_2__build_repository_image_10_2:2025&#45;02&#45;01_00&#45;11&#45;08__578595276b424d1ea62550cb0b6f166f &#160;&#160;&#160;&#160;&#160;&#160;&#160;</text>
<polygon fill="none" stroke="#0a0a0a" points="2028.5,-292.25 2028.5,-311.25 2541.5,-311.25 2541.5,-292.25 2028.5,-292.25"/>
<text text-anchor="start" x="2262.25" y="-296.95" font-family="Helvetica,sans-Serif" font-size="14.00"> &#160;&#160;&#160;&#160;&#160;&#160;&#160;&#160;&#160;&#160;&#160;command (ENTRYPOINT +) &#160;&#160;&#160;&#160;&#160;&#160;&#160;</text>
<polygon fill="none" stroke="#0a0a0a" points="2541.5,-292.25 2541.5,-311.25 4866.5,-311.25 4866.5,-292.25 2541.5,-292.25"/>
<text text-anchor="start" x="2542.25" y="-296.95" font-family="Helvetica,sans-Serif" font-size="14.00"> &#160;&#160;&#160;&#160;&#160;&#160;&#160;&#160;&#160;&#160;&#160;/installers/DeadlineRepository.run &#45;&#45;mode unattended &#45;&#45;prefix /opt/Thinkbox/DeadlineRepository10 &#45;&#45;setpermissions true &#45;&#45;dbtype MongoDB &#45;&#45;installmongodb false &#45;&#45;dbhost mongodb&#45;10&#45;2 &#45;&#45;dbport 21017 &#45;&#45;dbname deadline10db &#45;&#45;dbauth false &#45;&#45;dbssl false &#45;&#45;installSecretsManagement false &#45;&#45;importrepositorysettings false &#160;&#160;&#160;&#160;&#160;&#160;&#160;</text>
<polygon fill="none" stroke="#0a0a0a" points="2028.5,-269.25 2028.5,-292.25 2541.5,-292.25 2541.5,-269.25 2028.5,-269.25"/>
<text text-anchor="start" x="2306.5" y="-276.07" font-family="Helvetica,sans-Serif" font-size="14.00"> &#160;&#160;&#160;&#160;&#160;&#160;&#160;&#160;&#160;&#160;&#160;&#160;&#160;&#160;&#160;depends_on (1) &#160;&#160;&#160;&#160;&#160;&#160;&#160;&#160;&#160;&#160;&#160;</text>
<polygon fill="none" stroke="#0a0a0a" points="2541.5,-269.25 2541.5,-292.25 4866.5,-292.25 4866.5,-269.25 2541.5,-269.25"/>
<polygon fill="none" stroke="#0a0a0a" points="2543.5,-271 2543.5,-290.25 4864.5,-290.25 4864.5,-271 2543.5,-271"/>
<text text-anchor="start" x="2544.5" y="-275.95" font-family="Helvetica,sans-Serif" font-size="14.00"> &#160;&#160;&#160;&#160;&#160;&#160;&#160;&#160;&#160;&#160;&#160;&#160;&#160;&#160;&#160;&#160;&#160;&#160;&#160;&#160;&#160;&#160;&#160;&#160;&#160;&#160;&#160;mongodb&#45;10&#45;2 (condition: None) &#160;&#160;&#160;&#160;&#160;&#160;&#160;&#160;&#160;&#160;&#160;&#160;&#160;&#160;&#160;&#160;&#160;&#160;&#160;&#160;&#160;&#160;&#160;</text>
<polygon fill="none" stroke="#0a0a0a" points="2542.5,-270.25 2542.5,-291.25 4865.5,-291.25 4865.5,-270.25 2542.5,-270.25"/>
<polygon fill="none" stroke="#0a0a0a" points="2028.5,-208.25 2028.5,-269.25 2541.5,-269.25 2541.5,-208.25 2028.5,-208.25"/>
<polygon fill="none" stroke="#0a0a0a" points="2030.5,-248 2030.5,-267.25 2540.25,-267.25 2540.25,-248 2030.5,-248"/>
<text text-anchor="start" x="2031.5" y="-252.95" font-family="Helvetica,sans-Serif" font-size="14.00"> &#160;&#160;&#160;&#160;&#160;&#160;&#160;&#160;&#160;&#160;&#160;&#160;&#160;&#160;&#160;&#160;&#160;&#160;&#160;&#160;&#160;&#160;&#160;&#160;&#160;&#160;&#160;/data/share/nfs:rw &#160;&#160;&#160;&#160;&#160;&#160;&#160;&#160;&#160;&#160;&#160;&#160;&#160;&#160;&#160;&#160;&#160;&#160;&#160;&#160;&#160;&#160;&#160;</text>
<polygon fill="none" stroke="#0a0a0a" points="2030.5,-228.75 2030.5,-248 2540.25,-248 2540.25,-228.75 2030.5,-228.75"/>
<text text-anchor="start" x="2031.5" y="-233.7" font-family="Helvetica,sans-Serif" font-size="14.00"> &#160;&#160;&#160;&#160;&#160;&#160;&#160;&#160;&#160;&#160;&#160;&#160;&#160;&#160;&#160;&#160;&#160;&#160;&#160;&#160;&#160;&#160;&#160;&#160;&#160;&#160;&#160;/nfs:rw &#160;&#160;&#160;&#160;&#160;&#160;&#160;&#160;&#160;&#160;&#160;&#160;&#160;&#160;&#160;&#160;&#160;&#160;&#160;&#160;&#160;&#160;&#160;</text>
<polygon fill="none" stroke="#0a0a0a" points="2030.5,-209.5 2030.5,-228.75 2540.25,-228.75 2540.25,-209.5 2030.5,-209.5"/>
<text text-anchor="start" x="2031.5" y="-214.45" font-family="Helvetica,sans-Serif" font-size="14.00"> &#160;&#160;&#160;&#160;&#160;&#160;&#160;&#160;&#160;&#160;&#160;&#160;&#160;&#160;&#160;&#160;&#160;&#160;&#160;&#160;&#160;&#160;&#160;&#160;&#160;&#160;&#160;/opt/Thinkbox/DeadlineRepository10:rw &#160;&#160;&#160;&#160;&#160;&#160;&#160;&#160;&#160;&#160;&#160;&#160;&#160;&#160;&#160;&#160;&#160;&#160;&#160;&#160;&#160;&#160;&#160;</text>
<polygon fill="none" stroke="#0a0a0a" points="2029.5,-209.25 2029.5,-268.25 2540.5,-268.25 2540.5,-209.25 2029.5,-209.25"/>
<polygon fill="none" stroke="#0a0a0a" points="2541.5,-208.25 2541.5,-269.25 4866.5,-269.25 4866.5,-208.25 2541.5,-208.25"/>
<text text-anchor="start" x="2542.5" y="-234.07" font-family="Helvetica,sans-Serif" font-size="14.00"> &#160;&#160;&#160;&#160;&#160;&#160;&#160;&#160;&#160;&#160;&#160;&#160;&#160;&#160;&#160;volumes (3) &#160;&#160;&#160;&#160;&#160;&#160;&#160;&#160;&#160;&#160;&#160;</text>
<polygon fill="none" stroke="#0a0a0a" points="2028.5,-147.25 2028.5,-208.25 2541.5,-208.25 2541.5,-147.25 2028.5,-147.25"/>
<polygon fill="none" stroke="#0a0a0a" points="2030.5,-187 2030.5,-206.25 2539.5,-206.25 2539.5,-187 2030.5,-187"/>
<text text-anchor="start" x="2031.5" y="-191.95" font-family="Helvetica,sans-Serif" font-size="14.00"> &#160;&#160;&#160;&#160;&#160;&#160;&#160;&#160;&#160;&#160;&#160;&#160;&#160;&#160;&#160;&#160;&#160;&#160;&#160;&#160;&#160;&#160;&#160;&#160;&#160;&#160;&#160;ayon &#160;&#160;&#160;&#160;&#160;&#160;&#160;&#160;&#160;&#160;&#160;&#160;&#160;&#160;&#160;&#160;&#160;&#160;&#160;&#160;&#160;&#160;&#160;</text>
<polygon fill="none" stroke="#0a0a0a" points="2030.5,-167.75 2030.5,-187 2539.5,-187 2539.5,-167.75 2030.5,-167.75"/>
<text text-anchor="start" x="2031.5" y="-172.7" font-family="Helvetica,sans-Serif" font-size="14.00"> &#160;&#160;&#160;&#160;&#160;&#160;&#160;&#160;&#160;&#160;&#160;&#160;&#160;&#160;&#160;&#160;&#160;&#160;&#160;&#160;&#160;&#160;&#160;&#160;&#160;&#160;&#160;mongodb &#160;&#160;&#160;&#160;&#160;&#160;&#160;&#160;&#160;&#160;&#160;&#160;&#160;&#160;&#160;&#160;&#160;&#160;&#160;&#160;&#160;&#160;&#160;</text>
<polygon fill="none" stroke="#0a0a0a" points="2030.5,-148.5 2030.5,-167.75 2539.5,-167.75 2539.5,-148.5 2030.5,-148.5"/>
<text text-anchor="start" x="2031.5" y="-153.45" font-family="Helvetica,sans-Serif" font-size="14.00"> &#160;&#160;&#160;&#160;&#160;&#160;&#160;&#160;&#160;&#160;&#160;&#160;&#160;&#160;&#160;&#160;&#160;&#160;&#160;&#160;&#160;&#160;&#160;&#160;&#160;&#160;&#160;repository &#160;&#160;&#160;&#160;&#160;&#160;&#160;&#160;&#160;&#160;&#160;&#160;&#160;&#160;&#160;&#160;&#160;&#160;&#160;&#160;&#160;&#160;&#160;</text>
<polygon fill="none" stroke="#0a0a0a" points="2029.5,-148.25 2029.5,-207.25 2540.5,-207.25 2540.5,-148.25 2029.5,-148.25"/>
<polygon fill="none" stroke="#0a0a0a" points="2541.5,-147.25 2541.5,-208.25 4866.5,-208.25 4866.5,-147.25 2541.5,-147.25"/>
<text text-anchor="start" x="2542.5" y="-173.07" font-family="Helvetica,sans-Serif" font-size="14.00"> &#160;&#160;&#160;&#160;&#160;&#160;&#160;&#160;&#160;&#160;&#160;&#160;&#160;&#160;&#160;networks (3) &#160;&#160;&#160;&#160;&#160;&#160;&#160;&#160;&#160;&#160;&#160;</text>
<polygon fill="none" stroke="#0a0a0a" points="2027.5,-146.25 2027.5,-426.25 4867.5,-426.25 4867.5,-146.25 2027.5,-146.25"/>
</g>
<!-- NODE&#45;SERVICE_repository&#45;10&#45;2&#45;&gt;NODE&#45;SERVICE_mongodb&#45;10&#45;2 -->
<g id="edge1" class="edge">
<title>NODE&#45;SERVICE_repository&#45;10&#45;2:e&#45;&gt;NODE&#45;SERVICE_mongodb&#45;10&#45;2:w</title>
<path fill="none" stroke="yellow" stroke-width="2" d="M4875.71,-282.27C4957.29,-295.45 5502.4,-383.5 5578.65,-395.82"/>
<polygon fill="yellow" stroke="yellow" stroke-width="2" points="4867.05,-277.33 4876.36,-282.38 4865.93,-284.24 4867.05,-277.33"/>
<ellipse fill="yellow" stroke="yellow" stroke-width="2" cx="5582.56" cy="-396.45" rx="4" ry="4"/>
</g>
<!-- mongodb&#45;10&#45;2__21017__21017 -->
<g id="node3" class="node">
<title>mongodb&#45;10&#45;2__21017__21017</title>
<ellipse fill="#ffffff" stroke="black" cx="665.75" cy="-554.25" rx="42.79" ry="42.79"/>
<text text-anchor="middle" x="665.75" y="-549.58" font-family="Helvetica,sans-Serif" font-size="14.00">21017</text>
</g>
<!-- mongodb&#45;10&#45;2__21017__21017&#45;&gt;NODE&#45;SERVICE_mongodb&#45;10&#45;2 -->
<g id="edge2" class="edge">
<title>mongodb&#45;10&#45;2__21017__21017:e&#45;&gt;NODE&#45;SERVICE_mongodb&#45;10&#45;2:w</title>
<path fill="none" stroke="#ffffff" d="M717.87,-553.6C943.17,-537.31 5357.64,-217.97 5581.67,-201.76"/>
<ellipse fill="#ffffff" stroke="#ffffff" cx="713.43" cy="-553.93" rx="4" ry="4"/>
<ellipse fill="#ffffff" stroke="#ffffff" cx="5586.01" cy="-201.45" rx="4" ry="4"/>
</g>
<!-- /data/share/nfs -->
<g id="node4" class="node">
<title>/data/share/nfs</title>
<path fill="#00ffff" stroke="black" d="M713.88,-201.25C713.88,-201.25 617.62,-201.25 617.62,-201.25 611.62,-201.25 605.62,-195.25 605.62,-189.25 605.62,-189.25 605.62,-177.25 605.62,-177.25 605.62,-171.25 611.62,-165.25 617.62,-165.25 617.62,-165.25 713.88,-165.25 713.88,-165.25 719.88,-165.25 725.88,-171.25 725.88,-177.25 725.88,-177.25 725.88,-189.25 725.88,-189.25 725.88,-195.25 719.88,-201.25 713.88,-201.25"/>
<text text-anchor="middle" x="665.75" y="-178.57" font-family="Helvetica,sans-Serif" font-size="14.00">/data/share/nfs</text>
</g>
<!-- /data/share/nfs&#45;&gt;NODE&#45;SERVICE_mongodb&#45;10&#45;2 -->
<g id="edge3" class="edge">
<title>/data/share/nfs:e&#45;&gt;NODE&#45;SERVICE_mongodb&#45;10&#45;2:w</title>
<path fill="none" stroke="#00ffff" stroke-dasharray="5,2" d="M734.77,-183.36C959.29,-186.11 5358.45,-240.03 5581.7,-242.77"/>
<ellipse fill="#00ffff" stroke="#00ffff" cx="730.37" cy="-183.31" rx="4" ry="4"/>
<ellipse fill="#00ffff" stroke="#00ffff" cx="5586" cy="-242.82" rx="4" ry="4"/>
</g>
<!-- /data/share/nfs&#45;&gt;NODE&#45;SERVICE_mongodb&#45;10&#45;2 -->
<g id="edge4" class="edge">
<title>/data/share/nfs:e&#45;&gt;NODE&#45;SERVICE_mongodb&#45;10&#45;2:w</title>
<path fill="none" stroke="#00ffff" stroke-dasharray="5,2" d="M734.77,-183.32C959.29,-185.19 5358.45,-221.7 5581.7,-223.55"/>
<ellipse fill="#00ffff" stroke="#00ffff" cx="730.37" cy="-183.29" rx="4" ry="4"/>
<ellipse fill="#00ffff" stroke="#00ffff" cx="5586" cy="-223.59" rx="4" ry="4"/>
</g>
<!-- /data/share/nfs&#45;&gt;NODE&#45;SERVICE_repository&#45;10&#45;2 -->
<g id="edge6" class="edge">
<title>/data/share/nfs:e&#45;&gt;NODE&#45;SERVICE_repository&#45;10&#45;2:w</title>
<path fill="none" stroke="#00ffff" d="M735.54,-183.74C842.82,-189.87 1912.31,-250.93 2020.66,-257.12"/>
<ellipse fill="#00ffff" stroke="#00ffff" cx="731.37" cy="-183.51" rx="4" ry="4"/>
<ellipse fill="#00ffff" stroke="#00ffff" cx="2025.01" cy="-257.37" rx="4" ry="4"/>
</g>
<!-- /data/share/nfs&#45;&gt;NODE&#45;SERVICE_repository&#45;10&#45;2 -->
<g id="edge7" class="edge">
<title>/data/share/nfs:e&#45;&gt;NODE&#45;SERVICE_repository&#45;10&#45;2:w</title>
<path fill="none" stroke="#00ffff" d="M735.54,-183.62C842.82,-188.16 1912.31,-233.42 2020.66,-238"/>
<ellipse fill="#00ffff" stroke="#00ffff" cx="731.37" cy="-183.44" rx="4" ry="4"/>
<ellipse fill="#00ffff" stroke="#00ffff" cx="2025" cy="-238.18" rx="4" ry="4"/>
</g>
<!-- /home/michael/git/repos/open&#45;studio&#45;landscapes/.landscapes/2025&#45;02&#45;01_00&#45;11&#45;08__578595276b424d1ea62550cb0b6f166f/Deadline_10_2/data/opt/Thinkbox/DeadlineDatabase10 -->
<g id="node5" class="node">
<title>/home/michael/git/repos/open&#45;studio&#45;landscapes/.landscapes/2025&#45;02&#45;01_00&#45;11&#45;08__578595276b424d1ea62550cb0b6f166f/Deadline_10_2/data/opt/Thinkbox/DeadlineDatabase10</title>
<path fill="#00ffff" stroke="black" d="M1291.38,-85.25C1291.38,-85.25 40.12,-85.25 40.12,-85.25 34.12,-85.25 28.12,-79.25 28.12,-73.25 28.12,-73.25 28.12,-61.25 28.12,-61.25 28.12,-55.25 34.12,-49.25 40.12,-49.25 40.12,-49.25 1291.38,-49.25 1291.38,-49.25 1297.38,-49.25 1303.38,-55.25 1303.38,-61.25 1303.38,-61.25 1303.38,-73.25 1303.38,-73.25 1303.38,-79.25 1297.38,-85.25 1291.38,-85.25"/>
<text text-anchor="middle" x="665.75" y="-62.58" font-family="Helvetica,sans-Serif" font-size="14.00">/home/michael/git/repos/open&#45;studio&#45;landscapes/.landscapes/2025&#45;02&#45;01_00&#45;11&#45;08__578595276b424d1ea62550cb0b6f166f/Deadline_10_2/data/opt/Thinkbox/DeadlineDatabase10</text>
</g>
<!-- /home/michael/git/repos/open&#45;studio&#45;landscapes/.landscapes/2025&#45;02&#45;01_00&#45;11&#45;08__578595276b424d1ea62550cb0b6f166f/Deadline_10_2/data/opt/Thinkbox/DeadlineDatabase10&#45;&gt;NODE&#45;SERVICE_mongodb&#45;10&#45;2 -->
<g id="edge5" class="edge">
<title>/home/michael/git/repos/open&#45;studio&#45;landscapes/.landscapes/2025&#45;02&#45;01_00&#45;11&#45;08__578595276b424d1ea62550cb0b6f166f/Deadline_10_2/data/opt/Thinkbox/DeadlineDatabase10:e&#45;&gt;NODE&#45;SERVICE_mongodb&#45;10&#45;2:w</title>
<path fill="none" stroke="#00ffff" d="M1312.16,-67.65C1520.61,-77.12 5371.13,-252.15 5581.55,-261.72"/>
<ellipse fill="#00ffff" stroke="#00ffff" cx="1307.87" cy="-67.45" rx="4" ry="4"/>
<ellipse fill="#00ffff" stroke="#00ffff" cx="5586" cy="-261.92" rx="4" ry="4"/>
</g>
<!-- /home/michael/git/repos/open&#45;studio&#45;landscapes/.landscapes/2025&#45;02&#45;01_00&#45;11&#45;08__578595276b424d1ea62550cb0b6f166f/Deadline_10_2/data/opt/Thinkbox/DeadlineRepository10 -->
<g id="node6" class="node">
<title>/home/michael/git/repos/open&#45;studio&#45;landscapes/.landscapes/2025&#45;02&#45;01_00&#45;11&#45;08__578595276b424d1ea62550cb0b6f166f/Deadline_10_2/data/opt/Thinkbox/DeadlineRepository10</title>
<path fill="#00ffff" stroke="black" d="M1295.5,-143.25C1295.5,-143.25 36,-143.25 36,-143.25 30,-143.25 24,-137.25 24,-131.25 24,-131.25 24,-119.25 24,-119.25 24,-113.25 30,-107.25 36,-107.25 36,-107.25 1295.5,-107.25 1295.5,-107.25 1301.5,-107.25 1307.5,-113.25 1307.5,-119.25 1307.5,-119.25 1307.5,-131.25 1307.5,-131.25 1307.5,-137.25 1301.5,-143.25 1295.5,-143.25"/>
<text text-anchor="middle" x="665.75" y="-120.58" font-family="Helvetica,sans-Serif" font-size="14.00">/home/michael/git/repos/open&#45;studio&#45;landscapes/.landscapes/2025&#45;02&#45;01_00&#45;11&#45;08__578595276b424d1ea62550cb0b6f166f/Deadline_10_2/data/opt/Thinkbox/DeadlineRepository10</text>
</g>
<!-- /home/michael/git/repos/open&#45;studio&#45;landscapes/.landscapes/2025&#45;02&#45;01_00&#45;11&#45;08__578595276b424d1ea62550cb0b6f166f/Deadline_10_2/data/opt/Thinkbox/DeadlineRepository10&#45;&gt;NODE&#45;SERVICE_repository&#45;10&#45;2 -->
<g id="edge8" class="edge">
<title>/home/michael/git/repos/open&#45;studio&#45;landscapes/.landscapes/2025&#45;02&#45;01_00&#45;11&#45;08__578595276b424d1ea62550cb0b6f166f/Deadline_10_2/data/opt/Thinkbox/DeadlineRepository10:e&#45;&gt;NODE&#45;SERVICE_repository&#45;10&#45;2:w</title>
<path fill="none" stroke="#00ffff" d="M1317.36,-126.4C1394.13,-136.4 1945.96,-208.25 2021.05,-218.02"/>
<ellipse fill="#00ffff" stroke="#00ffff" cx="1312.96" cy="-125.83" rx="4" ry="4"/>
<ellipse fill="#00ffff" stroke="#00ffff" cx="2025.04" cy="-218.54" rx="4" ry="4"/>
</g>
<!-- mongodb -->
<g id="node7" class="node">
<title>mongodb</title>
<path fill="#ffa500" stroke="black" d="M694.75,-374.25C694.75,-374.25 636.75,-374.25 636.75,-374.25 630.75,-374.25 624.75,-368.25 624.75,-362.25 624.75,-362.25 624.75,-350.25 624.75,-350.25 624.75,-344.25 630.75,-338.25 636.75,-338.25 636.75,-338.25 694.75,-338.25 694.75,-338.25 700.75,-338.25 706.75,-344.25 706.75,-350.25 706.75,-350.25 706.75,-362.25 706.75,-362.25 706.75,-368.25 700.75,-374.25 694.75,-374.25"/>
<text text-anchor="middle" x="665.75" y="-351.57" font-family="Helvetica,sans-Serif" font-size="14.00">mongodb</text>
</g>
<!-- mongodb&#45;&gt;NODE&#45;SERVICE_mongodb&#45;10&#45;2 -->
<g id="edge9" class="edge">
<title>mongodb:e&#45;&gt;NODE&#45;SERVICE_mongodb&#45;10&#45;2:w</title>
<path fill="none" stroke="#ffa500" d="M715.68,-355.92C941.08,-347.7 5357.54,-186.62 5581.67,-178.45"/>
<ellipse fill="#ffa500" stroke="#ffa500" cx="711.25" cy="-356.09" rx="4" ry="4"/>
<ellipse fill="#ffa500" stroke="#ffa500" cx="5586" cy="-178.29" rx="4" ry="4"/>
</g>
<!-- mongodb&#45;&gt;NODE&#45;SERVICE_repository&#45;10&#45;2 -->
<g id="edge12" class="edge">
<title>mongodb:e&#45;&gt;NODE&#45;SERVICE_repository&#45;10&#45;2:w</title>
<path fill="none" stroke="#ffa500" d="M716.54,-355.06C825.51,-340.31 1912.83,-193.16 2020.86,-178.54"/>
<ellipse fill="#ffa500" stroke="#ffa500" cx="712.21" cy="-355.65" rx="4" ry="4"/>
<ellipse fill="#ffa500" stroke="#ffa500" cx="2025.04" cy="-177.98" rx="4" ry="4"/>
</g>
<!-- repository -->
<g id="node8" class="node">
<title>repository</title>
<path fill="#ffa500" stroke="black" d="M696.62,-316.25C696.62,-316.25 634.88,-316.25 634.88,-316.25 628.88,-316.25 622.88,-310.25 622.88,-304.25 622.88,-304.25 622.88,-292.25 622.88,-292.25 622.88,-286.25 628.88,-280.25 634.88,-280.25 634.88,-280.25 696.62,-280.25 696.62,-280.25 702.62,-280.25 708.62,-286.25 708.62,-292.25 708.62,-292.25 708.62,-304.25 708.62,-304.25 708.62,-310.25 702.62,-316.25 696.62,-316.25"/>
<text text-anchor="middle" x="665.75" y="-293.57" font-family="Helvetica,sans-Serif" font-size="14.00">repository</text>
</g>
<!-- repository&#45;&gt;NODE&#45;SERVICE_mongodb&#45;10&#45;2 -->
<g id="edge10" class="edge">
<title>repository:e&#45;&gt;NODE&#45;SERVICE_mongodb&#45;10&#45;2:w</title>
<path fill="none" stroke="#ffa500" d="M717.56,-298C942.87,-291.56 5357.63,-165.52 5581.67,-159.13"/>
<ellipse fill="#ffa500" stroke="#ffa500" cx="713.12" cy="-298.12" rx="4" ry="4"/>
<ellipse fill="#ffa500" stroke="#ffa500" cx="5586" cy="-159" rx="4" ry="4"/>
</g>
<!-- repository&#45;&gt;NODE&#45;SERVICE_repository&#45;10&#45;2 -->
<g id="edge13" class="edge">
<title>repository:e&#45;&gt;NODE&#45;SERVICE_repository&#45;10&#45;2:w</title>
<path fill="none" stroke="#ffa500" d="M718.4,-297.32C827.22,-285.77 1912.99,-170.49 2020.88,-159.04"/>
<ellipse fill="#ffa500" stroke="#ffa500" cx="714.1" cy="-297.77" rx="4" ry="4"/>
<ellipse fill="#ffa500" stroke="#ffa500" cx="2025.03" cy="-158.6" rx="4" ry="4"/>
</g>
<!-- ayon -->
<g id="node9" class="node">
<title>ayon</title>
<path fill="#ffa500" stroke="black" d="M680.75,-432.25C680.75,-432.25 650.75,-432.25 650.75,-432.25 644.75,-432.25 638.75,-426.25 638.75,-420.25 638.75,-420.25 638.75,-408.25 638.75,-408.25 638.75,-402.25 644.75,-396.25 650.75,-396.25 650.75,-396.25 680.75,-396.25 680.75,-396.25 686.75,-396.25 692.75,-402.25 692.75,-408.25 692.75,-408.25 692.75,-420.25 692.75,-420.25 692.75,-426.25 686.75,-432.25 680.75,-432.25"/>
<text text-anchor="middle" x="665.75" y="-409.57" font-family="Helvetica,sans-Serif" font-size="14.00">ayon</text>
</g>
<!-- ayon&#45;&gt;NODE&#45;SERVICE_repository&#45;10&#45;2 -->
<g id="edge11" class="edge">
<title>ayon:e&#45;&gt;NODE&#45;SERVICE_repository&#45;10&#45;2:w</title>
<path fill="none" stroke="#ffa500" d="M702.28,-412.86C810.38,-395.25 1911.36,-215.87 2020.76,-198.05"/>
<ellipse fill="#ffa500" stroke="#ffa500" cx="698.19" cy="-413.53" rx="4" ry="4"/>
<ellipse fill="#ffa500" stroke="#ffa500" cx="2025.06" cy="-197.35" rx="4" ry="4"/>
</g>
</g>
</svg>
